G04 #@! TF.GenerationSoftware,KiCad,Pcbnew,(6.0.4-0)*
G04 #@! TF.CreationDate,2022-05-03T20:04:39-04:00*
G04 #@! TF.ProjectId,green_house_controller,67726565-6e5f-4686-9f75-73655f636f6e,rev?*
G04 #@! TF.SameCoordinates,Original*
G04 #@! TF.FileFunction,Paste,Top*
G04 #@! TF.FilePolarity,Positive*
%FSLAX46Y46*%
G04 Gerber Fmt 4.6, Leading zero omitted, Abs format (unit mm)*
G04 Created by KiCad (PCBNEW (6.0.4-0)) date 2022-05-03 20:04:39*
%MOMM*%
%LPD*%
G01*
G04 APERTURE LIST*
G04 Aperture macros list*
%AMRoundRect*
0 Rectangle with rounded corners*
0 $1 Rounding radius*
0 $2 $3 $4 $5 $6 $7 $8 $9 X,Y pos of 4 corners*
0 Add a 4 corners polygon primitive as box body*
4,1,4,$2,$3,$4,$5,$6,$7,$8,$9,$2,$3,0*
0 Add four circle primitives for the rounded corners*
1,1,$1+$1,$2,$3*
1,1,$1+$1,$4,$5*
1,1,$1+$1,$6,$7*
1,1,$1+$1,$8,$9*
0 Add four rect primitives between the rounded corners*
20,1,$1+$1,$2,$3,$4,$5,0*
20,1,$1+$1,$4,$5,$6,$7,0*
20,1,$1+$1,$6,$7,$8,$9,0*
20,1,$1+$1,$8,$9,$2,$3,0*%
G04 Aperture macros list end*
G04 #@! TA.AperFunction,Profile*
%ADD10C,0.150000*%
G04 #@! TD*
%ADD11R,1.600000X1.600000*%
%ADD12O,3.000000X0.900000*%
%ADD13R,5.000000X5.000000*%
%ADD14C,0.787400*%
%ADD15RoundRect,0.250000X-0.450000X0.262500X-0.450000X-0.262500X0.450000X-0.262500X0.450000X0.262500X0*%
%ADD16RoundRect,0.250000X0.250000X0.475000X-0.250000X0.475000X-0.250000X-0.475000X0.250000X-0.475000X0*%
%ADD17RoundRect,0.250000X-0.475000X0.250000X-0.475000X-0.250000X0.475000X-0.250000X0.475000X0.250000X0*%
%ADD18RoundRect,0.250000X0.450000X-0.262500X0.450000X0.262500X-0.450000X0.262500X-0.450000X-0.262500X0*%
%ADD19RoundRect,0.250000X0.262500X0.450000X-0.262500X0.450000X-0.262500X-0.450000X0.262500X-0.450000X0*%
%ADD20RoundRect,0.250000X-0.262500X-0.450000X0.262500X-0.450000X0.262500X0.450000X-0.262500X0.450000X0*%
%ADD21RoundRect,0.243750X-0.243750X-0.456250X0.243750X-0.456250X0.243750X0.456250X-0.243750X0.456250X0*%
%ADD22R,2.000000X0.500000*%
%ADD23R,1.700000X2.000000*%
%ADD24RoundRect,0.250000X-0.250000X-0.475000X0.250000X-0.475000X0.250000X0.475000X-0.250000X0.475000X0*%
%ADD25RoundRect,0.250000X0.475000X-0.250000X0.475000X0.250000X-0.475000X0.250000X-0.475000X-0.250000X0*%
%ADD26RoundRect,0.150000X-0.150000X0.587500X-0.150000X-0.587500X0.150000X-0.587500X0.150000X0.587500X0*%
%ADD27RoundRect,0.150000X-0.825000X-0.150000X0.825000X-0.150000X0.825000X0.150000X-0.825000X0.150000X0*%
%ADD28R,1.550000X1.300000*%
%ADD29R,1.500000X4.000000*%
%ADD30R,2.300000X2.500000*%
%ADD31R,2.500000X1.800000*%
%ADD32R,4.000000X1.500000*%
%ADD33R,2.500000X2.300000*%
%ADD34RoundRect,0.250000X-1.425000X0.362500X-1.425000X-0.362500X1.425000X-0.362500X1.425000X0.362500X0*%
%ADD35RoundRect,0.150000X0.512500X0.150000X-0.512500X0.150000X-0.512500X-0.150000X0.512500X-0.150000X0*%
G04 APERTURE END LIST*
D10*
X100076000Y-133985000D02*
X203454000Y-133985000D01*
X100076000Y-57785000D02*
X98552000Y-57785000D01*
X203454000Y-133985000D02*
X203454000Y-57785000D01*
X100076000Y-133985000D02*
X98552000Y-133985000D01*
X98552000Y-57785000D02*
X98552000Y-133985000D01*
X203454000Y-57785000D02*
X100076000Y-57785000D01*
D11*
X148082000Y-114173000D03*
X148082000Y-116713000D03*
X148082000Y-119253000D03*
X148082000Y-121793000D03*
X155702000Y-121793000D03*
X155702000Y-119253000D03*
X155702000Y-116713000D03*
X155702000Y-114173000D03*
X180467000Y-114173000D03*
X180467000Y-116713000D03*
X180467000Y-119253000D03*
X180467000Y-121793000D03*
X188087000Y-121793000D03*
X188087000Y-119253000D03*
X188087000Y-116713000D03*
X188087000Y-114173000D03*
X169672000Y-114173000D03*
X169672000Y-116713000D03*
X169672000Y-119253000D03*
X169672000Y-121793000D03*
X177292000Y-121793000D03*
X177292000Y-119253000D03*
X177292000Y-116713000D03*
X177292000Y-114173000D03*
X158877000Y-114173000D03*
X158877000Y-116713000D03*
X158877000Y-119253000D03*
X158877000Y-121793000D03*
X166497000Y-121793000D03*
X166497000Y-119253000D03*
X166497000Y-116713000D03*
X166497000Y-114173000D03*
D12*
X141876000Y-59330000D03*
X141876000Y-60600000D03*
X141876000Y-61870000D03*
X141876000Y-63140000D03*
X141876000Y-64410000D03*
X141876000Y-65680000D03*
X141876000Y-66950000D03*
X141876000Y-68220000D03*
X141876000Y-69490000D03*
X141876000Y-70760000D03*
X141876000Y-72030000D03*
X141876000Y-73300000D03*
X141876000Y-74570000D03*
X141876000Y-75840000D03*
X141876000Y-77140000D03*
X141876000Y-78410000D03*
X141876000Y-79680000D03*
X141876000Y-80950000D03*
X141876000Y-82220000D03*
X159876000Y-82220000D03*
X159876000Y-80950000D03*
X159876000Y-79680000D03*
X159876000Y-78410000D03*
X159876000Y-77140000D03*
X159906000Y-75840000D03*
X159906000Y-74570000D03*
X159906000Y-73300000D03*
X159906000Y-72030000D03*
X159906000Y-70760000D03*
X159906000Y-69490000D03*
X159906000Y-68220000D03*
X159906000Y-66950000D03*
X159906000Y-65680000D03*
X159906000Y-64410000D03*
X159906000Y-63140000D03*
X159906000Y-61870000D03*
X159906000Y-60600000D03*
X159906000Y-59330000D03*
D13*
X150476000Y-66250000D03*
D14*
X171577000Y-64389000D03*
X172847000Y-64389000D03*
X171577000Y-65659000D03*
X172847000Y-65659000D03*
X171577000Y-66929000D03*
X172847000Y-66929000D03*
D15*
X138176000Y-61063500D03*
X138176000Y-62888500D03*
D16*
X136205000Y-62992000D03*
X134305000Y-62992000D03*
X136078000Y-60960000D03*
X134178000Y-60960000D03*
D17*
X138176000Y-64582000D03*
X138176000Y-66482000D03*
D15*
X101945500Y-80621500D03*
X101945500Y-82446500D03*
D18*
X122832500Y-80033500D03*
X122832500Y-78208500D03*
D15*
X101945500Y-76557500D03*
X101945500Y-78382500D03*
D19*
X198603000Y-95848710D03*
X196778000Y-95848710D03*
D20*
X186031500Y-109093000D03*
X187856500Y-109093000D03*
X175109500Y-109093000D03*
X176934500Y-109093000D03*
X153265500Y-109093000D03*
X155090500Y-109093000D03*
X164187500Y-109093000D03*
X166012500Y-109093000D03*
D19*
X187856500Y-106553000D03*
X186031500Y-106553000D03*
X176934500Y-106553000D03*
X175109500Y-106553000D03*
X155090500Y-106553000D03*
X153265500Y-106553000D03*
X166012500Y-106553000D03*
X164187500Y-106553000D03*
D18*
X124864500Y-80033500D03*
X124864500Y-78208500D03*
D19*
X198603000Y-99676852D03*
X196778000Y-99676852D03*
X198603000Y-103505000D03*
X196778000Y-103505000D03*
X198603000Y-92020568D03*
X196778000Y-92020568D03*
X198603000Y-88192426D03*
X196778000Y-88192426D03*
X198603000Y-76708000D03*
X196778000Y-76708000D03*
X198603000Y-80536142D03*
X196778000Y-80536142D03*
X198603000Y-84364284D03*
X196778000Y-84364284D03*
X126539000Y-82169000D03*
X124714000Y-82169000D03*
D21*
X191673000Y-76708000D03*
X193548000Y-76708000D03*
X191673000Y-95848710D03*
X193548000Y-95848710D03*
X191673000Y-99676852D03*
X193548000Y-99676852D03*
X191673000Y-103505000D03*
X193548000Y-103505000D03*
X191673000Y-92020568D03*
X193548000Y-92020568D03*
X191673000Y-88192426D03*
X193548000Y-88192426D03*
X191673000Y-84364284D03*
X193548000Y-84364284D03*
X191673000Y-80536142D03*
X193548000Y-80536142D03*
D22*
X107407000Y-87681000D03*
X107407000Y-88481000D03*
X107407000Y-89281000D03*
X107407000Y-90081000D03*
X107407000Y-90881000D03*
D23*
X107307000Y-93731000D03*
X107307000Y-84831000D03*
X101857000Y-84831000D03*
X101857000Y-93731000D03*
D16*
X118194500Y-64389000D03*
X116294500Y-64389000D03*
X118194500Y-66421000D03*
X116294500Y-66421000D03*
D17*
X118110000Y-73472000D03*
X118110000Y-75372000D03*
X109855000Y-80838000D03*
X109855000Y-82738000D03*
D24*
X120866500Y-82169000D03*
X122766500Y-82169000D03*
D25*
X120800500Y-80071000D03*
X120800500Y-78171000D03*
X109311500Y-78420000D03*
X109311500Y-76520000D03*
X107025500Y-78354000D03*
X107025500Y-76454000D03*
X104739500Y-78420000D03*
X104739500Y-76520000D03*
D20*
X116054500Y-111379000D03*
X117879500Y-111379000D03*
X139295500Y-117221000D03*
X141120500Y-117221000D03*
D26*
X121369090Y-113743500D03*
X119469090Y-113743500D03*
X120419090Y-115618500D03*
D18*
X121158000Y-91463500D03*
X121158000Y-89638500D03*
D27*
X113245500Y-77089000D03*
X113245500Y-78359000D03*
X113245500Y-79629000D03*
X113245500Y-80899000D03*
X118195500Y-80899000D03*
X118195500Y-79629000D03*
X118195500Y-78359000D03*
X118195500Y-77089000D03*
D19*
X149756500Y-87757000D03*
X147931500Y-87757000D03*
D26*
X114349454Y-113743500D03*
X112449454Y-113743500D03*
X113399454Y-115618500D03*
X130998000Y-119331500D03*
X129098000Y-119331500D03*
X130048000Y-121206500D03*
D25*
X123698000Y-90485000D03*
X123698000Y-88585000D03*
D26*
X158430000Y-90375500D03*
X156530000Y-90375500D03*
X157480000Y-92250500D03*
D18*
X121158000Y-95019500D03*
X121158000Y-93194500D03*
D26*
X167574000Y-90375500D03*
X165674000Y-90375500D03*
X166624000Y-92250500D03*
X110678000Y-119410000D03*
X108778000Y-119410000D03*
X109728000Y-121285000D03*
X125918000Y-119410000D03*
X124018000Y-119410000D03*
X124968000Y-121285000D03*
D16*
X129982000Y-94107000D03*
X128082000Y-94107000D03*
D26*
X120838000Y-119410000D03*
X118938000Y-119410000D03*
X119888000Y-121285000D03*
X107329818Y-113743500D03*
X105429818Y-113743500D03*
X106379818Y-115618500D03*
X163002000Y-90375500D03*
X161102000Y-90375500D03*
X162052000Y-92250500D03*
X140904000Y-119585500D03*
X139004000Y-119585500D03*
X139954000Y-121460500D03*
D28*
X136055000Y-70195000D03*
X128105000Y-70195000D03*
X136055000Y-65695000D03*
X128105000Y-65695000D03*
D24*
X122621000Y-97155000D03*
X124521000Y-97155000D03*
D26*
X124902000Y-113743500D03*
X123002000Y-113743500D03*
X123952000Y-115618500D03*
D19*
X158392500Y-87757000D03*
X156567500Y-87757000D03*
X154074500Y-87757000D03*
X152249500Y-87757000D03*
D29*
X121390000Y-101219000D03*
X124990000Y-101219000D03*
D20*
X101957500Y-111379000D03*
X103782500Y-111379000D03*
X130151500Y-111379000D03*
X131976500Y-111379000D03*
D30*
X129032000Y-97291000D03*
X129032000Y-101591000D03*
D19*
X167536500Y-87757000D03*
X165711500Y-87757000D03*
D31*
X124682000Y-106299000D03*
X120682000Y-106299000D03*
D26*
X145095000Y-119468500D03*
X143195000Y-119468500D03*
X144145000Y-121343500D03*
X117917000Y-113743500D03*
X116017000Y-113743500D03*
X116967000Y-115618500D03*
D20*
X109069500Y-111379000D03*
X110894500Y-111379000D03*
D26*
X135570000Y-113743500D03*
X133670000Y-113743500D03*
X134620000Y-115618500D03*
X136078000Y-119410000D03*
X134178000Y-119410000D03*
X135128000Y-121285000D03*
X154112000Y-90375500D03*
X152212000Y-90375500D03*
X153162000Y-92250500D03*
X115758000Y-119410000D03*
X113858000Y-119410000D03*
X114808000Y-121285000D03*
D32*
X123571000Y-73809000D03*
X123571000Y-70209000D03*
D26*
X128388726Y-113743500D03*
X126488726Y-113743500D03*
X127438726Y-115618500D03*
D33*
X117870500Y-69723000D03*
X113570500Y-69723000D03*
D26*
X110932000Y-113743500D03*
X109032000Y-113743500D03*
X109982000Y-115618500D03*
D34*
X133604000Y-94040100D03*
X133604000Y-99965100D03*
D18*
X125730000Y-90447500D03*
X125730000Y-88622500D03*
D26*
X132014000Y-113743500D03*
X130114000Y-113743500D03*
X131064000Y-115618500D03*
D19*
X162964500Y-87757000D03*
X161139500Y-87757000D03*
D26*
X145476000Y-90375500D03*
X143576000Y-90375500D03*
X144526000Y-92250500D03*
D20*
X123039500Y-111379000D03*
X124864500Y-111379000D03*
D19*
X145438500Y-87757000D03*
X143613500Y-87757000D03*
D35*
X125851500Y-95057000D03*
X125851500Y-94107000D03*
X125851500Y-93157000D03*
X123576500Y-93157000D03*
X123576500Y-95057000D03*
D26*
X149860000Y-90297000D03*
X147960000Y-90297000D03*
X148910000Y-92172000D03*
X103820000Y-113743500D03*
X101920000Y-113743500D03*
X102870000Y-115618500D03*
M02*
