G04 #@! TF.GenerationSoftware,KiCad,Pcbnew,(6.0.4-0)*
G04 #@! TF.CreationDate,2022-05-03T20:04:39-04:00*
G04 #@! TF.ProjectId,green_house_controller,67726565-6e5f-4686-9f75-73655f636f6e,rev?*
G04 #@! TF.SameCoordinates,Original*
G04 #@! TF.FileFunction,Soldermask,Top*
G04 #@! TF.FilePolarity,Negative*
%FSLAX46Y46*%
G04 Gerber Fmt 4.6, Leading zero omitted, Abs format (unit mm)*
G04 Created by KiCad (PCBNEW (6.0.4-0)) date 2022-05-03 20:04:39*
%MOMM*%
%LPD*%
G01*
G04 APERTURE LIST*
G04 Aperture macros list*
%AMRoundRect*
0 Rectangle with rounded corners*
0 $1 Rounding radius*
0 $2 $3 $4 $5 $6 $7 $8 $9 X,Y pos of 4 corners*
0 Add a 4 corners polygon primitive as box body*
4,1,4,$2,$3,$4,$5,$6,$7,$8,$9,$2,$3,0*
0 Add four circle primitives for the rounded corners*
1,1,$1+$1,$2,$3*
1,1,$1+$1,$4,$5*
1,1,$1+$1,$6,$7*
1,1,$1+$1,$8,$9*
0 Add four rect primitives between the rounded corners*
20,1,$1+$1,$2,$3,$4,$5,0*
20,1,$1+$1,$4,$5,$6,$7,0*
20,1,$1+$1,$6,$7,$8,$9,0*
20,1,$1+$1,$8,$9,$2,$3,0*%
G04 Aperture macros list end*
G04 #@! TA.AperFunction,Profile*
%ADD10C,0.150000*%
G04 #@! TD*
%ADD11RoundRect,0.051000X-0.800000X-0.800000X0.800000X-0.800000X0.800000X0.800000X-0.800000X0.800000X0*%
%ADD12O,3.102000X1.002000*%
%ADD13C,0.902000*%
%ADD14RoundRect,0.051000X-2.500000X-2.500000X2.500000X-2.500000X2.500000X2.500000X-2.500000X2.500000X0*%
%ADD15C,2.476900*%
%ADD16C,1.092600*%
%ADD17C,0.889400*%
%ADD18RoundRect,0.301000X-0.450000X0.262500X-0.450000X-0.262500X0.450000X-0.262500X0.450000X0.262500X0*%
%ADD19RoundRect,0.301000X0.250000X0.475000X-0.250000X0.475000X-0.250000X-0.475000X0.250000X-0.475000X0*%
%ADD20RoundRect,0.301000X-0.475000X0.250000X-0.475000X-0.250000X0.475000X-0.250000X0.475000X0.250000X0*%
%ADD21RoundRect,0.301000X0.450000X-0.262500X0.450000X0.262500X-0.450000X0.262500X-0.450000X-0.262500X0*%
%ADD22RoundRect,0.301000X0.262500X0.450000X-0.262500X0.450000X-0.262500X-0.450000X0.262500X-0.450000X0*%
%ADD23RoundRect,0.301000X-0.262500X-0.450000X0.262500X-0.450000X0.262500X0.450000X-0.262500X0.450000X0*%
%ADD24RoundRect,0.294750X-0.243750X-0.456250X0.243750X-0.456250X0.243750X0.456250X-0.243750X0.456250X0*%
%ADD25C,1.102000*%
%ADD26RoundRect,0.051000X-1.000000X0.250000X-1.000000X-0.250000X1.000000X-0.250000X1.000000X0.250000X0*%
%ADD27RoundRect,0.051000X-0.850000X1.000000X-0.850000X-1.000000X0.850000X-1.000000X0.850000X1.000000X0*%
%ADD28RoundRect,0.301000X-0.250000X-0.475000X0.250000X-0.475000X0.250000X0.475000X-0.250000X0.475000X0*%
%ADD29RoundRect,0.301000X0.475000X-0.250000X0.475000X0.250000X-0.475000X0.250000X-0.475000X-0.250000X0*%
%ADD30RoundRect,0.201000X-0.150000X0.587500X-0.150000X-0.587500X0.150000X-0.587500X0.150000X0.587500X0*%
%ADD31RoundRect,0.201000X-0.825000X-0.150000X0.825000X-0.150000X0.825000X0.150000X-0.825000X0.150000X0*%
%ADD32RoundRect,0.051000X-1.300000X1.300000X-1.300000X-1.300000X1.300000X-1.300000X1.300000X1.300000X0*%
%ADD33C,2.702000*%
%ADD34C,3.302000*%
%ADD35RoundRect,0.051000X0.775000X0.650000X-0.775000X0.650000X-0.775000X-0.650000X0.775000X-0.650000X0*%
%ADD36RoundRect,0.051000X-0.750000X-2.000000X0.750000X-2.000000X0.750000X2.000000X-0.750000X2.000000X0*%
%ADD37RoundRect,0.051000X-1.150000X1.250000X-1.150000X-1.250000X1.150000X-1.250000X1.150000X1.250000X0*%
%ADD38RoundRect,0.051000X1.200000X-1.200000X1.200000X1.200000X-1.200000X1.200000X-1.200000X-1.200000X0*%
%ADD39C,2.502000*%
%ADD40RoundRect,0.301000X-0.650000X-1.550000X0.650000X-1.550000X0.650000X1.550000X-0.650000X1.550000X0*%
%ADD41O,1.902000X3.702000*%
%ADD42RoundRect,0.051000X1.250000X0.900000X-1.250000X0.900000X-1.250000X-0.900000X1.250000X-0.900000X0*%
%ADD43RoundRect,0.051000X2.000000X-0.750000X2.000000X0.750000X-2.000000X0.750000X-2.000000X-0.750000X0*%
%ADD44RoundRect,0.051000X1.250000X1.150000X-1.250000X1.150000X-1.250000X-1.150000X1.250000X-1.150000X0*%
%ADD45RoundRect,0.301000X-1.425000X0.362500X-1.425000X-0.362500X1.425000X-0.362500X1.425000X0.362500X0*%
%ADD46RoundRect,0.201000X0.512500X0.150000X-0.512500X0.150000X-0.512500X-0.150000X0.512500X-0.150000X0*%
%ADD47RoundRect,0.051000X0.750000X-0.750000X0.750000X0.750000X-0.750000X0.750000X-0.750000X-0.750000X0*%
%ADD48C,1.602000*%
G04 APERTURE END LIST*
D10*
X100076000Y-133985000D02*
X203454000Y-133985000D01*
X100076000Y-57785000D02*
X98552000Y-57785000D01*
X203454000Y-133985000D02*
X203454000Y-57785000D01*
X100076000Y-133985000D02*
X98552000Y-133985000D01*
X98552000Y-57785000D02*
X98552000Y-133985000D01*
X203454000Y-57785000D02*
X100076000Y-57785000D01*
X100076000Y-133985000D02*
X203454000Y-133985000D01*
X100076000Y-57785000D02*
X98552000Y-57785000D01*
X203454000Y-133985000D02*
X203454000Y-57785000D01*
X100076000Y-133985000D02*
X98552000Y-133985000D01*
X98552000Y-57785000D02*
X98552000Y-133985000D01*
X203454000Y-57785000D02*
X100076000Y-57785000D01*
D11*
X148082000Y-114173000D03*
X148082000Y-116713000D03*
X148082000Y-119253000D03*
X148082000Y-121793000D03*
X155702000Y-121793000D03*
X155702000Y-119253000D03*
X155702000Y-116713000D03*
X155702000Y-114173000D03*
X180467000Y-114173000D03*
X180467000Y-116713000D03*
X180467000Y-119253000D03*
X180467000Y-121793000D03*
X188087000Y-121793000D03*
X188087000Y-119253000D03*
X188087000Y-116713000D03*
X188087000Y-114173000D03*
X169672000Y-114173000D03*
X169672000Y-116713000D03*
X169672000Y-119253000D03*
X169672000Y-121793000D03*
X177292000Y-121793000D03*
X177292000Y-119253000D03*
X177292000Y-116713000D03*
X177292000Y-114173000D03*
X158877000Y-114173000D03*
X158877000Y-116713000D03*
X158877000Y-119253000D03*
X158877000Y-121793000D03*
X166497000Y-121793000D03*
X166497000Y-119253000D03*
X166497000Y-116713000D03*
X166497000Y-114173000D03*
D12*
X141876000Y-59330000D03*
X141876000Y-60600000D03*
X141876000Y-61870000D03*
X141876000Y-63140000D03*
X141876000Y-64410000D03*
X141876000Y-65680000D03*
X141876000Y-66950000D03*
X141876000Y-68220000D03*
X141876000Y-69490000D03*
X141876000Y-70760000D03*
X141876000Y-72030000D03*
X141876000Y-73300000D03*
X141876000Y-74570000D03*
X141876000Y-75840000D03*
X141876000Y-77140000D03*
X141876000Y-78410000D03*
X141876000Y-79680000D03*
X141876000Y-80950000D03*
X141876000Y-82220000D03*
X159876000Y-82220000D03*
X159876000Y-80950000D03*
X159876000Y-79680000D03*
X159876000Y-78410000D03*
X159876000Y-77140000D03*
X159906000Y-75840000D03*
X159906000Y-74570000D03*
X159906000Y-73300000D03*
X159906000Y-72030000D03*
X159906000Y-70760000D03*
X159906000Y-69490000D03*
X159906000Y-68220000D03*
X159906000Y-66950000D03*
X159906000Y-65680000D03*
X159906000Y-64410000D03*
X159906000Y-63140000D03*
X159906000Y-61870000D03*
X159906000Y-60600000D03*
X159906000Y-59330000D03*
D13*
X152476000Y-67240000D03*
X152476000Y-64240000D03*
X150476000Y-65240000D03*
X151476000Y-68240000D03*
X151476000Y-64240000D03*
X148476000Y-68240000D03*
X151476000Y-65240000D03*
X149476000Y-67240000D03*
D14*
X150476000Y-66250000D03*
D13*
X148476000Y-67240000D03*
X149476000Y-66240000D03*
X149476000Y-64240000D03*
X148476000Y-65240000D03*
X150476000Y-68240000D03*
X149476000Y-68240000D03*
X148476000Y-66240000D03*
X152476000Y-68240000D03*
X150476000Y-64240000D03*
X152476000Y-65240000D03*
X150476000Y-66240000D03*
X149476000Y-65240000D03*
X152476000Y-66240000D03*
X151476000Y-66240000D03*
X148476000Y-64240000D03*
X150476000Y-67240000D03*
X151476000Y-67240000D03*
D15*
X174752000Y-66294000D03*
D16*
X171196000Y-68199000D03*
D15*
X169672000Y-63119000D03*
X169672000Y-66294000D03*
X174752000Y-63119000D03*
D16*
X173228000Y-68199000D03*
X172212000Y-63119000D03*
D17*
X171577000Y-64389000D03*
X172847000Y-64389000D03*
X171577000Y-65659000D03*
X172847000Y-65659000D03*
X171577000Y-66929000D03*
X172847000Y-66929000D03*
D18*
X138176000Y-61063500D03*
X138176000Y-62888500D03*
D19*
X136205000Y-62992000D03*
X134305000Y-62992000D03*
X136078000Y-60960000D03*
X134178000Y-60960000D03*
D20*
X138176000Y-64582000D03*
X138176000Y-66482000D03*
D18*
X101945500Y-80621500D03*
X101945500Y-82446500D03*
D21*
X122832500Y-80033500D03*
X122832500Y-78208500D03*
D18*
X101945500Y-76557500D03*
X101945500Y-78382500D03*
D22*
X198603000Y-95848710D03*
X196778000Y-95848710D03*
D23*
X186031500Y-109093000D03*
X187856500Y-109093000D03*
X175109500Y-109093000D03*
X176934500Y-109093000D03*
X153265500Y-109093000D03*
X155090500Y-109093000D03*
X164187500Y-109093000D03*
X166012500Y-109093000D03*
D22*
X187856500Y-106553000D03*
X186031500Y-106553000D03*
X176934500Y-106553000D03*
X175109500Y-106553000D03*
X155090500Y-106553000D03*
X153265500Y-106553000D03*
X166012500Y-106553000D03*
X164187500Y-106553000D03*
D21*
X124864500Y-80033500D03*
X124864500Y-78208500D03*
D22*
X198603000Y-99676852D03*
X196778000Y-99676852D03*
X198603000Y-103505000D03*
X196778000Y-103505000D03*
X198603000Y-92020568D03*
X196778000Y-92020568D03*
X198603000Y-88192426D03*
X196778000Y-88192426D03*
X198603000Y-76708000D03*
X196778000Y-76708000D03*
X198603000Y-80536142D03*
X196778000Y-80536142D03*
X198603000Y-84364284D03*
X196778000Y-84364284D03*
X126539000Y-82169000D03*
X124714000Y-82169000D03*
D24*
X191673000Y-76708000D03*
X193548000Y-76708000D03*
X191673000Y-95848710D03*
X193548000Y-95848710D03*
X191673000Y-99676852D03*
X193548000Y-99676852D03*
X191673000Y-103505000D03*
X193548000Y-103505000D03*
X191673000Y-92020568D03*
X193548000Y-92020568D03*
X191673000Y-88192426D03*
X193548000Y-88192426D03*
X191673000Y-84364284D03*
X193548000Y-84364284D03*
X191673000Y-80536142D03*
X193548000Y-80536142D03*
D25*
X104707000Y-91481000D03*
X104707000Y-87081000D03*
D26*
X107407000Y-87681000D03*
X107407000Y-88481000D03*
X107407000Y-89281000D03*
X107407000Y-90081000D03*
X107407000Y-90881000D03*
D27*
X107307000Y-93731000D03*
X107307000Y-84831000D03*
X101857000Y-84831000D03*
X101857000Y-93731000D03*
D19*
X118194500Y-64389000D03*
X116294500Y-64389000D03*
X118194500Y-66421000D03*
X116294500Y-66421000D03*
D20*
X118110000Y-73472000D03*
X118110000Y-75372000D03*
X109855000Y-80838000D03*
X109855000Y-82738000D03*
D28*
X120866500Y-82169000D03*
X122766500Y-82169000D03*
D29*
X120800500Y-80071000D03*
X120800500Y-78171000D03*
X109311500Y-78420000D03*
X109311500Y-76520000D03*
X107025500Y-78354000D03*
X107025500Y-76454000D03*
X104739500Y-78420000D03*
X104739500Y-76520000D03*
D23*
X116054500Y-111379000D03*
X117879500Y-111379000D03*
X139295500Y-117221000D03*
X141120500Y-117221000D03*
D30*
X121369090Y-113743500D03*
X119469090Y-113743500D03*
X120419090Y-115618500D03*
D21*
X121158000Y-91463500D03*
X121158000Y-89638500D03*
D31*
X113245500Y-77089000D03*
X113245500Y-78359000D03*
X113245500Y-79629000D03*
X113245500Y-80899000D03*
X118195500Y-80899000D03*
X118195500Y-79629000D03*
X118195500Y-78359000D03*
X118195500Y-77089000D03*
D22*
X149756500Y-87757000D03*
X147931500Y-87757000D03*
D30*
X114349454Y-113743500D03*
X112449454Y-113743500D03*
X113399454Y-115618500D03*
X130998000Y-119331500D03*
X129098000Y-119331500D03*
X130048000Y-121206500D03*
D32*
X112626000Y-100469000D03*
D33*
X106626000Y-100469000D03*
X109626000Y-105169000D03*
D29*
X123698000Y-90485000D03*
X123698000Y-88585000D03*
D30*
X158430000Y-90375500D03*
X156530000Y-90375500D03*
X157480000Y-92250500D03*
D21*
X121158000Y-95019500D03*
X121158000Y-93194500D03*
D30*
X167574000Y-90375500D03*
X165674000Y-90375500D03*
X166624000Y-92250500D03*
X110678000Y-119410000D03*
X108778000Y-119410000D03*
X109728000Y-121285000D03*
X125918000Y-119410000D03*
X124018000Y-119410000D03*
X124968000Y-121285000D03*
D19*
X129982000Y-94107000D03*
X128082000Y-94107000D03*
D30*
X120838000Y-119410000D03*
X118938000Y-119410000D03*
X119888000Y-121285000D03*
X107329818Y-113743500D03*
X105429818Y-113743500D03*
X106379818Y-115618500D03*
X163002000Y-90375500D03*
X161102000Y-90375500D03*
X162052000Y-92250500D03*
X140904000Y-119585500D03*
X139004000Y-119585500D03*
X139954000Y-121460500D03*
D34*
X199390000Y-130048000D03*
D35*
X136055000Y-70195000D03*
X128105000Y-70195000D03*
X136055000Y-65695000D03*
X128105000Y-65695000D03*
D28*
X122621000Y-97155000D03*
X124521000Y-97155000D03*
D30*
X124902000Y-113743500D03*
X123002000Y-113743500D03*
X123952000Y-115618500D03*
D22*
X158392500Y-87757000D03*
X156567500Y-87757000D03*
X154074500Y-87757000D03*
X152249500Y-87757000D03*
D36*
X121390000Y-101219000D03*
X124990000Y-101219000D03*
D23*
X101957500Y-111379000D03*
X103782500Y-111379000D03*
X130151500Y-111379000D03*
X131976500Y-111379000D03*
D37*
X129032000Y-97291000D03*
X129032000Y-101591000D03*
D38*
X142748000Y-109557755D03*
D39*
X142748000Y-102057755D03*
D40*
X181119500Y-63099500D03*
D41*
X186199500Y-63099500D03*
X191279500Y-63099500D03*
D22*
X167536500Y-87757000D03*
X165711500Y-87757000D03*
D42*
X124682000Y-106299000D03*
X120682000Y-106299000D03*
D40*
X147083500Y-130546500D03*
D41*
X152163500Y-130546500D03*
X157243500Y-130546500D03*
X162323500Y-130546500D03*
X167403500Y-130546500D03*
X172483500Y-130546500D03*
X177563500Y-130546500D03*
X182643500Y-130546500D03*
X187723500Y-130546500D03*
X192803500Y-130546500D03*
D30*
X145095000Y-119468500D03*
X143195000Y-119468500D03*
X144145000Y-121343500D03*
X117917000Y-113743500D03*
X116017000Y-113743500D03*
X116967000Y-115618500D03*
D23*
X109069500Y-111379000D03*
X110894500Y-111379000D03*
D34*
X199390000Y-61595000D03*
D30*
X135570000Y-113743500D03*
X133670000Y-113743500D03*
X134620000Y-115618500D03*
X136078000Y-119410000D03*
X134178000Y-119410000D03*
X135128000Y-121285000D03*
D34*
X102362000Y-130048000D03*
D30*
X154112000Y-90375500D03*
X152212000Y-90375500D03*
X153162000Y-92250500D03*
X115758000Y-119410000D03*
X113858000Y-119410000D03*
X114808000Y-121285000D03*
D34*
X102362000Y-61595000D03*
D43*
X123571000Y-73809000D03*
X123571000Y-70209000D03*
D30*
X128388726Y-113743500D03*
X126488726Y-113743500D03*
X127438726Y-115618500D03*
D44*
X117870500Y-69723000D03*
X113570500Y-69723000D03*
D40*
X109728000Y-130429000D03*
D41*
X114808000Y-130429000D03*
X119888000Y-130429000D03*
X124968000Y-130429000D03*
X130048000Y-130429000D03*
X135128000Y-130429000D03*
D30*
X110932000Y-113743500D03*
X109032000Y-113743500D03*
X109982000Y-115618500D03*
D45*
X133604000Y-94040100D03*
X133604000Y-99965100D03*
D21*
X125730000Y-90447500D03*
X125730000Y-88622500D03*
D30*
X132014000Y-113743500D03*
X130114000Y-113743500D03*
X131064000Y-115618500D03*
D22*
X162964500Y-87757000D03*
X161139500Y-87757000D03*
D30*
X145476000Y-90375500D03*
X143576000Y-90375500D03*
X144526000Y-92250500D03*
D23*
X123039500Y-111379000D03*
X124864500Y-111379000D03*
D22*
X145438500Y-87757000D03*
X143613500Y-87757000D03*
D46*
X125851500Y-95057000D03*
X125851500Y-94107000D03*
X125851500Y-93157000D03*
X123576500Y-93157000D03*
X123576500Y-95057000D03*
D30*
X149860000Y-90297000D03*
X147960000Y-90297000D03*
X148910000Y-92172000D03*
X103820000Y-113743500D03*
X101920000Y-113743500D03*
X102870000Y-115618500D03*
D47*
X184247500Y-71022500D03*
D48*
X186787500Y-71022500D03*
X189327500Y-71022500D03*
X191867500Y-71022500D03*
G36*
X126357527Y-94457000D02*
G01*
X126357527Y-94459000D01*
X126356056Y-94459983D01*
X126355817Y-94460015D01*
X126292204Y-94488154D01*
X126254070Y-94545965D01*
X126253244Y-94615220D01*
X126289983Y-94673914D01*
X126355825Y-94703985D01*
X126356068Y-94704017D01*
X126357655Y-94705235D01*
X126357394Y-94707218D01*
X126355807Y-94708000D01*
X125347205Y-94708000D01*
X125345473Y-94707000D01*
X125345473Y-94705000D01*
X125346944Y-94704017D01*
X125347183Y-94703985D01*
X125410796Y-94675846D01*
X125448930Y-94618035D01*
X125449756Y-94548780D01*
X125413017Y-94490086D01*
X125347175Y-94460015D01*
X125346932Y-94459983D01*
X125345345Y-94458765D01*
X125345606Y-94456782D01*
X125347193Y-94456000D01*
X126355795Y-94456000D01*
X126357527Y-94457000D01*
G37*
G36*
X126357527Y-93507000D02*
G01*
X126357527Y-93509000D01*
X126356056Y-93509983D01*
X126355817Y-93510015D01*
X126292204Y-93538154D01*
X126254070Y-93595965D01*
X126253244Y-93665220D01*
X126289983Y-93723914D01*
X126355825Y-93753985D01*
X126356068Y-93754017D01*
X126357655Y-93755235D01*
X126357394Y-93757218D01*
X126355807Y-93758000D01*
X125347205Y-93758000D01*
X125345473Y-93757000D01*
X125345473Y-93755000D01*
X125346944Y-93754017D01*
X125347183Y-93753985D01*
X125410796Y-93725846D01*
X125448930Y-93668035D01*
X125449756Y-93598780D01*
X125413017Y-93540086D01*
X125347175Y-93510015D01*
X125346932Y-93509983D01*
X125345345Y-93508765D01*
X125345606Y-93506782D01*
X125347193Y-93506000D01*
X126355795Y-93506000D01*
X126357527Y-93507000D01*
G37*
G36*
X108423668Y-90377665D02*
G01*
X108424058Y-90379627D01*
X108423699Y-90380267D01*
X108380511Y-90431946D01*
X108371880Y-90500661D01*
X108401844Y-90563291D01*
X108422682Y-90581348D01*
X108423336Y-90583238D01*
X108422026Y-90584749D01*
X108420982Y-90584821D01*
X108406801Y-90582000D01*
X106407199Y-90582000D01*
X106392226Y-90584978D01*
X106390332Y-90584335D01*
X106389942Y-90582373D01*
X106390301Y-90581733D01*
X106433489Y-90530054D01*
X106442120Y-90461339D01*
X106412156Y-90398709D01*
X106391318Y-90380652D01*
X106390664Y-90378762D01*
X106391974Y-90377251D01*
X106393018Y-90377179D01*
X106407199Y-90380000D01*
X108406801Y-90380000D01*
X108421774Y-90377022D01*
X108423668Y-90377665D01*
G37*
G36*
X108423668Y-89577665D02*
G01*
X108424058Y-89579627D01*
X108423699Y-89580267D01*
X108380511Y-89631946D01*
X108371880Y-89700661D01*
X108401844Y-89763291D01*
X108422682Y-89781348D01*
X108423336Y-89783238D01*
X108422026Y-89784749D01*
X108420982Y-89784821D01*
X108406801Y-89782000D01*
X106407199Y-89782000D01*
X106392226Y-89784978D01*
X106390332Y-89784335D01*
X106389942Y-89782373D01*
X106390301Y-89781733D01*
X106433489Y-89730054D01*
X106442120Y-89661339D01*
X106412156Y-89598709D01*
X106391318Y-89580652D01*
X106390664Y-89578762D01*
X106391974Y-89577251D01*
X106393018Y-89577179D01*
X106407199Y-89580000D01*
X108406801Y-89580000D01*
X108421774Y-89577022D01*
X108423668Y-89577665D01*
G37*
G36*
X108423668Y-88777665D02*
G01*
X108424058Y-88779627D01*
X108423699Y-88780267D01*
X108380511Y-88831946D01*
X108371880Y-88900661D01*
X108401844Y-88963291D01*
X108422682Y-88981348D01*
X108423336Y-88983238D01*
X108422026Y-88984749D01*
X108420982Y-88984821D01*
X108406801Y-88982000D01*
X106407199Y-88982000D01*
X106392226Y-88984978D01*
X106390332Y-88984335D01*
X106389942Y-88982373D01*
X106390301Y-88981733D01*
X106433489Y-88930054D01*
X106442120Y-88861339D01*
X106412156Y-88798709D01*
X106391318Y-88780652D01*
X106390664Y-88778762D01*
X106391974Y-88777251D01*
X106393018Y-88777179D01*
X106407199Y-88780000D01*
X108406801Y-88780000D01*
X108421774Y-88777022D01*
X108423668Y-88777665D01*
G37*
G36*
X108423668Y-87977665D02*
G01*
X108424058Y-87979627D01*
X108423699Y-87980267D01*
X108380511Y-88031946D01*
X108371880Y-88100661D01*
X108401844Y-88163291D01*
X108422682Y-88181348D01*
X108423336Y-88183238D01*
X108422026Y-88184749D01*
X108420982Y-88184821D01*
X108406801Y-88182000D01*
X106407199Y-88182000D01*
X106392226Y-88184978D01*
X106390332Y-88184335D01*
X106389942Y-88182373D01*
X106390301Y-88181733D01*
X106433489Y-88130054D01*
X106442120Y-88061339D01*
X106412156Y-87998709D01*
X106391318Y-87980652D01*
X106390664Y-87978762D01*
X106391974Y-87977251D01*
X106393018Y-87977179D01*
X106407199Y-87980000D01*
X108406801Y-87980000D01*
X108421774Y-87977022D01*
X108423668Y-87977665D01*
G37*
M02*
