G04 #@! TF.GenerationSoftware,KiCad,Pcbnew,(6.0.4-0)*
G04 #@! TF.CreationDate,2022-05-03T20:04:39-04:00*
G04 #@! TF.ProjectId,green_house_controller,67726565-6e5f-4686-9f75-73655f636f6e,rev?*
G04 #@! TF.SameCoordinates,Original*
G04 #@! TF.FileFunction,Copper,L2,Bot*
G04 #@! TF.FilePolarity,Positive*
%FSLAX46Y46*%
G04 Gerber Fmt 4.6, Leading zero omitted, Abs format (unit mm)*
G04 Created by KiCad (PCBNEW (6.0.4-0)) date 2022-05-03 20:04:39*
%MOMM*%
%LPD*%
G01*
G04 APERTURE LIST*
G04 Aperture macros list*
%AMRoundRect*
0 Rectangle with rounded corners*
0 $1 Rounding radius*
0 $2 $3 $4 $5 $6 $7 $8 $9 X,Y pos of 4 corners*
0 Add a 4 corners polygon primitive as box body*
4,1,4,$2,$3,$4,$5,$6,$7,$8,$9,$2,$3,0*
0 Add four circle primitives for the rounded corners*
1,1,$1+$1,$2,$3*
1,1,$1+$1,$4,$5*
1,1,$1+$1,$6,$7*
1,1,$1+$1,$8,$9*
0 Add four rect primitives between the rounded corners*
20,1,$1+$1,$2,$3,$4,$5,0*
20,1,$1+$1,$4,$5,$6,$7,0*
20,1,$1+$1,$6,$7,$8,$9,0*
20,1,$1+$1,$8,$9,$2,$3,0*%
G04 Aperture macros list end*
G04 #@! TA.AperFunction,Profile*
%ADD10C,0.150000*%
G04 #@! TD*
G04 #@! TA.AperFunction,ComponentPad*
%ADD11C,0.800000*%
G04 #@! TD*
G04 #@! TA.AperFunction,ComponentPad*
%ADD12R,2.600000X2.600000*%
G04 #@! TD*
G04 #@! TA.AperFunction,ComponentPad*
%ADD13C,2.600000*%
G04 #@! TD*
G04 #@! TA.AperFunction,ComponentPad*
%ADD14R,2.400000X2.400000*%
G04 #@! TD*
G04 #@! TA.AperFunction,ComponentPad*
%ADD15C,2.400000*%
G04 #@! TD*
G04 #@! TA.AperFunction,ComponentPad*
%ADD16RoundRect,0.250000X-0.650000X-1.550000X0.650000X-1.550000X0.650000X1.550000X-0.650000X1.550000X0*%
G04 #@! TD*
G04 #@! TA.AperFunction,ComponentPad*
%ADD17O,1.800000X3.600000*%
G04 #@! TD*
G04 #@! TA.AperFunction,ComponentPad*
%ADD18R,1.500000X1.500000*%
G04 #@! TD*
G04 #@! TA.AperFunction,ComponentPad*
%ADD19C,1.500000*%
G04 #@! TD*
G04 #@! TA.AperFunction,ViaPad*
%ADD20C,0.800000*%
G04 #@! TD*
G04 #@! TA.AperFunction,ViaPad*
%ADD21C,0.660400*%
G04 #@! TD*
G04 #@! TA.AperFunction,Conductor*
%ADD22C,0.250000*%
G04 #@! TD*
G04 APERTURE END LIST*
D10*
X100076000Y-133985000D02*
X203454000Y-133985000D01*
X100076000Y-57785000D02*
X98552000Y-57785000D01*
X203454000Y-133985000D02*
X203454000Y-57785000D01*
X100076000Y-133985000D02*
X98552000Y-133985000D01*
X98552000Y-57785000D02*
X98552000Y-133985000D01*
X203454000Y-57785000D02*
X100076000Y-57785000D01*
D11*
X152476000Y-67240000D03*
X152476000Y-64240000D03*
X150476000Y-65240000D03*
X151476000Y-68240000D03*
X151476000Y-64240000D03*
X148476000Y-68240000D03*
X151476000Y-65240000D03*
X149476000Y-67240000D03*
X148476000Y-67240000D03*
X149476000Y-66240000D03*
X149476000Y-64240000D03*
X148476000Y-65240000D03*
X150476000Y-68240000D03*
X149476000Y-68240000D03*
X148476000Y-66240000D03*
X152476000Y-68240000D03*
X150476000Y-64240000D03*
X152476000Y-65240000D03*
X150476000Y-66240000D03*
X149476000Y-65240000D03*
X152476000Y-66240000D03*
X151476000Y-66240000D03*
X148476000Y-64240000D03*
X150476000Y-67240000D03*
X151476000Y-67240000D03*
D12*
X112626000Y-100469000D03*
D13*
X106626000Y-100469000D03*
X109626000Y-105169000D03*
D14*
X142748000Y-109557755D03*
D15*
X142748000Y-102057755D03*
D16*
X181119500Y-63099500D03*
D17*
X186199500Y-63099500D03*
X191279500Y-63099500D03*
D16*
X147083500Y-130546500D03*
D17*
X152163500Y-130546500D03*
X157243500Y-130546500D03*
X162323500Y-130546500D03*
X167403500Y-130546500D03*
X172483500Y-130546500D03*
X177563500Y-130546500D03*
X182643500Y-130546500D03*
X187723500Y-130546500D03*
X192803500Y-130546500D03*
D16*
X109728000Y-130429000D03*
D17*
X114808000Y-130429000D03*
X119888000Y-130429000D03*
X124968000Y-130429000D03*
X130048000Y-130429000D03*
X135128000Y-130429000D03*
D18*
X184247500Y-71022500D03*
D19*
X186787500Y-71022500D03*
X189327500Y-71022500D03*
X191867500Y-71022500D03*
D20*
X182245000Y-119253000D03*
X171704000Y-116713000D03*
X181991000Y-116713000D03*
X160782000Y-116713000D03*
X185674000Y-114681000D03*
X185674000Y-113665000D03*
X174879000Y-114681000D03*
X174879000Y-113665000D03*
X164084000Y-114681000D03*
X164084000Y-113665000D03*
X153289000Y-114681000D03*
X153289000Y-113665000D03*
X171450000Y-119253000D03*
X149987000Y-119253000D03*
D21*
X124663200Y-95580200D03*
D20*
X152249500Y-86129500D03*
X136271000Y-117856000D03*
D21*
X127000000Y-94107000D03*
D20*
X153416000Y-105156000D03*
X139141000Y-77140000D03*
X165711500Y-86129500D03*
X161139500Y-86082500D03*
X109347000Y-69342000D03*
X133731000Y-112395000D03*
X112776000Y-83820000D03*
X105029000Y-69342000D03*
X131064000Y-117983000D03*
X115062000Y-78105000D03*
X160655000Y-119253000D03*
X113792000Y-83820000D03*
X119634000Y-112395000D03*
X116205000Y-76962000D03*
X164338000Y-105156000D03*
X110871000Y-118110000D03*
X186031500Y-105259500D03*
X143613500Y-86082500D03*
X114935000Y-82550000D03*
X132044000Y-70195000D03*
X175006000Y-105156000D03*
X176440971Y-64732029D03*
X116205000Y-83820000D03*
X109347000Y-71755000D03*
X126619000Y-112395000D03*
X117983000Y-106299000D03*
X116205000Y-78105000D03*
X115062000Y-80391000D03*
X132207000Y-60960000D03*
X105537000Y-112268000D03*
D21*
X124714000Y-93700600D03*
D20*
X115062000Y-79248000D03*
X116205000Y-79248000D03*
X112522000Y-112268000D03*
X105029000Y-71755000D03*
X115062000Y-76962000D03*
X114935000Y-83820000D03*
X143383000Y-118110000D03*
X112776000Y-82550000D03*
X115824000Y-118110000D03*
X107188000Y-69342000D03*
X162285000Y-59330000D03*
X116205000Y-80391000D03*
X156567500Y-86129500D03*
X125984000Y-118110000D03*
D21*
X124714000Y-91871800D03*
X123596400Y-91871800D03*
D20*
X144272000Y-59309000D03*
X120777000Y-118110000D03*
X113792000Y-82550000D03*
X147931500Y-86129500D03*
X104521000Y-85090000D03*
X104648000Y-93985000D03*
X116205000Y-82550000D03*
X107188000Y-71755000D03*
X172212000Y-75819000D03*
D21*
X172434042Y-66484917D03*
D20*
X107329818Y-111379000D03*
X146050000Y-93345000D03*
X144526000Y-61849000D03*
X167640000Y-60833000D03*
X177800000Y-62611000D03*
X163068000Y-61849000D03*
X135636000Y-111379000D03*
X135890000Y-107823000D03*
X163273283Y-98081500D03*
X163322000Y-92329000D03*
X155067000Y-75819000D03*
X155067000Y-104775000D03*
X165989000Y-104521000D03*
X156591000Y-72390000D03*
X156972000Y-70993000D03*
X176911000Y-104394000D03*
X187833000Y-104521000D03*
X157353000Y-69850000D03*
X181991000Y-109093000D03*
X171704000Y-109093000D03*
X153162000Y-94107000D03*
X121369090Y-111379000D03*
X118110000Y-71882000D03*
X113157000Y-73914000D03*
X111506000Y-78359000D03*
X110490000Y-78359000D03*
X109347000Y-87757000D03*
X111506000Y-87757000D03*
X110363000Y-87757000D03*
X108204000Y-78359000D03*
X114427000Y-111379000D03*
X148844000Y-93980000D03*
X164973000Y-98806000D03*
X164973000Y-92329000D03*
X128397000Y-111379000D03*
X157480000Y-94488000D03*
X157226000Y-99822000D03*
X157226000Y-111252000D03*
X160782000Y-109093000D03*
D22*
X155067000Y-75819000D02*
X155067000Y-104775000D01*
X181991000Y-109093000D02*
X181991000Y-116713000D01*
X171704000Y-109093000D02*
X171704000Y-116713000D01*
X160782000Y-109093000D02*
X160782000Y-116713000D01*
X172358179Y-66560780D02*
X172358179Y-75672821D01*
X172358179Y-75672821D02*
X172212000Y-75819000D01*
X172434042Y-66484917D02*
X172358179Y-66560780D01*
X126746000Y-108966000D02*
X130683000Y-105029000D01*
X114935000Y-108966000D02*
X126746000Y-108966000D01*
X145288000Y-105029000D02*
X146050000Y-104267000D01*
X146050000Y-104267000D02*
X146050000Y-93345000D01*
X112522000Y-111379000D02*
X114935000Y-108966000D01*
X107329818Y-111379000D02*
X112522000Y-111379000D01*
X130683000Y-105029000D02*
X145288000Y-105029000D01*
X167640000Y-60833000D02*
X145542000Y-60833000D01*
X145542000Y-60833000D02*
X144526000Y-61849000D01*
X168410614Y-61087000D02*
X167648614Y-61849000D01*
X176276000Y-61087000D02*
X168410614Y-61087000D01*
X167648614Y-61849000D02*
X163068000Y-61849000D01*
X177800000Y-62611000D02*
X176276000Y-61087000D01*
X163322000Y-98032783D02*
X163273283Y-98081500D01*
X163322000Y-92329000D02*
X163322000Y-97917000D01*
X135890000Y-111125000D02*
X135890000Y-107823000D01*
X135636000Y-111379000D02*
X135890000Y-111125000D01*
X163322000Y-97917000D02*
X163322000Y-98032783D01*
X156591000Y-72390000D02*
X166436011Y-82235011D01*
X166436011Y-104073989D02*
X165989000Y-104521000D01*
X166436011Y-82235011D02*
X166436011Y-104073989D01*
X163449000Y-77470000D02*
X175514000Y-77470000D01*
X156972000Y-70993000D02*
X163449000Y-77470000D01*
X176911000Y-78867000D02*
X176911000Y-104394000D01*
X175514000Y-77470000D02*
X176911000Y-78867000D01*
X185128511Y-76543511D02*
X187833000Y-79248000D01*
X187833000Y-79248000D02*
X187833000Y-104521000D01*
X164046511Y-76543511D02*
X185128511Y-76543511D01*
X157353000Y-69850000D02*
X164046511Y-76543511D01*
X186199500Y-67673500D02*
X186199500Y-63099500D01*
X186787500Y-71022500D02*
X186787500Y-68296500D01*
X186182000Y-67691000D02*
X186199500Y-67673500D01*
X186787500Y-68296500D02*
X186182000Y-67691000D01*
X126238000Y-111379000D02*
X131445000Y-106172000D01*
X153162000Y-102997000D02*
X153162000Y-94107000D01*
X149987000Y-106172000D02*
X153162000Y-102997000D01*
X121369090Y-111379000D02*
X126238000Y-111379000D01*
X131445000Y-106172000D02*
X149987000Y-106172000D01*
X114173000Y-72898000D02*
X113157000Y-73914000D01*
X118110000Y-71882000D02*
X117094000Y-72898000D01*
X117094000Y-72898000D02*
X114173000Y-72898000D01*
X126873000Y-109728000D02*
X131064000Y-105537000D01*
X131064000Y-105537000D02*
X147955000Y-105537000D01*
X116078000Y-109728000D02*
X126873000Y-109728000D01*
X148844000Y-104648000D02*
X148844000Y-93980000D01*
X114427000Y-111379000D02*
X116078000Y-109728000D01*
X147955000Y-105537000D02*
X148844000Y-104648000D01*
X164973000Y-98679000D02*
X164973000Y-98806000D01*
X164973000Y-92329000D02*
X164973000Y-98679000D01*
X157226000Y-111379000D02*
X157226000Y-111252000D01*
X133985000Y-111379000D02*
X134747000Y-112141000D01*
X134747000Y-112141000D02*
X156464000Y-112141000D01*
X157226000Y-94742000D02*
X157480000Y-94488000D01*
X156464000Y-112141000D02*
X157226000Y-111379000D01*
X128397000Y-111379000D02*
X133985000Y-111379000D01*
X157226000Y-99822000D02*
X157226000Y-94742000D01*
G04 #@! TA.AperFunction,Conductor*
G36*
X202408819Y-58312758D02*
G01*
X202490898Y-58367602D01*
X202545742Y-58449681D01*
X202565000Y-58546500D01*
X202565000Y-133223500D01*
X202545742Y-133320319D01*
X202490898Y-133402398D01*
X202408819Y-133457242D01*
X202312000Y-133476500D01*
X194847972Y-133476500D01*
X194751153Y-133457242D01*
X194669074Y-133402398D01*
X194614230Y-133320319D01*
X194594972Y-133223500D01*
X194614230Y-133126681D01*
X194648502Y-133067870D01*
X194713370Y-132984734D01*
X194722165Y-132964570D01*
X194774381Y-132844846D01*
X194774383Y-132844841D01*
X194777554Y-132837570D01*
X194797556Y-132769449D01*
X194803378Y-132748286D01*
X194808312Y-132709225D01*
X194822503Y-132596893D01*
X194822503Y-132596892D01*
X194823500Y-132589000D01*
X194823500Y-130180703D01*
X197280743Y-130180703D01*
X197318268Y-130465734D01*
X197320539Y-130474036D01*
X197320540Y-130474040D01*
X197343819Y-130559131D01*
X197394129Y-130743036D01*
X197506923Y-131007476D01*
X197511347Y-131014868D01*
X197511348Y-131014870D01*
X197650140Y-131246775D01*
X197650144Y-131246781D01*
X197654561Y-131254161D01*
X197659940Y-131260875D01*
X197659942Y-131260878D01*
X197762597Y-131389012D01*
X197834313Y-131478528D01*
X197840553Y-131484450D01*
X197840559Y-131484456D01*
X197931969Y-131571200D01*
X198042851Y-131676423D01*
X198049847Y-131681450D01*
X198049848Y-131681451D01*
X198085842Y-131707315D01*
X198276317Y-131844186D01*
X198283919Y-131848211D01*
X198283927Y-131848216D01*
X198440746Y-131931247D01*
X198530392Y-131978712D01*
X198538473Y-131981669D01*
X198538477Y-131981671D01*
X198633598Y-132016480D01*
X198800373Y-132077511D01*
X198808785Y-132079345D01*
X198808788Y-132079346D01*
X199072846Y-132136920D01*
X199072852Y-132136921D01*
X199081264Y-132138755D01*
X199248444Y-132151912D01*
X199301782Y-132156110D01*
X199301785Y-132156110D01*
X199306739Y-132156500D01*
X199462271Y-132156500D01*
X199466551Y-132156208D01*
X199466557Y-132156208D01*
X199577032Y-132148676D01*
X199676825Y-132141873D01*
X199691882Y-132138755D01*
X199949901Y-132085322D01*
X199958342Y-132083574D01*
X200229343Y-131987607D01*
X200356583Y-131921934D01*
X200477157Y-131859701D01*
X200484812Y-131855750D01*
X200720023Y-131690441D01*
X200930622Y-131494740D01*
X200939040Y-131484456D01*
X201107259Y-131278931D01*
X201112713Y-131272268D01*
X201117206Y-131264936D01*
X201117211Y-131264929D01*
X201258426Y-131034487D01*
X201262927Y-131027142D01*
X201378483Y-130763898D01*
X201457244Y-130487406D01*
X201497751Y-130202784D01*
X201499257Y-129915297D01*
X201461732Y-129630266D01*
X201453540Y-129600319D01*
X201427534Y-129505260D01*
X201385871Y-129352964D01*
X201315223Y-129187334D01*
X201276456Y-129096445D01*
X201276454Y-129096440D01*
X201273077Y-129088524D01*
X201249835Y-129049689D01*
X201129860Y-128849225D01*
X201129856Y-128849219D01*
X201125439Y-128841839D01*
X201116813Y-128831071D01*
X200951074Y-128624196D01*
X200945687Y-128617472D01*
X200939447Y-128611550D01*
X200939441Y-128611544D01*
X200812196Y-128490794D01*
X200737149Y-128419577D01*
X200710746Y-128400604D01*
X200560345Y-128292530D01*
X200503683Y-128251814D01*
X200496081Y-128247789D01*
X200496073Y-128247784D01*
X200257216Y-128121316D01*
X200257213Y-128121315D01*
X200249608Y-128117288D01*
X200241527Y-128114331D01*
X200241523Y-128114329D01*
X200085672Y-128057296D01*
X199979627Y-128018489D01*
X199971215Y-128016655D01*
X199971212Y-128016654D01*
X199707154Y-127959080D01*
X199707148Y-127959079D01*
X199698736Y-127957245D01*
X199531556Y-127944088D01*
X199478218Y-127939890D01*
X199478215Y-127939890D01*
X199473261Y-127939500D01*
X199317729Y-127939500D01*
X199313449Y-127939792D01*
X199313443Y-127939792D01*
X199202968Y-127947324D01*
X199103175Y-127954127D01*
X199094735Y-127955875D01*
X199094734Y-127955875D01*
X199079258Y-127959080D01*
X198821658Y-128012426D01*
X198550657Y-128108393D01*
X198542999Y-128112346D01*
X198542998Y-128112346D01*
X198473176Y-128148384D01*
X198295188Y-128240250D01*
X198288142Y-128245202D01*
X198074583Y-128395294D01*
X198059977Y-128405559D01*
X197849378Y-128601260D01*
X197843923Y-128607925D01*
X197843919Y-128607929D01*
X197759535Y-128711027D01*
X197667287Y-128823732D01*
X197662794Y-128831064D01*
X197662789Y-128831071D01*
X197532151Y-129044253D01*
X197517073Y-129068858D01*
X197513613Y-129076741D01*
X197513610Y-129076746D01*
X197404978Y-129324217D01*
X197401517Y-129332102D01*
X197399158Y-129340382D01*
X197399158Y-129340383D01*
X197327530Y-129591836D01*
X197322756Y-129608594D01*
X197282249Y-129893216D01*
X197280743Y-130180703D01*
X194823500Y-130180703D01*
X194823500Y-126236265D01*
X194809258Y-126101950D01*
X194798176Y-126050279D01*
X194746739Y-125902068D01*
X194733360Y-125881758D01*
X194662795Y-125774634D01*
X194662789Y-125774626D01*
X194658419Y-125767992D01*
X194612240Y-125714065D01*
X194610785Y-125712479D01*
X194589410Y-125689183D01*
X194589406Y-125689179D01*
X194582570Y-125681729D01*
X194456571Y-125582224D01*
X194373813Y-125545552D01*
X194317057Y-125520401D01*
X194317051Y-125520399D01*
X194309785Y-125517179D01*
X194241785Y-125496779D01*
X194220650Y-125490832D01*
X194211687Y-125489646D01*
X194211685Y-125489646D01*
X194069365Y-125470820D01*
X194069360Y-125470820D01*
X194061485Y-125469778D01*
X186812127Y-125427384D01*
X186715424Y-125407559D01*
X186633667Y-125352237D01*
X186579304Y-125269838D01*
X186560612Y-125172908D01*
X186562603Y-125142678D01*
X186567503Y-125103890D01*
X186568500Y-125096000D01*
X186568500Y-115955500D01*
X186587758Y-115858681D01*
X186642602Y-115776602D01*
X186724681Y-115721758D01*
X186821500Y-115702500D01*
X188850000Y-115702500D01*
X188986145Y-115687863D01*
X189014838Y-115681621D01*
X189030802Y-115678149D01*
X189030806Y-115678148D01*
X189038487Y-115676477D01*
X189045900Y-115673868D01*
X189045903Y-115673867D01*
X189173289Y-115629031D01*
X189173292Y-115629030D01*
X189188221Y-115623775D01*
X189247056Y-115584523D01*
X189315168Y-115539083D01*
X189315173Y-115539079D01*
X189321779Y-115534672D01*
X189375435Y-115488179D01*
X189407605Y-115458314D01*
X189506370Y-115331734D01*
X189570554Y-115184570D01*
X189590556Y-115116449D01*
X189596378Y-115095286D01*
X189616500Y-114936000D01*
X189616500Y-113410000D01*
X189601863Y-113273855D01*
X189590477Y-113221513D01*
X189537775Y-113071779D01*
X189448672Y-112938221D01*
X189402179Y-112884565D01*
X189372314Y-112852395D01*
X189245734Y-112753630D01*
X189231151Y-112747270D01*
X189231148Y-112747268D01*
X189105846Y-112692619D01*
X189105841Y-112692617D01*
X189098570Y-112689446D01*
X189090954Y-112687210D01*
X189090952Y-112687209D01*
X189053022Y-112676072D01*
X189030449Y-112669444D01*
X189029454Y-112669170D01*
X189029439Y-112669166D01*
X189017992Y-112666017D01*
X189017991Y-112666017D01*
X189009286Y-112663622D01*
X188961505Y-112657586D01*
X188857893Y-112644497D01*
X188857892Y-112644497D01*
X188850000Y-112643500D01*
X183895000Y-112643500D01*
X183758855Y-112658137D01*
X183733640Y-112663622D01*
X183714198Y-112667851D01*
X183714194Y-112667852D01*
X183706513Y-112669523D01*
X183699100Y-112672132D01*
X183699097Y-112672133D01*
X183571711Y-112716969D01*
X183571708Y-112716970D01*
X183556779Y-112722225D01*
X183543610Y-112731011D01*
X183429832Y-112806917D01*
X183429827Y-112806921D01*
X183423221Y-112811328D01*
X183369565Y-112857821D01*
X183337395Y-112887686D01*
X183238630Y-113014266D01*
X183232270Y-113028849D01*
X183232268Y-113028852D01*
X183177622Y-113154147D01*
X183174446Y-113161430D01*
X183154444Y-113229551D01*
X183148622Y-113250714D01*
X183147490Y-113259675D01*
X183128505Y-113409960D01*
X183097264Y-113503601D01*
X183032566Y-113578160D01*
X182944261Y-113622284D01*
X182845791Y-113629256D01*
X182752150Y-113598015D01*
X182677591Y-113533317D01*
X182633467Y-113445012D01*
X182624500Y-113378251D01*
X182624500Y-109844276D01*
X182643758Y-109747457D01*
X182689484Y-109674986D01*
X182721170Y-109639795D01*
X182730040Y-109629944D01*
X182825527Y-109464556D01*
X182884542Y-109282928D01*
X182904504Y-109093000D01*
X182884542Y-108903072D01*
X182825527Y-108721444D01*
X182777784Y-108638750D01*
X182736670Y-108567539D01*
X182736669Y-108567537D01*
X182730040Y-108556056D01*
X182602253Y-108414134D01*
X182577366Y-108396052D01*
X182527667Y-108359944D01*
X182447752Y-108301882D01*
X182338256Y-108253131D01*
X182285399Y-108229598D01*
X182285398Y-108229598D01*
X182273288Y-108224206D01*
X182163785Y-108200930D01*
X182099459Y-108187257D01*
X182099456Y-108187257D01*
X182086487Y-108184500D01*
X181895513Y-108184500D01*
X181882544Y-108187257D01*
X181882541Y-108187257D01*
X181818215Y-108200930D01*
X181708712Y-108224206D01*
X181696602Y-108229598D01*
X181696601Y-108229598D01*
X181643744Y-108253131D01*
X181534248Y-108301882D01*
X181454333Y-108359944D01*
X181404635Y-108396052D01*
X181379747Y-108414134D01*
X181251960Y-108556056D01*
X181245331Y-108567537D01*
X181245330Y-108567539D01*
X181204216Y-108638750D01*
X181156473Y-108721444D01*
X181097458Y-108903072D01*
X181077496Y-109093000D01*
X181097458Y-109282928D01*
X181156473Y-109464556D01*
X181251960Y-109629944D01*
X181260830Y-109639795D01*
X181292516Y-109674986D01*
X181342988Y-109759823D01*
X181357500Y-109844276D01*
X181357500Y-115961724D01*
X181338242Y-116058543D01*
X181292516Y-116131014D01*
X181251960Y-116176056D01*
X181156473Y-116341444D01*
X181097458Y-116523072D01*
X181077496Y-116713000D01*
X181097458Y-116902928D01*
X181156473Y-117084556D01*
X181163103Y-117096039D01*
X181245147Y-117238143D01*
X181251960Y-117249944D01*
X181379747Y-117391866D01*
X181534248Y-117504118D01*
X181708712Y-117581794D01*
X181818215Y-117605070D01*
X181882541Y-117618743D01*
X181882544Y-117618743D01*
X181895513Y-117621500D01*
X182086487Y-117621500D01*
X182099456Y-117618743D01*
X182099459Y-117618743D01*
X182163785Y-117605070D01*
X182273288Y-117581794D01*
X182447752Y-117504118D01*
X182602253Y-117391866D01*
X182687485Y-117297206D01*
X182766580Y-117238143D01*
X182862258Y-117213844D01*
X182959953Y-117228009D01*
X183044790Y-117278481D01*
X183103854Y-117357577D01*
X183128153Y-117453255D01*
X183128500Y-117466497D01*
X183128500Y-122550500D01*
X183109242Y-122647319D01*
X183054398Y-122729398D01*
X182972319Y-122784242D01*
X182875500Y-122803500D01*
X176026500Y-122803500D01*
X175929681Y-122784242D01*
X175847602Y-122729398D01*
X175792758Y-122647319D01*
X175773500Y-122550500D01*
X175773500Y-115955500D01*
X175792758Y-115858681D01*
X175847602Y-115776602D01*
X175929681Y-115721758D01*
X176026500Y-115702500D01*
X178055000Y-115702500D01*
X178191145Y-115687863D01*
X178219838Y-115681621D01*
X178235802Y-115678149D01*
X178235806Y-115678148D01*
X178243487Y-115676477D01*
X178250900Y-115673868D01*
X178250903Y-115673867D01*
X178378289Y-115629031D01*
X178378292Y-115629030D01*
X178393221Y-115623775D01*
X178452056Y-115584523D01*
X178520168Y-115539083D01*
X178520173Y-115539079D01*
X178526779Y-115534672D01*
X178580435Y-115488179D01*
X178612605Y-115458314D01*
X178711370Y-115331734D01*
X178775554Y-115184570D01*
X178795556Y-115116449D01*
X178801378Y-115095286D01*
X178821500Y-114936000D01*
X178821500Y-113410000D01*
X178806863Y-113273855D01*
X178795477Y-113221513D01*
X178742775Y-113071779D01*
X178653672Y-112938221D01*
X178607179Y-112884565D01*
X178577314Y-112852395D01*
X178450734Y-112753630D01*
X178436151Y-112747270D01*
X178436148Y-112747268D01*
X178310846Y-112692619D01*
X178310841Y-112692617D01*
X178303570Y-112689446D01*
X178295954Y-112687210D01*
X178295952Y-112687209D01*
X178258022Y-112676072D01*
X178235449Y-112669444D01*
X178234454Y-112669170D01*
X178234439Y-112669166D01*
X178222992Y-112666017D01*
X178222991Y-112666017D01*
X178214286Y-112663622D01*
X178166505Y-112657586D01*
X178062893Y-112644497D01*
X178062892Y-112644497D01*
X178055000Y-112643500D01*
X173100000Y-112643500D01*
X172963855Y-112658137D01*
X172938640Y-112663622D01*
X172919198Y-112667851D01*
X172919194Y-112667852D01*
X172911513Y-112669523D01*
X172904100Y-112672132D01*
X172904097Y-112672133D01*
X172776711Y-112716969D01*
X172776708Y-112716970D01*
X172761779Y-112722225D01*
X172730907Y-112742821D01*
X172639682Y-112780532D01*
X172540966Y-112780462D01*
X172449791Y-112742620D01*
X172380038Y-112672768D01*
X172342326Y-112581540D01*
X172337500Y-112532358D01*
X172337500Y-109844276D01*
X172356758Y-109747457D01*
X172402484Y-109674986D01*
X172434170Y-109639795D01*
X172443040Y-109629944D01*
X172538527Y-109464556D01*
X172597542Y-109282928D01*
X172617504Y-109093000D01*
X172597542Y-108903072D01*
X172538527Y-108721444D01*
X172490784Y-108638750D01*
X172449670Y-108567539D01*
X172449669Y-108567537D01*
X172443040Y-108556056D01*
X172315253Y-108414134D01*
X172290366Y-108396052D01*
X172240667Y-108359944D01*
X172160752Y-108301882D01*
X172051256Y-108253131D01*
X171998399Y-108229598D01*
X171998398Y-108229598D01*
X171986288Y-108224206D01*
X171876785Y-108200930D01*
X171812459Y-108187257D01*
X171812456Y-108187257D01*
X171799487Y-108184500D01*
X171608513Y-108184500D01*
X171595544Y-108187257D01*
X171595541Y-108187257D01*
X171531215Y-108200930D01*
X171421712Y-108224206D01*
X171409602Y-108229598D01*
X171409601Y-108229598D01*
X171356744Y-108253131D01*
X171247248Y-108301882D01*
X171167333Y-108359944D01*
X171117635Y-108396052D01*
X171092747Y-108414134D01*
X170964960Y-108556056D01*
X170958331Y-108567537D01*
X170958330Y-108567539D01*
X170917216Y-108638750D01*
X170869473Y-108721444D01*
X170810458Y-108903072D01*
X170790496Y-109093000D01*
X170810458Y-109282928D01*
X170869473Y-109464556D01*
X170964960Y-109629944D01*
X170973830Y-109639795D01*
X171005516Y-109674986D01*
X171055988Y-109759823D01*
X171070500Y-109844276D01*
X171070500Y-115961724D01*
X171051242Y-116058543D01*
X171005516Y-116131014D01*
X170964960Y-116176056D01*
X170869473Y-116341444D01*
X170810458Y-116523072D01*
X170790496Y-116713000D01*
X170810458Y-116902928D01*
X170869473Y-117084556D01*
X170876103Y-117096039D01*
X170958147Y-117238143D01*
X170964960Y-117249944D01*
X171092747Y-117391866D01*
X171247248Y-117504118D01*
X171421712Y-117581794D01*
X171531215Y-117605070D01*
X171595541Y-117618743D01*
X171595544Y-117618743D01*
X171608513Y-117621500D01*
X171799487Y-117621500D01*
X171812456Y-117618743D01*
X171812459Y-117618743D01*
X171937215Y-117592225D01*
X171986288Y-117581794D01*
X171998403Y-117576400D01*
X172002318Y-117575128D01*
X172100350Y-117563525D01*
X172195359Y-117590320D01*
X172272882Y-117651434D01*
X172321117Y-117737563D01*
X172333500Y-117815745D01*
X172333500Y-122550500D01*
X172314242Y-122647319D01*
X172259398Y-122729398D01*
X172177319Y-122784242D01*
X172080500Y-122803500D01*
X165485500Y-122803500D01*
X165388681Y-122784242D01*
X165306602Y-122729398D01*
X165251758Y-122647319D01*
X165232500Y-122550500D01*
X165232500Y-115955500D01*
X165251758Y-115858681D01*
X165306602Y-115776602D01*
X165388681Y-115721758D01*
X165485500Y-115702500D01*
X167260000Y-115702500D01*
X167396145Y-115687863D01*
X167424838Y-115681621D01*
X167440802Y-115678149D01*
X167440806Y-115678148D01*
X167448487Y-115676477D01*
X167455900Y-115673868D01*
X167455903Y-115673867D01*
X167583289Y-115629031D01*
X167583292Y-115629030D01*
X167598221Y-115623775D01*
X167657056Y-115584523D01*
X167725168Y-115539083D01*
X167725173Y-115539079D01*
X167731779Y-115534672D01*
X167785435Y-115488179D01*
X167817605Y-115458314D01*
X167916370Y-115331734D01*
X167980554Y-115184570D01*
X168000556Y-115116449D01*
X168006378Y-115095286D01*
X168026500Y-114936000D01*
X168026500Y-113410000D01*
X168011863Y-113273855D01*
X168000477Y-113221513D01*
X167947775Y-113071779D01*
X167858672Y-112938221D01*
X167812179Y-112884565D01*
X167782314Y-112852395D01*
X167655734Y-112753630D01*
X167641151Y-112747270D01*
X167641148Y-112747268D01*
X167515846Y-112692619D01*
X167515841Y-112692617D01*
X167508570Y-112689446D01*
X167500954Y-112687210D01*
X167500952Y-112687209D01*
X167463022Y-112676072D01*
X167440449Y-112669444D01*
X167439454Y-112669170D01*
X167439439Y-112669166D01*
X167427992Y-112666017D01*
X167427991Y-112666017D01*
X167419286Y-112663622D01*
X167371505Y-112657586D01*
X167267893Y-112644497D01*
X167267892Y-112644497D01*
X167260000Y-112643500D01*
X162305000Y-112643500D01*
X162168855Y-112658137D01*
X162143640Y-112663622D01*
X162124198Y-112667851D01*
X162124194Y-112667852D01*
X162116513Y-112669523D01*
X162109100Y-112672132D01*
X162109097Y-112672133D01*
X161981711Y-112716969D01*
X161981708Y-112716970D01*
X161966779Y-112722225D01*
X161833221Y-112811328D01*
X161827207Y-112816539D01*
X161821848Y-112820623D01*
X161733167Y-112863989D01*
X161634642Y-112870117D01*
X161541271Y-112838075D01*
X161467270Y-112772741D01*
X161423904Y-112684060D01*
X161415500Y-112619393D01*
X161415500Y-109844276D01*
X161434758Y-109747457D01*
X161480484Y-109674986D01*
X161512170Y-109639795D01*
X161521040Y-109629944D01*
X161616527Y-109464556D01*
X161675542Y-109282928D01*
X161695504Y-109093000D01*
X161675542Y-108903072D01*
X161616527Y-108721444D01*
X161568784Y-108638750D01*
X161527670Y-108567539D01*
X161527669Y-108567537D01*
X161521040Y-108556056D01*
X161393253Y-108414134D01*
X161368366Y-108396052D01*
X161318667Y-108359944D01*
X161238752Y-108301882D01*
X161129256Y-108253131D01*
X161076399Y-108229598D01*
X161076398Y-108229598D01*
X161064288Y-108224206D01*
X160954785Y-108200930D01*
X160890459Y-108187257D01*
X160890456Y-108187257D01*
X160877487Y-108184500D01*
X160686513Y-108184500D01*
X160673544Y-108187257D01*
X160673541Y-108187257D01*
X160609215Y-108200930D01*
X160499712Y-108224206D01*
X160487602Y-108229598D01*
X160487601Y-108229598D01*
X160434744Y-108253131D01*
X160325248Y-108301882D01*
X160245333Y-108359944D01*
X160195635Y-108396052D01*
X160170747Y-108414134D01*
X160042960Y-108556056D01*
X160036331Y-108567537D01*
X160036330Y-108567539D01*
X159995216Y-108638750D01*
X159947473Y-108721444D01*
X159888458Y-108903072D01*
X159868496Y-109093000D01*
X159888458Y-109282928D01*
X159947473Y-109464556D01*
X160042960Y-109629944D01*
X160051830Y-109639795D01*
X160083516Y-109674986D01*
X160133988Y-109759823D01*
X160148500Y-109844276D01*
X160148500Y-115961724D01*
X160129242Y-116058543D01*
X160083516Y-116131014D01*
X160042960Y-116176056D01*
X159947473Y-116341444D01*
X159888458Y-116523072D01*
X159868496Y-116713000D01*
X159888458Y-116902928D01*
X159947473Y-117084556D01*
X159954103Y-117096039D01*
X160036147Y-117238143D01*
X160042960Y-117249944D01*
X160170747Y-117391866D01*
X160325248Y-117504118D01*
X160499712Y-117581794D01*
X160609215Y-117605070D01*
X160673541Y-117618743D01*
X160673544Y-117618743D01*
X160686513Y-117621500D01*
X160877487Y-117621500D01*
X160890456Y-117618743D01*
X160890459Y-117618743D01*
X160954785Y-117605070D01*
X161064288Y-117581794D01*
X161182597Y-117529120D01*
X161278877Y-117507334D01*
X161376167Y-117524051D01*
X161459654Y-117576727D01*
X161516627Y-117657343D01*
X161538500Y-117760247D01*
X161538500Y-122550500D01*
X161519242Y-122647319D01*
X161464398Y-122729398D01*
X161382319Y-122784242D01*
X161285500Y-122803500D01*
X154436500Y-122803500D01*
X154339681Y-122784242D01*
X154257602Y-122729398D01*
X154202758Y-122647319D01*
X154183500Y-122550500D01*
X154183500Y-115955500D01*
X154202758Y-115858681D01*
X154257602Y-115776602D01*
X154339681Y-115721758D01*
X154436500Y-115702500D01*
X156465000Y-115702500D01*
X156601145Y-115687863D01*
X156629838Y-115681621D01*
X156645802Y-115678149D01*
X156645806Y-115678148D01*
X156653487Y-115676477D01*
X156660900Y-115673868D01*
X156660903Y-115673867D01*
X156788289Y-115629031D01*
X156788292Y-115629030D01*
X156803221Y-115623775D01*
X156862056Y-115584523D01*
X156930168Y-115539083D01*
X156930173Y-115539079D01*
X156936779Y-115534672D01*
X156990435Y-115488179D01*
X157022605Y-115458314D01*
X157121370Y-115331734D01*
X157185554Y-115184570D01*
X157205556Y-115116449D01*
X157211378Y-115095286D01*
X157231500Y-114936000D01*
X157231500Y-113410000D01*
X157216863Y-113273855D01*
X157205477Y-113221513D01*
X157152775Y-113071779D01*
X157063672Y-112938221D01*
X157017179Y-112884565D01*
X156990061Y-112855354D01*
X156938303Y-112771295D01*
X156922652Y-112673828D01*
X156945493Y-112577791D01*
X156996580Y-112504324D01*
X157292519Y-112208385D01*
X157374598Y-112153541D01*
X157418815Y-112139812D01*
X157495317Y-112123551D01*
X157508288Y-112120794D01*
X157682752Y-112043118D01*
X157837253Y-111930866D01*
X157965040Y-111788944D01*
X157987204Y-111750556D01*
X158053897Y-111635039D01*
X158060527Y-111623556D01*
X158078277Y-111568928D01*
X158115446Y-111454535D01*
X158115447Y-111454532D01*
X158119542Y-111441928D01*
X158125686Y-111383478D01*
X158138118Y-111265187D01*
X158139504Y-111252000D01*
X158128264Y-111145057D01*
X158120928Y-111075256D01*
X158120927Y-111075253D01*
X158119542Y-111062072D01*
X158106999Y-111023467D01*
X158064624Y-110893053D01*
X158060527Y-110880444D01*
X157992910Y-110763328D01*
X157971670Y-110726539D01*
X157971669Y-110726537D01*
X157965040Y-110715056D01*
X157837253Y-110573134D01*
X157810212Y-110553487D01*
X157746847Y-110507450D01*
X157682752Y-110460882D01*
X157508288Y-110383206D01*
X157398785Y-110359930D01*
X157334459Y-110346257D01*
X157334456Y-110346257D01*
X157321487Y-110343500D01*
X157130513Y-110343500D01*
X157117544Y-110346257D01*
X157117541Y-110346257D01*
X157053215Y-110359930D01*
X156943712Y-110383206D01*
X156769248Y-110460882D01*
X156705153Y-110507450D01*
X156641789Y-110553487D01*
X156614747Y-110573134D01*
X156486960Y-110715056D01*
X156480331Y-110726537D01*
X156480330Y-110726539D01*
X156459090Y-110763328D01*
X156391473Y-110880444D01*
X156387376Y-110893053D01*
X156345002Y-111023467D01*
X156332458Y-111062072D01*
X156331073Y-111075253D01*
X156331072Y-111075256D01*
X156323736Y-111145057D01*
X156312496Y-111252000D01*
X156313147Y-111258195D01*
X156294624Y-111351319D01*
X156239780Y-111433398D01*
X156157701Y-111488242D01*
X156060882Y-111507500D01*
X144527389Y-111507500D01*
X144430570Y-111488242D01*
X144348491Y-111433398D01*
X144293647Y-111351319D01*
X144274389Y-111254500D01*
X144293647Y-111157681D01*
X144324936Y-111102771D01*
X144387804Y-111018886D01*
X144387806Y-111018883D01*
X144398615Y-111004460D01*
X144407597Y-110980502D01*
X144436701Y-110902865D01*
X144449745Y-110868071D01*
X144451459Y-110852297D01*
X144455760Y-110812705D01*
X144455760Y-110812697D01*
X144456500Y-110805889D01*
X144456500Y-108309621D01*
X144455660Y-108301882D01*
X144451459Y-108263213D01*
X144451458Y-108263210D01*
X144449745Y-108247439D01*
X144398615Y-108111050D01*
X144311261Y-107994494D01*
X144296840Y-107983686D01*
X144209128Y-107917949D01*
X144209126Y-107917948D01*
X144194705Y-107907140D01*
X144177828Y-107900813D01*
X144177826Y-107900812D01*
X144126604Y-107881610D01*
X144058316Y-107856010D01*
X144042545Y-107854297D01*
X144042542Y-107854296D01*
X144002950Y-107849995D01*
X144002942Y-107849995D01*
X143996134Y-107849255D01*
X141499866Y-107849255D01*
X141493058Y-107849995D01*
X141493050Y-107849995D01*
X141453458Y-107854296D01*
X141453455Y-107854297D01*
X141437684Y-107856010D01*
X141369396Y-107881610D01*
X141318174Y-107900812D01*
X141318172Y-107900813D01*
X141301295Y-107907140D01*
X141286874Y-107917948D01*
X141286872Y-107917949D01*
X141199160Y-107983686D01*
X141184739Y-107994494D01*
X141097385Y-108111050D01*
X141046255Y-108247439D01*
X141044542Y-108263210D01*
X141044541Y-108263213D01*
X141040341Y-108301882D01*
X141039500Y-108309621D01*
X141039500Y-110805889D01*
X141040240Y-110812697D01*
X141040240Y-110812705D01*
X141044541Y-110852297D01*
X141046255Y-110868071D01*
X141059299Y-110902865D01*
X141088404Y-110980502D01*
X141097385Y-111004460D01*
X141108194Y-111018883D01*
X141108196Y-111018886D01*
X141171064Y-111102771D01*
X141213717Y-111191796D01*
X141219056Y-111290367D01*
X141186266Y-111383478D01*
X141120340Y-111456953D01*
X141031315Y-111499606D01*
X140968611Y-111507500D01*
X136790812Y-111507500D01*
X136693993Y-111488242D01*
X136611914Y-111433398D01*
X136557070Y-111351319D01*
X136539198Y-111280945D01*
X136529542Y-111189072D01*
X136530152Y-111189008D01*
X136526947Y-111153094D01*
X136528220Y-111145057D01*
X136525948Y-111121016D01*
X136524623Y-111107005D01*
X136523500Y-111083195D01*
X136523500Y-108574276D01*
X136542758Y-108477457D01*
X136588484Y-108404986D01*
X136620170Y-108369795D01*
X136629040Y-108359944D01*
X136643542Y-108334827D01*
X136693995Y-108247439D01*
X136724527Y-108194556D01*
X136751660Y-108111050D01*
X136779446Y-108025535D01*
X136779447Y-108025532D01*
X136783542Y-108012928D01*
X136785480Y-107994494D01*
X136802118Y-107836187D01*
X136803504Y-107823000D01*
X136783542Y-107633072D01*
X136724527Y-107451444D01*
X136629040Y-107286056D01*
X136576577Y-107227790D01*
X136526105Y-107142953D01*
X136511940Y-107045259D01*
X136536239Y-106949581D01*
X136595303Y-106870484D01*
X136680140Y-106820012D01*
X136764593Y-106805500D01*
X149912884Y-106805500D01*
X149918174Y-106805750D01*
X149926909Y-106807702D01*
X149942816Y-106807202D01*
X149942817Y-106807202D01*
X149992982Y-106805625D01*
X150000931Y-106805500D01*
X150026856Y-106805500D01*
X150034737Y-106804505D01*
X150036876Y-106804370D01*
X150044807Y-106803996D01*
X150086889Y-106802673D01*
X150102167Y-106798234D01*
X150111477Y-106796760D01*
X150120885Y-106794811D01*
X150130006Y-106792469D01*
X150145797Y-106790474D01*
X150160596Y-106784614D01*
X150160598Y-106784614D01*
X150181337Y-106776403D01*
X150203890Y-106768681D01*
X150205952Y-106768082D01*
X150240593Y-106758018D01*
X150254296Y-106749914D01*
X150262943Y-106746172D01*
X150271544Y-106741959D01*
X150279813Y-106737413D01*
X150294617Y-106731552D01*
X150325546Y-106709081D01*
X150345457Y-106696002D01*
X150364663Y-106684644D01*
X150364665Y-106684643D01*
X150378362Y-106676542D01*
X150389618Y-106665286D01*
X150397059Y-106659514D01*
X150404357Y-106653281D01*
X150411226Y-106646831D01*
X150424107Y-106637472D01*
X150448471Y-106608020D01*
X150464513Y-106590391D01*
X152008444Y-105046461D01*
X153557548Y-103497357D01*
X153561464Y-103493794D01*
X153569018Y-103489000D01*
X153614272Y-103440809D01*
X153619804Y-103435101D01*
X153638135Y-103416770D01*
X153643001Y-103410497D01*
X153644414Y-103408894D01*
X153649759Y-103403020D01*
X153667689Y-103383926D01*
X153667692Y-103383922D01*
X153678586Y-103372321D01*
X153686252Y-103358377D01*
X153691785Y-103350762D01*
X153697072Y-103342712D01*
X153701859Y-103334618D01*
X153711614Y-103322041D01*
X153717934Y-103307435D01*
X153717937Y-103307431D01*
X153726796Y-103286959D01*
X153737283Y-103265552D01*
X153748026Y-103246011D01*
X153748027Y-103246007D01*
X153755695Y-103232060D01*
X153759654Y-103216641D01*
X153763119Y-103207889D01*
X153766235Y-103198788D01*
X153768861Y-103189750D01*
X153775181Y-103175145D01*
X153777670Y-103159428D01*
X153777672Y-103159423D01*
X153781163Y-103137385D01*
X153785994Y-103114053D01*
X153795500Y-103077030D01*
X153795500Y-103061113D01*
X153796681Y-103051765D01*
X153797434Y-103042198D01*
X153797730Y-103032778D01*
X153800220Y-103017057D01*
X153796623Y-102979005D01*
X153795500Y-102955195D01*
X153795500Y-94858276D01*
X153814758Y-94761457D01*
X153860484Y-94688986D01*
X153892170Y-94653795D01*
X153901040Y-94643944D01*
X153961397Y-94539403D01*
X154026484Y-94465186D01*
X154115019Y-94421526D01*
X154213524Y-94415070D01*
X154307001Y-94446801D01*
X154381219Y-94511889D01*
X154424879Y-94600424D01*
X154433500Y-94665905D01*
X154433500Y-104023724D01*
X154414242Y-104120543D01*
X154368516Y-104193014D01*
X154327960Y-104238056D01*
X154232473Y-104403444D01*
X154228376Y-104416053D01*
X154183658Y-104553681D01*
X154173458Y-104585072D01*
X154172073Y-104598253D01*
X154172072Y-104598256D01*
X154164736Y-104668057D01*
X154153496Y-104775000D01*
X154154882Y-104788187D01*
X154170922Y-104940795D01*
X154173458Y-104964928D01*
X154177553Y-104977532D01*
X154177554Y-104977535D01*
X154205329Y-105063017D01*
X154232473Y-105146556D01*
X154239103Y-105158039D01*
X154320916Y-105299743D01*
X154327960Y-105311944D01*
X154455747Y-105453866D01*
X154610248Y-105566118D01*
X154784712Y-105643794D01*
X154872646Y-105662485D01*
X154958541Y-105680743D01*
X154958544Y-105680743D01*
X154971513Y-105683500D01*
X155162487Y-105683500D01*
X155175456Y-105680743D01*
X155175459Y-105680743D01*
X155261354Y-105662485D01*
X155349288Y-105643794D01*
X155523752Y-105566118D01*
X155678253Y-105453866D01*
X155806040Y-105311944D01*
X155813085Y-105299743D01*
X155894897Y-105158039D01*
X155901527Y-105146556D01*
X155928671Y-105063017D01*
X155956446Y-104977535D01*
X155956447Y-104977532D01*
X155960542Y-104964928D01*
X155963079Y-104940795D01*
X155979118Y-104788187D01*
X155980504Y-104775000D01*
X155969264Y-104668057D01*
X155961928Y-104598256D01*
X155961927Y-104598253D01*
X155960542Y-104585072D01*
X155950343Y-104553681D01*
X155905624Y-104416053D01*
X155901527Y-104403444D01*
X155806040Y-104238056D01*
X155765484Y-104193014D01*
X155715012Y-104108177D01*
X155700500Y-104023724D01*
X155700500Y-99822000D01*
X156312496Y-99822000D01*
X156313882Y-99835187D01*
X156322581Y-99917949D01*
X156332458Y-100011928D01*
X156391473Y-100193556D01*
X156486960Y-100358944D01*
X156614747Y-100500866D01*
X156769248Y-100613118D01*
X156943712Y-100690794D01*
X157053215Y-100714070D01*
X157117541Y-100727743D01*
X157117544Y-100727743D01*
X157130513Y-100730500D01*
X157321487Y-100730500D01*
X157334456Y-100727743D01*
X157334459Y-100727743D01*
X157398785Y-100714070D01*
X157508288Y-100690794D01*
X157682752Y-100613118D01*
X157837253Y-100500866D01*
X157965040Y-100358944D01*
X158060527Y-100193556D01*
X158119542Y-100011928D01*
X158129420Y-99917949D01*
X158138118Y-99835187D01*
X158139504Y-99822000D01*
X158135667Y-99785494D01*
X158120928Y-99645256D01*
X158120927Y-99645253D01*
X158119542Y-99632072D01*
X158109938Y-99602512D01*
X158064624Y-99463053D01*
X158060527Y-99450444D01*
X157965040Y-99285056D01*
X157924484Y-99240014D01*
X157874012Y-99155177D01*
X157859500Y-99070724D01*
X157859500Y-95464155D01*
X157878758Y-95367336D01*
X157933602Y-95285257D01*
X157963790Y-95259474D01*
X158012255Y-95224261D01*
X158091253Y-95166866D01*
X158219040Y-95024944D01*
X158314527Y-94859556D01*
X158356208Y-94731276D01*
X158369446Y-94690535D01*
X158369447Y-94690532D01*
X158373542Y-94677928D01*
X158376079Y-94653795D01*
X158392118Y-94501187D01*
X158393504Y-94488000D01*
X158380370Y-94363039D01*
X158374928Y-94311256D01*
X158374927Y-94311253D01*
X158373542Y-94298072D01*
X158336002Y-94182535D01*
X158318624Y-94129053D01*
X158314527Y-94116444D01*
X158254124Y-94011823D01*
X158225670Y-93962539D01*
X158225669Y-93962537D01*
X158219040Y-93951056D01*
X158091253Y-93809134D01*
X158080189Y-93801095D01*
X158032000Y-93766084D01*
X157936752Y-93696882D01*
X157762288Y-93619206D01*
X157652785Y-93595930D01*
X157588459Y-93582257D01*
X157588456Y-93582257D01*
X157575487Y-93579500D01*
X157384513Y-93579500D01*
X157371544Y-93582257D01*
X157371541Y-93582257D01*
X157307215Y-93595930D01*
X157197712Y-93619206D01*
X157023248Y-93696882D01*
X156928000Y-93766084D01*
X156879812Y-93801095D01*
X156868747Y-93809134D01*
X156740960Y-93951056D01*
X156734331Y-93962537D01*
X156734330Y-93962539D01*
X156705876Y-94011823D01*
X156645473Y-94116444D01*
X156641376Y-94129053D01*
X156623999Y-94182535D01*
X156586458Y-94298072D01*
X156585073Y-94311253D01*
X156585072Y-94311256D01*
X156579630Y-94363039D01*
X156566496Y-94488000D01*
X156567882Y-94501187D01*
X156586458Y-94677928D01*
X156585848Y-94677992D01*
X156589053Y-94713906D01*
X156587780Y-94721943D01*
X156589278Y-94737791D01*
X156589278Y-94737793D01*
X156591377Y-94759995D01*
X156592500Y-94783805D01*
X156592500Y-99070724D01*
X156573242Y-99167543D01*
X156527516Y-99240014D01*
X156486960Y-99285056D01*
X156391473Y-99450444D01*
X156387376Y-99463053D01*
X156342063Y-99602512D01*
X156332458Y-99632072D01*
X156331073Y-99645253D01*
X156331072Y-99645256D01*
X156316333Y-99785494D01*
X156312496Y-99822000D01*
X155700500Y-99822000D01*
X155700500Y-76570276D01*
X155719758Y-76473457D01*
X155765484Y-76400986D01*
X155797170Y-76365795D01*
X155806040Y-76355944D01*
X155901527Y-76190556D01*
X155905624Y-76177947D01*
X155956446Y-76021535D01*
X155956447Y-76021532D01*
X155960542Y-76008928D01*
X155962787Y-75987574D01*
X155979118Y-75832187D01*
X155980504Y-75819000D01*
X155976167Y-75777732D01*
X155961928Y-75642256D01*
X155961927Y-75642253D01*
X155960542Y-75629072D01*
X155901527Y-75447444D01*
X155806040Y-75282056D01*
X155678253Y-75140134D01*
X155658610Y-75125862D01*
X155554321Y-75050092D01*
X155523752Y-75027882D01*
X155349288Y-74950206D01*
X155212742Y-74921182D01*
X155175459Y-74913257D01*
X155175456Y-74913257D01*
X155162487Y-74910500D01*
X154971513Y-74910500D01*
X154958544Y-74913257D01*
X154958541Y-74913257D01*
X154921258Y-74921182D01*
X154784712Y-74950206D01*
X154610248Y-75027882D01*
X154579679Y-75050092D01*
X154475391Y-75125862D01*
X154455747Y-75140134D01*
X154327960Y-75282056D01*
X154232473Y-75447444D01*
X154173458Y-75629072D01*
X154172073Y-75642253D01*
X154172072Y-75642256D01*
X154157833Y-75777732D01*
X154153496Y-75819000D01*
X154154882Y-75832187D01*
X154171214Y-75987574D01*
X154173458Y-76008928D01*
X154177553Y-76021532D01*
X154177554Y-76021535D01*
X154228376Y-76177947D01*
X154232473Y-76190556D01*
X154327960Y-76355944D01*
X154336830Y-76365795D01*
X154368516Y-76400986D01*
X154418988Y-76485823D01*
X154433500Y-76570276D01*
X154433500Y-93548095D01*
X154414242Y-93644914D01*
X154359398Y-93726993D01*
X154277319Y-93781837D01*
X154180500Y-93801095D01*
X154083681Y-93781837D01*
X154001602Y-93726993D01*
X153961396Y-93674596D01*
X153930483Y-93621053D01*
X153901040Y-93570056D01*
X153773253Y-93428134D01*
X153618752Y-93315882D01*
X153444288Y-93238206D01*
X153334785Y-93214930D01*
X153270459Y-93201257D01*
X153270456Y-93201257D01*
X153257487Y-93198500D01*
X153066513Y-93198500D01*
X153053544Y-93201257D01*
X153053541Y-93201257D01*
X152989215Y-93214930D01*
X152879712Y-93238206D01*
X152705248Y-93315882D01*
X152550747Y-93428134D01*
X152422960Y-93570056D01*
X152416333Y-93581535D01*
X152416330Y-93581539D01*
X152396174Y-93616450D01*
X152327473Y-93735444D01*
X152323376Y-93748053D01*
X152306142Y-93801095D01*
X152268458Y-93917072D01*
X152267073Y-93930253D01*
X152267072Y-93930256D01*
X152259799Y-93999457D01*
X152248496Y-94107000D01*
X152268458Y-94296928D01*
X152327473Y-94478556D01*
X152422960Y-94643944D01*
X152431830Y-94653795D01*
X152463516Y-94688986D01*
X152513988Y-94773823D01*
X152528500Y-94858276D01*
X152528500Y-102629800D01*
X152509242Y-102726619D01*
X152454398Y-102808698D01*
X149798697Y-105464398D01*
X149716618Y-105519242D01*
X149619799Y-105538500D01*
X149461450Y-105538500D01*
X149364631Y-105519242D01*
X149282552Y-105464398D01*
X149227708Y-105382319D01*
X149208450Y-105285500D01*
X149227708Y-105188681D01*
X149277022Y-105112308D01*
X149296274Y-105091807D01*
X149301804Y-105086101D01*
X149320135Y-105067770D01*
X149325001Y-105061497D01*
X149326414Y-105059894D01*
X149331759Y-105054020D01*
X149349689Y-105034926D01*
X149349692Y-105034922D01*
X149360586Y-105023321D01*
X149368252Y-105009377D01*
X149373785Y-105001762D01*
X149379072Y-104993712D01*
X149383859Y-104985618D01*
X149393614Y-104973041D01*
X149399934Y-104958435D01*
X149399937Y-104958431D01*
X149408796Y-104937959D01*
X149419283Y-104916552D01*
X149430026Y-104897011D01*
X149430027Y-104897007D01*
X149437695Y-104883060D01*
X149441654Y-104867641D01*
X149445119Y-104858889D01*
X149448235Y-104849788D01*
X149450861Y-104840750D01*
X149457181Y-104826145D01*
X149459670Y-104810428D01*
X149459672Y-104810423D01*
X149463163Y-104788385D01*
X149467994Y-104765053D01*
X149468826Y-104761813D01*
X149477500Y-104728030D01*
X149477500Y-104712113D01*
X149478681Y-104702765D01*
X149479434Y-104693198D01*
X149479730Y-104683778D01*
X149482220Y-104668057D01*
X149478623Y-104630005D01*
X149477500Y-104606195D01*
X149477500Y-94731276D01*
X149496758Y-94634457D01*
X149542484Y-94561986D01*
X149574170Y-94526795D01*
X149583040Y-94516944D01*
X149592138Y-94501187D01*
X149671897Y-94363039D01*
X149678527Y-94351556D01*
X149696277Y-94296928D01*
X149733446Y-94182535D01*
X149733447Y-94182532D01*
X149737542Y-94169928D01*
X149743164Y-94116444D01*
X149756118Y-93993187D01*
X149757504Y-93980000D01*
X149749565Y-93904465D01*
X149738928Y-93803256D01*
X149738927Y-93803253D01*
X149737542Y-93790072D01*
X149707263Y-93696882D01*
X149682624Y-93621053D01*
X149678527Y-93608444D01*
X149583040Y-93443056D01*
X149455253Y-93301134D01*
X149300752Y-93188882D01*
X149126288Y-93111206D01*
X148980775Y-93080276D01*
X148952459Y-93074257D01*
X148952456Y-93074257D01*
X148939487Y-93071500D01*
X148748513Y-93071500D01*
X148735544Y-93074257D01*
X148735541Y-93074257D01*
X148707225Y-93080276D01*
X148561712Y-93111206D01*
X148387248Y-93188882D01*
X148232747Y-93301134D01*
X148104960Y-93443056D01*
X148009473Y-93608444D01*
X148005376Y-93621053D01*
X147980738Y-93696882D01*
X147950458Y-93790072D01*
X147949073Y-93803253D01*
X147949072Y-93803256D01*
X147938435Y-93904465D01*
X147930496Y-93980000D01*
X147931882Y-93993187D01*
X147944837Y-94116444D01*
X147950458Y-94169928D01*
X147954553Y-94182532D01*
X147954554Y-94182535D01*
X147991723Y-94296928D01*
X148009473Y-94351556D01*
X148016103Y-94363039D01*
X148095863Y-94501187D01*
X148104960Y-94516944D01*
X148113830Y-94526795D01*
X148145516Y-94561986D01*
X148195988Y-94646823D01*
X148210500Y-94731276D01*
X148210500Y-104280800D01*
X148191242Y-104377619D01*
X148136398Y-104459698D01*
X147766697Y-104829398D01*
X147684618Y-104884242D01*
X147587799Y-104903500D01*
X146850801Y-104903500D01*
X146753982Y-104884242D01*
X146671903Y-104829398D01*
X146617059Y-104747319D01*
X146597801Y-104650500D01*
X146617059Y-104553681D01*
X146629096Y-104528615D01*
X146643695Y-104502060D01*
X146647654Y-104486640D01*
X146651119Y-104477889D01*
X146654235Y-104468788D01*
X146656861Y-104459750D01*
X146663181Y-104445145D01*
X146665670Y-104429428D01*
X146665672Y-104429423D01*
X146669163Y-104407385D01*
X146673994Y-104384053D01*
X146674826Y-104380813D01*
X146683500Y-104347030D01*
X146683500Y-104331113D01*
X146684681Y-104321765D01*
X146685434Y-104312198D01*
X146685730Y-104302778D01*
X146688220Y-104287057D01*
X146684623Y-104249005D01*
X146683500Y-104225195D01*
X146683500Y-94096276D01*
X146702758Y-93999457D01*
X146748484Y-93926986D01*
X146780170Y-93891795D01*
X146789040Y-93881944D01*
X146884527Y-93716556D01*
X146890920Y-93696882D01*
X146939446Y-93547535D01*
X146939447Y-93547532D01*
X146943542Y-93534928D01*
X146954234Y-93433205D01*
X146962118Y-93358187D01*
X146963504Y-93345000D01*
X146958075Y-93293343D01*
X146944928Y-93168256D01*
X146944927Y-93168253D01*
X146943542Y-93155072D01*
X146928394Y-93108450D01*
X146888624Y-92986053D01*
X146884527Y-92973444D01*
X146789040Y-92808056D01*
X146661253Y-92666134D01*
X146506752Y-92553882D01*
X146360788Y-92488895D01*
X146344399Y-92481598D01*
X146344398Y-92481598D01*
X146332288Y-92476206D01*
X146222785Y-92452930D01*
X146158459Y-92439257D01*
X146158456Y-92439257D01*
X146145487Y-92436500D01*
X145954513Y-92436500D01*
X145941544Y-92439257D01*
X145941541Y-92439257D01*
X145877215Y-92452930D01*
X145767712Y-92476206D01*
X145755602Y-92481598D01*
X145755601Y-92481598D01*
X145739212Y-92488895D01*
X145593248Y-92553882D01*
X145438747Y-92666134D01*
X145310960Y-92808056D01*
X145215473Y-92973444D01*
X145211376Y-92986053D01*
X145171607Y-93108450D01*
X145156458Y-93155072D01*
X145155073Y-93168253D01*
X145155072Y-93168256D01*
X145141925Y-93293343D01*
X145136496Y-93345000D01*
X145137882Y-93358187D01*
X145145767Y-93433205D01*
X145156458Y-93534928D01*
X145160553Y-93547532D01*
X145160554Y-93547535D01*
X145209080Y-93696882D01*
X145215473Y-93716556D01*
X145310960Y-93881944D01*
X145319830Y-93891795D01*
X145351516Y-93926986D01*
X145401988Y-94011823D01*
X145416500Y-94096276D01*
X145416500Y-100795621D01*
X145397242Y-100892440D01*
X145342398Y-100974519D01*
X145260319Y-101029363D01*
X145163500Y-101048621D01*
X145066681Y-101029363D01*
X144984602Y-100974519D01*
X144934579Y-100903345D01*
X144920139Y-100872660D01*
X144912496Y-100858756D01*
X144899654Y-100838521D01*
X144885025Y-100823186D01*
X144878445Y-100825731D01*
X144876456Y-100827325D01*
X143663645Y-102040136D01*
X143651872Y-102057755D01*
X143663645Y-102075374D01*
X144868682Y-103280411D01*
X144886301Y-103292184D01*
X144892167Y-103288264D01*
X144893761Y-103286275D01*
X144912496Y-103256754D01*
X144920139Y-103242850D01*
X144934579Y-103212165D01*
X144993229Y-103132761D01*
X145077801Y-103081846D01*
X145175420Y-103067170D01*
X145271224Y-103090968D01*
X145350628Y-103149618D01*
X145401543Y-103234190D01*
X145416500Y-103319889D01*
X145416500Y-103899800D01*
X145397242Y-103996619D01*
X145342398Y-104078698D01*
X145099697Y-104321398D01*
X145017617Y-104376242D01*
X144920799Y-104395500D01*
X144230928Y-104395500D01*
X144134109Y-104376242D01*
X144052030Y-104321398D01*
X143997186Y-104239319D01*
X143989705Y-104218791D01*
X143980796Y-104190620D01*
X143974638Y-104182419D01*
X142765619Y-102973400D01*
X142748000Y-102961627D01*
X142730381Y-102973400D01*
X141526312Y-104177469D01*
X141510368Y-104201330D01*
X141476515Y-104283059D01*
X141406713Y-104352862D01*
X141315511Y-104390639D01*
X141266153Y-104395500D01*
X130757117Y-104395500D01*
X130751825Y-104395250D01*
X130743091Y-104393298D01*
X130687041Y-104395060D01*
X130677005Y-104395375D01*
X130669057Y-104395500D01*
X130643144Y-104395500D01*
X130635266Y-104396495D01*
X130633151Y-104396628D01*
X130625223Y-104397002D01*
X130613398Y-104397374D01*
X130583111Y-104398326D01*
X130567818Y-104402769D01*
X130558495Y-104404246D01*
X130549148Y-104406181D01*
X130539995Y-104408531D01*
X130524203Y-104410526D01*
X130488654Y-104424600D01*
X130466120Y-104432315D01*
X130429407Y-104442982D01*
X130415705Y-104451086D01*
X130407050Y-104454831D01*
X130398456Y-104459041D01*
X130390187Y-104463587D01*
X130375383Y-104469448D01*
X130344454Y-104491919D01*
X130324546Y-104504996D01*
X130319783Y-104507813D01*
X130305337Y-104516356D01*
X130305335Y-104516357D01*
X130291638Y-104524458D01*
X130280382Y-104535714D01*
X130272941Y-104541486D01*
X130265643Y-104547719D01*
X130258774Y-104554169D01*
X130245893Y-104563528D01*
X130228070Y-104585072D01*
X130221529Y-104592979D01*
X130205487Y-104610609D01*
X126557697Y-108258398D01*
X126475618Y-108313242D01*
X126378799Y-108332500D01*
X115009106Y-108332500D01*
X115003823Y-108332251D01*
X114995091Y-108330299D01*
X114939066Y-108332060D01*
X114929037Y-108332375D01*
X114921089Y-108332500D01*
X114895144Y-108332500D01*
X114887253Y-108333497D01*
X114885127Y-108333631D01*
X114877185Y-108334005D01*
X114835110Y-108335327D01*
X114819819Y-108339769D01*
X114810501Y-108341245D01*
X114801112Y-108343189D01*
X114791989Y-108345531D01*
X114776203Y-108347526D01*
X114761406Y-108353385D01*
X114761404Y-108353385D01*
X114740663Y-108361597D01*
X114718120Y-108369316D01*
X114681407Y-108379982D01*
X114667707Y-108388084D01*
X114659058Y-108391827D01*
X114650434Y-108396052D01*
X114642181Y-108400589D01*
X114627383Y-108406448D01*
X114614510Y-108415801D01*
X114596461Y-108428914D01*
X114576542Y-108441998D01*
X114543637Y-108461458D01*
X114532387Y-108472708D01*
X114524952Y-108478475D01*
X114517647Y-108484715D01*
X114510773Y-108491170D01*
X114497893Y-108500528D01*
X114487745Y-108512795D01*
X114473534Y-108529973D01*
X114457492Y-108547603D01*
X112333697Y-110671398D01*
X112251618Y-110726242D01*
X112154799Y-110745500D01*
X108085717Y-110745500D01*
X107988898Y-110726242D01*
X107937007Y-110697181D01*
X107797302Y-110595679D01*
X107797300Y-110595678D01*
X107786570Y-110587882D01*
X107612106Y-110510206D01*
X107502603Y-110486930D01*
X107438277Y-110473257D01*
X107438274Y-110473257D01*
X107425305Y-110470500D01*
X107234331Y-110470500D01*
X107221362Y-110473257D01*
X107221359Y-110473257D01*
X107157033Y-110486930D01*
X107047530Y-110510206D01*
X106873066Y-110587882D01*
X106836430Y-110614500D01*
X106758117Y-110671398D01*
X106718565Y-110700134D01*
X106590778Y-110842056D01*
X106584151Y-110853535D01*
X106584148Y-110853539D01*
X106567180Y-110882928D01*
X106495291Y-111007444D01*
X106491194Y-111020053D01*
X106441852Y-111171912D01*
X106436276Y-111189072D01*
X106434891Y-111202253D01*
X106434890Y-111202256D01*
X106425039Y-111295982D01*
X106416314Y-111379000D01*
X106417700Y-111392187D01*
X106427796Y-111488242D01*
X106436276Y-111568928D01*
X106495291Y-111750556D01*
X106522331Y-111797391D01*
X106572071Y-111883542D01*
X106590778Y-111915944D01*
X106718565Y-112057866D01*
X106729287Y-112065656D01*
X106729288Y-112065657D01*
X106777818Y-112100916D01*
X106873066Y-112170118D01*
X107047530Y-112247794D01*
X107157033Y-112271070D01*
X107221359Y-112284743D01*
X107221362Y-112284743D01*
X107234331Y-112287500D01*
X107425305Y-112287500D01*
X107438274Y-112284743D01*
X107438277Y-112284743D01*
X107502603Y-112271070D01*
X107612106Y-112247794D01*
X107786570Y-112170118D01*
X107797302Y-112162321D01*
X107937007Y-112060819D01*
X108026655Y-112019490D01*
X108085717Y-112012500D01*
X112447884Y-112012500D01*
X112453174Y-112012750D01*
X112461909Y-112014702D01*
X112477816Y-112014202D01*
X112477817Y-112014202D01*
X112527982Y-112012625D01*
X112535931Y-112012500D01*
X112561856Y-112012500D01*
X112569737Y-112011505D01*
X112571876Y-112011370D01*
X112579807Y-112010996D01*
X112621889Y-112009673D01*
X112637167Y-112005234D01*
X112646477Y-112003760D01*
X112655885Y-112001811D01*
X112665006Y-111999469D01*
X112680797Y-111997474D01*
X112695596Y-111991614D01*
X112695598Y-111991614D01*
X112716337Y-111983403D01*
X112738890Y-111975681D01*
X112740952Y-111975082D01*
X112775593Y-111965018D01*
X112789296Y-111956914D01*
X112797943Y-111953172D01*
X112806544Y-111948959D01*
X112814813Y-111944413D01*
X112829617Y-111938552D01*
X112860546Y-111916081D01*
X112880457Y-111903002D01*
X112899663Y-111891644D01*
X112899665Y-111891643D01*
X112913362Y-111883542D01*
X112924618Y-111872286D01*
X112932059Y-111866514D01*
X112939357Y-111860281D01*
X112946226Y-111853831D01*
X112959107Y-111844472D01*
X112983471Y-111815020D01*
X112999513Y-111797391D01*
X113166608Y-111630296D01*
X113248687Y-111575452D01*
X113345506Y-111556194D01*
X113442325Y-111575452D01*
X113524404Y-111630296D01*
X113579248Y-111712375D01*
X113586121Y-111731008D01*
X113592473Y-111750556D01*
X113619513Y-111797391D01*
X113669253Y-111883542D01*
X113687960Y-111915944D01*
X113815747Y-112057866D01*
X113826469Y-112065656D01*
X113826470Y-112065657D01*
X113875000Y-112100916D01*
X113970248Y-112170118D01*
X114144712Y-112247794D01*
X114254215Y-112271070D01*
X114318541Y-112284743D01*
X114318544Y-112284743D01*
X114331513Y-112287500D01*
X114522487Y-112287500D01*
X114535456Y-112284743D01*
X114535459Y-112284743D01*
X114599785Y-112271070D01*
X114709288Y-112247794D01*
X114883752Y-112170118D01*
X114979000Y-112100916D01*
X115027530Y-112065657D01*
X115027531Y-112065656D01*
X115038253Y-112057866D01*
X115166040Y-111915944D01*
X115184748Y-111883542D01*
X115234487Y-111797391D01*
X115261527Y-111750556D01*
X115320542Y-111568928D01*
X115333206Y-111448434D01*
X115362479Y-111354159D01*
X115405922Y-111295982D01*
X116266302Y-110435602D01*
X116348381Y-110380758D01*
X116445200Y-110361500D01*
X120494497Y-110361500D01*
X120591316Y-110380758D01*
X120673395Y-110435602D01*
X120728239Y-110517681D01*
X120747497Y-110614500D01*
X120728239Y-110711319D01*
X120682513Y-110783790D01*
X120630050Y-110842056D01*
X120623423Y-110853535D01*
X120623420Y-110853539D01*
X120606452Y-110882928D01*
X120534563Y-111007444D01*
X120530466Y-111020053D01*
X120481124Y-111171912D01*
X120475548Y-111189072D01*
X120474163Y-111202253D01*
X120474162Y-111202256D01*
X120464311Y-111295982D01*
X120455586Y-111379000D01*
X120456972Y-111392187D01*
X120467068Y-111488242D01*
X120475548Y-111568928D01*
X120534563Y-111750556D01*
X120561603Y-111797391D01*
X120611343Y-111883542D01*
X120630050Y-111915944D01*
X120757837Y-112057866D01*
X120768559Y-112065656D01*
X120768560Y-112065657D01*
X120817090Y-112100916D01*
X120912338Y-112170118D01*
X121086802Y-112247794D01*
X121196305Y-112271070D01*
X121260631Y-112284743D01*
X121260634Y-112284743D01*
X121273603Y-112287500D01*
X121464577Y-112287500D01*
X121477546Y-112284743D01*
X121477549Y-112284743D01*
X121541875Y-112271070D01*
X121651378Y-112247794D01*
X121825842Y-112170118D01*
X121836574Y-112162321D01*
X121976279Y-112060819D01*
X122065927Y-112019490D01*
X122124989Y-112012500D01*
X126163884Y-112012500D01*
X126169174Y-112012750D01*
X126177909Y-112014702D01*
X126193816Y-112014202D01*
X126193817Y-112014202D01*
X126243982Y-112012625D01*
X126251931Y-112012500D01*
X126277856Y-112012500D01*
X126285737Y-112011505D01*
X126287876Y-112011370D01*
X126295807Y-112010996D01*
X126337889Y-112009673D01*
X126353167Y-112005234D01*
X126362477Y-112003760D01*
X126371885Y-112001811D01*
X126381006Y-111999469D01*
X126396797Y-111997474D01*
X126411596Y-111991614D01*
X126411598Y-111991614D01*
X126432337Y-111983403D01*
X126454890Y-111975681D01*
X126456952Y-111975082D01*
X126491593Y-111965018D01*
X126505296Y-111956914D01*
X126513943Y-111953172D01*
X126522544Y-111948959D01*
X126530813Y-111944413D01*
X126545617Y-111938552D01*
X126576546Y-111916081D01*
X126596457Y-111903002D01*
X126615663Y-111891644D01*
X126615665Y-111891643D01*
X126629362Y-111883542D01*
X126640618Y-111872286D01*
X126648059Y-111866514D01*
X126655357Y-111860281D01*
X126662226Y-111853831D01*
X126675107Y-111844472D01*
X126699471Y-111815020D01*
X126715513Y-111797391D01*
X127077062Y-111435842D01*
X127159141Y-111380998D01*
X127255960Y-111361740D01*
X127352779Y-111380998D01*
X127434858Y-111435842D01*
X127489702Y-111517921D01*
X127502393Y-111558794D01*
X127503458Y-111568928D01*
X127562473Y-111750556D01*
X127589513Y-111797391D01*
X127639253Y-111883542D01*
X127657960Y-111915944D01*
X127785747Y-112057866D01*
X127796469Y-112065656D01*
X127796470Y-112065657D01*
X127845000Y-112100916D01*
X127940248Y-112170118D01*
X128114712Y-112247794D01*
X128224215Y-112271070D01*
X128288541Y-112284743D01*
X128288544Y-112284743D01*
X128301513Y-112287500D01*
X128492487Y-112287500D01*
X128505456Y-112284743D01*
X128505459Y-112284743D01*
X128569785Y-112271070D01*
X128679288Y-112247794D01*
X128853752Y-112170118D01*
X128864484Y-112162321D01*
X129004189Y-112060819D01*
X129093837Y-112019490D01*
X129152899Y-112012500D01*
X133617800Y-112012500D01*
X133714619Y-112031758D01*
X133796698Y-112086602D01*
X134214419Y-112504324D01*
X134246643Y-112536548D01*
X134250206Y-112540464D01*
X134255000Y-112548018D01*
X134266599Y-112558910D01*
X134303191Y-112593272D01*
X134308899Y-112598804D01*
X134327230Y-112617135D01*
X134333503Y-112622001D01*
X134335106Y-112623414D01*
X134340980Y-112628759D01*
X134360074Y-112646689D01*
X134360078Y-112646692D01*
X134371679Y-112657586D01*
X134385623Y-112665252D01*
X134393238Y-112670785D01*
X134401288Y-112676072D01*
X134409382Y-112680859D01*
X134421959Y-112690614D01*
X134436565Y-112696934D01*
X134436569Y-112696937D01*
X134457041Y-112705796D01*
X134478448Y-112716283D01*
X134497989Y-112727026D01*
X134497993Y-112727027D01*
X134511940Y-112734695D01*
X134527359Y-112738654D01*
X134536111Y-112742119D01*
X134545212Y-112745235D01*
X134554250Y-112747861D01*
X134568855Y-112754181D01*
X134584572Y-112756670D01*
X134584577Y-112756672D01*
X134606615Y-112760163D01*
X134629937Y-112764992D01*
X134666970Y-112774500D01*
X134682887Y-112774500D01*
X134692235Y-112775681D01*
X134701802Y-112776434D01*
X134711222Y-112776730D01*
X134726943Y-112779220D01*
X134742790Y-112777722D01*
X134764995Y-112775623D01*
X134788805Y-112774500D01*
X150571842Y-112774500D01*
X150668661Y-112793758D01*
X150750740Y-112848602D01*
X150805584Y-112930681D01*
X150824842Y-113027500D01*
X150803746Y-113128641D01*
X150792622Y-113154147D01*
X150789446Y-113161430D01*
X150769444Y-113229551D01*
X150763622Y-113250714D01*
X150743500Y-113410000D01*
X150743500Y-122550500D01*
X150724242Y-122647319D01*
X150669398Y-122729398D01*
X150587319Y-122784242D01*
X150490500Y-122803500D01*
X145795000Y-122803500D01*
X145658855Y-122818137D01*
X145630162Y-122824379D01*
X145614198Y-122827851D01*
X145614194Y-122827852D01*
X145606513Y-122829523D01*
X145599100Y-122832132D01*
X145599097Y-122832133D01*
X145471711Y-122876969D01*
X145471708Y-122876970D01*
X145456779Y-122882225D01*
X145443610Y-122891011D01*
X145329832Y-122966917D01*
X145329827Y-122966921D01*
X145323221Y-122971328D01*
X145269565Y-123017821D01*
X145237395Y-123047686D01*
X145138630Y-123174266D01*
X145074446Y-123321430D01*
X145054444Y-123389551D01*
X145048622Y-123410714D01*
X145028500Y-123570000D01*
X145028500Y-132716000D01*
X145043137Y-132852145D01*
X145054523Y-132904487D01*
X145057132Y-132911900D01*
X145057133Y-132911903D01*
X145082768Y-132984734D01*
X145107225Y-133054221D01*
X145116010Y-133067389D01*
X145116012Y-133067393D01*
X145126484Y-133083089D01*
X145164197Y-133174316D01*
X145164128Y-133273032D01*
X145126287Y-133364207D01*
X145056435Y-133433960D01*
X144965208Y-133471673D01*
X144916024Y-133476500D01*
X99313500Y-133476500D01*
X99216681Y-133457242D01*
X99134602Y-133402398D01*
X99079758Y-133320319D01*
X99060500Y-133223500D01*
X99060500Y-130180703D01*
X100252743Y-130180703D01*
X100290268Y-130465734D01*
X100292539Y-130474036D01*
X100292540Y-130474040D01*
X100315819Y-130559131D01*
X100366129Y-130743036D01*
X100478923Y-131007476D01*
X100483347Y-131014868D01*
X100483348Y-131014870D01*
X100622140Y-131246775D01*
X100622144Y-131246781D01*
X100626561Y-131254161D01*
X100631940Y-131260875D01*
X100631942Y-131260878D01*
X100734597Y-131389012D01*
X100806313Y-131478528D01*
X100812553Y-131484450D01*
X100812559Y-131484456D01*
X100903969Y-131571200D01*
X101014851Y-131676423D01*
X101021847Y-131681450D01*
X101021848Y-131681451D01*
X101057842Y-131707315D01*
X101248317Y-131844186D01*
X101255919Y-131848211D01*
X101255927Y-131848216D01*
X101412746Y-131931247D01*
X101502392Y-131978712D01*
X101510473Y-131981669D01*
X101510477Y-131981671D01*
X101605598Y-132016480D01*
X101772373Y-132077511D01*
X101780785Y-132079345D01*
X101780788Y-132079346D01*
X102044846Y-132136920D01*
X102044852Y-132136921D01*
X102053264Y-132138755D01*
X102220444Y-132151912D01*
X102273782Y-132156110D01*
X102273785Y-132156110D01*
X102278739Y-132156500D01*
X102434271Y-132156500D01*
X102438551Y-132156208D01*
X102438557Y-132156208D01*
X102549032Y-132148676D01*
X102648825Y-132141873D01*
X102663882Y-132138755D01*
X102921901Y-132085322D01*
X102930342Y-132083574D01*
X103083324Y-132029400D01*
X108319500Y-132029400D01*
X108330474Y-132135166D01*
X108337494Y-132156208D01*
X108381392Y-132287784D01*
X108386450Y-132302946D01*
X108479522Y-132453348D01*
X108604697Y-132578305D01*
X108755262Y-132671115D01*
X108797640Y-132685171D01*
X108909114Y-132722145D01*
X108923139Y-132726797D01*
X109027600Y-132737500D01*
X110428400Y-132737500D01*
X110434906Y-132736825D01*
X110520396Y-132727955D01*
X110520398Y-132727954D01*
X110534166Y-132726526D01*
X110664719Y-132682970D01*
X110688006Y-132675201D01*
X110688008Y-132675200D01*
X110701946Y-132670550D01*
X110777147Y-132624014D01*
X110839852Y-132585211D01*
X110839853Y-132585210D01*
X110852348Y-132577478D01*
X110894496Y-132535257D01*
X110932218Y-132497469D01*
X110977305Y-132452303D01*
X111070115Y-132301738D01*
X111125797Y-132133861D01*
X111136500Y-132029400D01*
X111136500Y-131389012D01*
X113399500Y-131389012D01*
X113399952Y-131394336D01*
X113399952Y-131394342D01*
X113413285Y-131551474D01*
X113414617Y-131567175D01*
X113417308Y-131577543D01*
X113445089Y-131684576D01*
X113474668Y-131798540D01*
X113479067Y-131808306D01*
X113479069Y-131808311D01*
X113500439Y-131855750D01*
X113572843Y-132016480D01*
X113578821Y-132025360D01*
X113578823Y-132025363D01*
X113594566Y-132048747D01*
X113706334Y-132214762D01*
X113713725Y-132222510D01*
X113713726Y-132222511D01*
X113737247Y-132247167D01*
X113871326Y-132387718D01*
X113879915Y-132394108D01*
X113879919Y-132394112D01*
X114023521Y-132500954D01*
X114063100Y-132530402D01*
X114128384Y-132563594D01*
X114266616Y-132633875D01*
X114266621Y-132633877D01*
X114276172Y-132638733D01*
X114286406Y-132641911D01*
X114286409Y-132641912D01*
X114494216Y-132706438D01*
X114494220Y-132706439D01*
X114504452Y-132709616D01*
X114741411Y-132741023D01*
X114980274Y-132732055D01*
X115136064Y-132699367D01*
X115203722Y-132685171D01*
X115203724Y-132685170D01*
X115214211Y-132682970D01*
X115318177Y-132641912D01*
X115426565Y-132599108D01*
X115426569Y-132599106D01*
X115436533Y-132595171D01*
X115446703Y-132589000D01*
X115535268Y-132535257D01*
X115640883Y-132471168D01*
X115821419Y-132314507D01*
X115972978Y-132129667D01*
X116026350Y-132035906D01*
X116085926Y-131931247D01*
X116085927Y-131931244D01*
X116091227Y-131921934D01*
X116097132Y-131905666D01*
X116169130Y-131707315D01*
X116169131Y-131707310D01*
X116172784Y-131697247D01*
X116196305Y-131567175D01*
X116213834Y-131470240D01*
X116213835Y-131470234D01*
X116215318Y-131462031D01*
X116216500Y-131436968D01*
X116216500Y-131389012D01*
X118479500Y-131389012D01*
X118479952Y-131394336D01*
X118479952Y-131394342D01*
X118493285Y-131551474D01*
X118494617Y-131567175D01*
X118497308Y-131577543D01*
X118525089Y-131684576D01*
X118554668Y-131798540D01*
X118559067Y-131808306D01*
X118559069Y-131808311D01*
X118580439Y-131855750D01*
X118652843Y-132016480D01*
X118658821Y-132025360D01*
X118658823Y-132025363D01*
X118674566Y-132048747D01*
X118786334Y-132214762D01*
X118793725Y-132222510D01*
X118793726Y-132222511D01*
X118817247Y-132247167D01*
X118951326Y-132387718D01*
X118959915Y-132394108D01*
X118959919Y-132394112D01*
X119103521Y-132500954D01*
X119143100Y-132530402D01*
X119208384Y-132563594D01*
X119346616Y-132633875D01*
X119346621Y-132633877D01*
X119356172Y-132638733D01*
X119366406Y-132641911D01*
X119366409Y-132641912D01*
X119574216Y-132706438D01*
X119574220Y-132706439D01*
X119584452Y-132709616D01*
X119821411Y-132741023D01*
X120060274Y-132732055D01*
X120216064Y-132699367D01*
X120283722Y-132685171D01*
X120283724Y-132685170D01*
X120294211Y-132682970D01*
X120398177Y-132641912D01*
X120506565Y-132599108D01*
X120506569Y-132599106D01*
X120516533Y-132595171D01*
X120526703Y-132589000D01*
X120615268Y-132535257D01*
X120720883Y-132471168D01*
X120901419Y-132314507D01*
X121052978Y-132129667D01*
X121106350Y-132035906D01*
X121165926Y-131931247D01*
X121165927Y-131931244D01*
X121171227Y-131921934D01*
X121177132Y-131905666D01*
X121249130Y-131707315D01*
X121249131Y-131707310D01*
X121252784Y-131697247D01*
X121276305Y-131567175D01*
X121293834Y-131470240D01*
X121293835Y-131470234D01*
X121295318Y-131462031D01*
X121296500Y-131436968D01*
X121296500Y-131389012D01*
X123559500Y-131389012D01*
X123559952Y-131394336D01*
X123559952Y-131394342D01*
X123573285Y-131551474D01*
X123574617Y-131567175D01*
X123577308Y-131577543D01*
X123605089Y-131684576D01*
X123634668Y-131798540D01*
X123639067Y-131808306D01*
X123639069Y-131808311D01*
X123660439Y-131855750D01*
X123732843Y-132016480D01*
X123738821Y-132025360D01*
X123738823Y-132025363D01*
X123754566Y-132048747D01*
X123866334Y-132214762D01*
X123873725Y-132222510D01*
X123873726Y-132222511D01*
X123897247Y-132247167D01*
X124031326Y-132387718D01*
X124039915Y-132394108D01*
X124039919Y-132394112D01*
X124183521Y-132500954D01*
X124223100Y-132530402D01*
X124288384Y-132563594D01*
X124426616Y-132633875D01*
X124426621Y-132633877D01*
X124436172Y-132638733D01*
X124446406Y-132641911D01*
X124446409Y-132641912D01*
X124654216Y-132706438D01*
X124654220Y-132706439D01*
X124664452Y-132709616D01*
X124901411Y-132741023D01*
X125140274Y-132732055D01*
X125296064Y-132699367D01*
X125363722Y-132685171D01*
X125363724Y-132685170D01*
X125374211Y-132682970D01*
X125478177Y-132641912D01*
X125586565Y-132599108D01*
X125586569Y-132599106D01*
X125596533Y-132595171D01*
X125606703Y-132589000D01*
X125695268Y-132535257D01*
X125800883Y-132471168D01*
X125981419Y-132314507D01*
X126132978Y-132129667D01*
X126186350Y-132035906D01*
X126245926Y-131931247D01*
X126245927Y-131931244D01*
X126251227Y-131921934D01*
X126257132Y-131905666D01*
X126329130Y-131707315D01*
X126329131Y-131707310D01*
X126332784Y-131697247D01*
X126356305Y-131567175D01*
X126373834Y-131470240D01*
X126373835Y-131470234D01*
X126375318Y-131462031D01*
X126376500Y-131436968D01*
X126376500Y-131389012D01*
X128639500Y-131389012D01*
X128639952Y-131394336D01*
X128639952Y-131394342D01*
X128653285Y-131551474D01*
X128654617Y-131567175D01*
X128657308Y-131577543D01*
X128685089Y-131684576D01*
X128714668Y-131798540D01*
X128719067Y-131808306D01*
X128719069Y-131808311D01*
X128740439Y-131855750D01*
X128812843Y-132016480D01*
X128818821Y-132025360D01*
X128818823Y-132025363D01*
X128834566Y-132048747D01*
X128946334Y-132214762D01*
X128953725Y-132222510D01*
X128953726Y-132222511D01*
X128977247Y-132247167D01*
X129111326Y-132387718D01*
X129119915Y-132394108D01*
X129119919Y-132394112D01*
X129263521Y-132500954D01*
X129303100Y-132530402D01*
X129368384Y-132563594D01*
X129506616Y-132633875D01*
X129506621Y-132633877D01*
X129516172Y-132638733D01*
X129526406Y-132641911D01*
X129526409Y-132641912D01*
X129734216Y-132706438D01*
X129734220Y-132706439D01*
X129744452Y-132709616D01*
X129981411Y-132741023D01*
X130220274Y-132732055D01*
X130376064Y-132699367D01*
X130443722Y-132685171D01*
X130443724Y-132685170D01*
X130454211Y-132682970D01*
X130558177Y-132641912D01*
X130666565Y-132599108D01*
X130666569Y-132599106D01*
X130676533Y-132595171D01*
X130686703Y-132589000D01*
X130775268Y-132535257D01*
X130880883Y-132471168D01*
X131061419Y-132314507D01*
X131212978Y-132129667D01*
X131266350Y-132035906D01*
X131325926Y-131931247D01*
X131325927Y-131931244D01*
X131331227Y-131921934D01*
X131337132Y-131905666D01*
X131409130Y-131707315D01*
X131409131Y-131707310D01*
X131412784Y-131697247D01*
X131436305Y-131567175D01*
X131453834Y-131470240D01*
X131453835Y-131470234D01*
X131455318Y-131462031D01*
X131456500Y-131436968D01*
X131456500Y-131389012D01*
X133719500Y-131389012D01*
X133719952Y-131394336D01*
X133719952Y-131394342D01*
X133733285Y-131551474D01*
X133734617Y-131567175D01*
X133737308Y-131577543D01*
X133765089Y-131684576D01*
X133794668Y-131798540D01*
X133799067Y-131808306D01*
X133799069Y-131808311D01*
X133820439Y-131855750D01*
X133892843Y-132016480D01*
X133898821Y-132025360D01*
X133898823Y-132025363D01*
X133914566Y-132048747D01*
X134026334Y-132214762D01*
X134033725Y-132222510D01*
X134033726Y-132222511D01*
X134057247Y-132247167D01*
X134191326Y-132387718D01*
X134199915Y-132394108D01*
X134199919Y-132394112D01*
X134343521Y-132500954D01*
X134383100Y-132530402D01*
X134448384Y-132563594D01*
X134586616Y-132633875D01*
X134586621Y-132633877D01*
X134596172Y-132638733D01*
X134606406Y-132641911D01*
X134606409Y-132641912D01*
X134814216Y-132706438D01*
X134814220Y-132706439D01*
X134824452Y-132709616D01*
X135061411Y-132741023D01*
X135300274Y-132732055D01*
X135456064Y-132699367D01*
X135523722Y-132685171D01*
X135523724Y-132685170D01*
X135534211Y-132682970D01*
X135638177Y-132641912D01*
X135746565Y-132599108D01*
X135746569Y-132599106D01*
X135756533Y-132595171D01*
X135766703Y-132589000D01*
X135855268Y-132535257D01*
X135960883Y-132471168D01*
X136141419Y-132314507D01*
X136292978Y-132129667D01*
X136346350Y-132035906D01*
X136405926Y-131931247D01*
X136405927Y-131931244D01*
X136411227Y-131921934D01*
X136417132Y-131905666D01*
X136489130Y-131707315D01*
X136489131Y-131707310D01*
X136492784Y-131697247D01*
X136516305Y-131567175D01*
X136533834Y-131470240D01*
X136533835Y-131470234D01*
X136535318Y-131462031D01*
X136536500Y-131436968D01*
X136536500Y-129468988D01*
X136532431Y-129421032D01*
X136522289Y-129301499D01*
X136522288Y-129301495D01*
X136521383Y-129290825D01*
X136485010Y-129150685D01*
X136464025Y-129069834D01*
X136464023Y-129069829D01*
X136461332Y-129059460D01*
X136456933Y-129049694D01*
X136456931Y-129049689D01*
X136367555Y-128851284D01*
X136363157Y-128841520D01*
X136356123Y-128831071D01*
X136235646Y-128652121D01*
X136229666Y-128643238D01*
X136205087Y-128617472D01*
X136127814Y-128536470D01*
X136064674Y-128470282D01*
X136056085Y-128463892D01*
X136056081Y-128463888D01*
X135912479Y-128357046D01*
X135872900Y-128327598D01*
X135751517Y-128265884D01*
X135669384Y-128224125D01*
X135669379Y-128224123D01*
X135659828Y-128219267D01*
X135649594Y-128216089D01*
X135649591Y-128216088D01*
X135441784Y-128151562D01*
X135441780Y-128151561D01*
X135431548Y-128148384D01*
X135194589Y-128116977D01*
X134955726Y-128125945D01*
X134799936Y-128158633D01*
X134732278Y-128172829D01*
X134732276Y-128172830D01*
X134721789Y-128175030D01*
X134670758Y-128195183D01*
X134509435Y-128258892D01*
X134509431Y-128258894D01*
X134499467Y-128262829D01*
X134295117Y-128386832D01*
X134287018Y-128393860D01*
X134166119Y-128498771D01*
X134114581Y-128543493D01*
X133963022Y-128728333D01*
X133957722Y-128737644D01*
X133908718Y-128823732D01*
X133844773Y-128936066D01*
X133841117Y-128946137D01*
X133841117Y-128946138D01*
X133786559Y-129096445D01*
X133763216Y-129160753D01*
X133745060Y-129261156D01*
X133728459Y-129352964D01*
X133720682Y-129395969D01*
X133719500Y-129421032D01*
X133719500Y-131389012D01*
X131456500Y-131389012D01*
X131456500Y-129468988D01*
X131452431Y-129421032D01*
X131442289Y-129301499D01*
X131442288Y-129301495D01*
X131441383Y-129290825D01*
X131405010Y-129150685D01*
X131384025Y-129069834D01*
X131384023Y-129069829D01*
X131381332Y-129059460D01*
X131376933Y-129049694D01*
X131376931Y-129049689D01*
X131287555Y-128851284D01*
X131283157Y-128841520D01*
X131276123Y-128831071D01*
X131155646Y-128652121D01*
X131149666Y-128643238D01*
X131125087Y-128617472D01*
X131047814Y-128536470D01*
X130984674Y-128470282D01*
X130976085Y-128463892D01*
X130976081Y-128463888D01*
X130832479Y-128357046D01*
X130792900Y-128327598D01*
X130671517Y-128265884D01*
X130589384Y-128224125D01*
X130589379Y-128224123D01*
X130579828Y-128219267D01*
X130569594Y-128216089D01*
X130569591Y-128216088D01*
X130361784Y-128151562D01*
X130361780Y-128151561D01*
X130351548Y-128148384D01*
X130114589Y-128116977D01*
X129875726Y-128125945D01*
X129719936Y-128158633D01*
X129652278Y-128172829D01*
X129652276Y-128172830D01*
X129641789Y-128175030D01*
X129590758Y-128195183D01*
X129429435Y-128258892D01*
X129429431Y-128258894D01*
X129419467Y-128262829D01*
X129215117Y-128386832D01*
X129207018Y-128393860D01*
X129086119Y-128498771D01*
X129034581Y-128543493D01*
X128883022Y-128728333D01*
X128877722Y-128737644D01*
X128828718Y-128823732D01*
X128764773Y-128936066D01*
X128761117Y-128946137D01*
X128761117Y-128946138D01*
X128706559Y-129096445D01*
X128683216Y-129160753D01*
X128665060Y-129261156D01*
X128648459Y-129352964D01*
X128640682Y-129395969D01*
X128639500Y-129421032D01*
X128639500Y-131389012D01*
X126376500Y-131389012D01*
X126376500Y-129468988D01*
X126372431Y-129421032D01*
X126362289Y-129301499D01*
X126362288Y-129301495D01*
X126361383Y-129290825D01*
X126325010Y-129150685D01*
X126304025Y-129069834D01*
X126304023Y-129069829D01*
X126301332Y-129059460D01*
X126296933Y-129049694D01*
X126296931Y-129049689D01*
X126207555Y-128851284D01*
X126203157Y-128841520D01*
X126196123Y-128831071D01*
X126075646Y-128652121D01*
X126069666Y-128643238D01*
X126045087Y-128617472D01*
X125967814Y-128536470D01*
X125904674Y-128470282D01*
X125896085Y-128463892D01*
X125896081Y-128463888D01*
X125752479Y-128357046D01*
X125712900Y-128327598D01*
X125591517Y-128265884D01*
X125509384Y-128224125D01*
X125509379Y-128224123D01*
X125499828Y-128219267D01*
X125489594Y-128216089D01*
X125489591Y-128216088D01*
X125281784Y-128151562D01*
X125281780Y-128151561D01*
X125271548Y-128148384D01*
X125034589Y-128116977D01*
X124795726Y-128125945D01*
X124639936Y-128158633D01*
X124572278Y-128172829D01*
X124572276Y-128172830D01*
X124561789Y-128175030D01*
X124510758Y-128195183D01*
X124349435Y-128258892D01*
X124349431Y-128258894D01*
X124339467Y-128262829D01*
X124135117Y-128386832D01*
X124127018Y-128393860D01*
X124006119Y-128498771D01*
X123954581Y-128543493D01*
X123803022Y-128728333D01*
X123797722Y-128737644D01*
X123748718Y-128823732D01*
X123684773Y-128936066D01*
X123681117Y-128946137D01*
X123681117Y-128946138D01*
X123626559Y-129096445D01*
X123603216Y-129160753D01*
X123585060Y-129261156D01*
X123568459Y-129352964D01*
X123560682Y-129395969D01*
X123559500Y-129421032D01*
X123559500Y-131389012D01*
X121296500Y-131389012D01*
X121296500Y-129468988D01*
X121292431Y-129421032D01*
X121282289Y-129301499D01*
X121282288Y-129301495D01*
X121281383Y-129290825D01*
X121245010Y-129150685D01*
X121224025Y-129069834D01*
X121224023Y-129069829D01*
X121221332Y-129059460D01*
X121216933Y-129049694D01*
X121216931Y-129049689D01*
X121127555Y-128851284D01*
X121123157Y-128841520D01*
X121116123Y-128831071D01*
X120995646Y-128652121D01*
X120989666Y-128643238D01*
X120965087Y-128617472D01*
X120887814Y-128536470D01*
X120824674Y-128470282D01*
X120816085Y-128463892D01*
X120816081Y-128463888D01*
X120672479Y-128357046D01*
X120632900Y-128327598D01*
X120511517Y-128265884D01*
X120429384Y-128224125D01*
X120429379Y-128224123D01*
X120419828Y-128219267D01*
X120409594Y-128216089D01*
X120409591Y-128216088D01*
X120201784Y-128151562D01*
X120201780Y-128151561D01*
X120191548Y-128148384D01*
X119954589Y-128116977D01*
X119715726Y-128125945D01*
X119559936Y-128158633D01*
X119492278Y-128172829D01*
X119492276Y-128172830D01*
X119481789Y-128175030D01*
X119430758Y-128195183D01*
X119269435Y-128258892D01*
X119269431Y-128258894D01*
X119259467Y-128262829D01*
X119055117Y-128386832D01*
X119047018Y-128393860D01*
X118926119Y-128498771D01*
X118874581Y-128543493D01*
X118723022Y-128728333D01*
X118717722Y-128737644D01*
X118668718Y-128823732D01*
X118604773Y-128936066D01*
X118601117Y-128946137D01*
X118601117Y-128946138D01*
X118546559Y-129096445D01*
X118523216Y-129160753D01*
X118505060Y-129261156D01*
X118488459Y-129352964D01*
X118480682Y-129395969D01*
X118479500Y-129421032D01*
X118479500Y-131389012D01*
X116216500Y-131389012D01*
X116216500Y-129468988D01*
X116212431Y-129421032D01*
X116202289Y-129301499D01*
X116202288Y-129301495D01*
X116201383Y-129290825D01*
X116165010Y-129150685D01*
X116144025Y-129069834D01*
X116144023Y-129069829D01*
X116141332Y-129059460D01*
X116136933Y-129049694D01*
X116136931Y-129049689D01*
X116047555Y-128851284D01*
X116043157Y-128841520D01*
X116036123Y-128831071D01*
X115915646Y-128652121D01*
X115909666Y-128643238D01*
X115885087Y-128617472D01*
X115807814Y-128536470D01*
X115744674Y-128470282D01*
X115736085Y-128463892D01*
X115736081Y-128463888D01*
X115592479Y-128357046D01*
X115552900Y-128327598D01*
X115431517Y-128265884D01*
X115349384Y-128224125D01*
X115349379Y-128224123D01*
X115339828Y-128219267D01*
X115329594Y-128216089D01*
X115329591Y-128216088D01*
X115121784Y-128151562D01*
X115121780Y-128151561D01*
X115111548Y-128148384D01*
X114874589Y-128116977D01*
X114635726Y-128125945D01*
X114479936Y-128158633D01*
X114412278Y-128172829D01*
X114412276Y-128172830D01*
X114401789Y-128175030D01*
X114350758Y-128195183D01*
X114189435Y-128258892D01*
X114189431Y-128258894D01*
X114179467Y-128262829D01*
X113975117Y-128386832D01*
X113967018Y-128393860D01*
X113846119Y-128498771D01*
X113794581Y-128543493D01*
X113643022Y-128728333D01*
X113637722Y-128737644D01*
X113588718Y-128823732D01*
X113524773Y-128936066D01*
X113521117Y-128946137D01*
X113521117Y-128946138D01*
X113466559Y-129096445D01*
X113443216Y-129160753D01*
X113425060Y-129261156D01*
X113408459Y-129352964D01*
X113400682Y-129395969D01*
X113399500Y-129421032D01*
X113399500Y-131389012D01*
X111136500Y-131389012D01*
X111136500Y-128828600D01*
X111135304Y-128817069D01*
X111126955Y-128736604D01*
X111126954Y-128736602D01*
X111125526Y-128722834D01*
X111078336Y-128581388D01*
X111074201Y-128568994D01*
X111074200Y-128568992D01*
X111069550Y-128555054D01*
X110976478Y-128404652D01*
X110851303Y-128279695D01*
X110700738Y-128186885D01*
X110559051Y-128139890D01*
X110545973Y-128135552D01*
X110532861Y-128131203D01*
X110428400Y-128120500D01*
X109027600Y-128120500D01*
X109021095Y-128121175D01*
X109021094Y-128121175D01*
X108935604Y-128130045D01*
X108935602Y-128130046D01*
X108921834Y-128131474D01*
X108908702Y-128135855D01*
X108908703Y-128135855D01*
X108767994Y-128182799D01*
X108767992Y-128182800D01*
X108754054Y-128187450D01*
X108741558Y-128195183D01*
X108627307Y-128265884D01*
X108603652Y-128280522D01*
X108593270Y-128290923D01*
X108593269Y-128290923D01*
X108556658Y-128327598D01*
X108478695Y-128405697D01*
X108385885Y-128556262D01*
X108330203Y-128724139D01*
X108319500Y-128828600D01*
X108319500Y-132029400D01*
X103083324Y-132029400D01*
X103201343Y-131987607D01*
X103328583Y-131921934D01*
X103449157Y-131859701D01*
X103456812Y-131855750D01*
X103692023Y-131690441D01*
X103902622Y-131494740D01*
X103911040Y-131484456D01*
X104079259Y-131278931D01*
X104084713Y-131272268D01*
X104089206Y-131264936D01*
X104089211Y-131264929D01*
X104230426Y-131034487D01*
X104234927Y-131027142D01*
X104350483Y-130763898D01*
X104429244Y-130487406D01*
X104469751Y-130202784D01*
X104471257Y-129915297D01*
X104433732Y-129630266D01*
X104425540Y-129600319D01*
X104399534Y-129505260D01*
X104357871Y-129352964D01*
X104287223Y-129187334D01*
X104248456Y-129096445D01*
X104248454Y-129096440D01*
X104245077Y-129088524D01*
X104221835Y-129049689D01*
X104101860Y-128849225D01*
X104101856Y-128849219D01*
X104097439Y-128841839D01*
X104088813Y-128831071D01*
X103923074Y-128624196D01*
X103917687Y-128617472D01*
X103911447Y-128611550D01*
X103911441Y-128611544D01*
X103784196Y-128490794D01*
X103709149Y-128419577D01*
X103682746Y-128400604D01*
X103532345Y-128292530D01*
X103475683Y-128251814D01*
X103468081Y-128247789D01*
X103468073Y-128247784D01*
X103229216Y-128121316D01*
X103229213Y-128121315D01*
X103221608Y-128117288D01*
X103213527Y-128114331D01*
X103213523Y-128114329D01*
X103057672Y-128057296D01*
X102951627Y-128018489D01*
X102943215Y-128016655D01*
X102943212Y-128016654D01*
X102679154Y-127959080D01*
X102679148Y-127959079D01*
X102670736Y-127957245D01*
X102503556Y-127944088D01*
X102450218Y-127939890D01*
X102450215Y-127939890D01*
X102445261Y-127939500D01*
X102289729Y-127939500D01*
X102285449Y-127939792D01*
X102285443Y-127939792D01*
X102174968Y-127947324D01*
X102075175Y-127954127D01*
X102066735Y-127955875D01*
X102066734Y-127955875D01*
X102051258Y-127959080D01*
X101793658Y-128012426D01*
X101522657Y-128108393D01*
X101514999Y-128112346D01*
X101514998Y-128112346D01*
X101445176Y-128148384D01*
X101267188Y-128240250D01*
X101260142Y-128245202D01*
X101046583Y-128395294D01*
X101031977Y-128405559D01*
X100821378Y-128601260D01*
X100815923Y-128607925D01*
X100815919Y-128607929D01*
X100731535Y-128711027D01*
X100639287Y-128823732D01*
X100634794Y-128831064D01*
X100634789Y-128831071D01*
X100504151Y-129044253D01*
X100489073Y-129068858D01*
X100485613Y-129076741D01*
X100485610Y-129076746D01*
X100376978Y-129324217D01*
X100373517Y-129332102D01*
X100371158Y-129340382D01*
X100371158Y-129340383D01*
X100299530Y-129591836D01*
X100294756Y-129608594D01*
X100254249Y-129893216D01*
X100252743Y-130180703D01*
X99060500Y-130180703D01*
X99060500Y-105121526D01*
X107813050Y-105121526D01*
X107825947Y-105390019D01*
X107827777Y-105399219D01*
X107862049Y-105571513D01*
X107878388Y-105653656D01*
X107969220Y-105906646D01*
X108096450Y-106143431D01*
X108257281Y-106358810D01*
X108448180Y-106548050D01*
X108455748Y-106553599D01*
X108657384Y-106701445D01*
X108657389Y-106701448D01*
X108664954Y-106706995D01*
X108673262Y-106711366D01*
X108673265Y-106711368D01*
X108894530Y-106827782D01*
X108902840Y-106832154D01*
X109156613Y-106920775D01*
X109420698Y-106970913D01*
X109430079Y-106971282D01*
X109430083Y-106971282D01*
X109546428Y-106975853D01*
X109689293Y-106981466D01*
X109956497Y-106952203D01*
X109965562Y-106949816D01*
X109965564Y-106949816D01*
X110207372Y-106886153D01*
X110207376Y-106886152D01*
X110216441Y-106883765D01*
X110463414Y-106777657D01*
X110691990Y-106636210D01*
X110897149Y-106462530D01*
X110988109Y-106358810D01*
X111068190Y-106267495D01*
X111068192Y-106267492D01*
X111074382Y-106260434D01*
X111154963Y-106135157D01*
X111214720Y-106042255D01*
X111214723Y-106042249D01*
X111219797Y-106034361D01*
X111330199Y-105789278D01*
X111403163Y-105530568D01*
X111437086Y-105263915D01*
X111439571Y-105169000D01*
X111419650Y-104900937D01*
X111371190Y-104686770D01*
X111362397Y-104647910D01*
X111362396Y-104647907D01*
X111360327Y-104638763D01*
X111308308Y-104504998D01*
X111266304Y-104396985D01*
X111266302Y-104396980D01*
X111262902Y-104388238D01*
X111248159Y-104362442D01*
X111134178Y-104163017D01*
X111134177Y-104163015D01*
X111129518Y-104154864D01*
X110963105Y-103943769D01*
X110919700Y-103902938D01*
X110774156Y-103766024D01*
X110774153Y-103766021D01*
X110767317Y-103759591D01*
X110546457Y-103606374D01*
X110509134Y-103587968D01*
X110313793Y-103491637D01*
X110305376Y-103487486D01*
X110141725Y-103435101D01*
X110058318Y-103408402D01*
X110058315Y-103408401D01*
X110049370Y-103405538D01*
X109929114Y-103385953D01*
X109793324Y-103363838D01*
X109793321Y-103363838D01*
X109784063Y-103362330D01*
X109774681Y-103362207D01*
X109774679Y-103362207D01*
X109627615Y-103360282D01*
X109515284Y-103358812D01*
X109248937Y-103395060D01*
X108990874Y-103470278D01*
X108982356Y-103474205D01*
X108982353Y-103474206D01*
X108938534Y-103494407D01*
X108746763Y-103582815D01*
X108521968Y-103730197D01*
X108321426Y-103909188D01*
X108315427Y-103916401D01*
X108315426Y-103916402D01*
X108226168Y-104023724D01*
X108149544Y-104115854D01*
X108144672Y-104123883D01*
X108144669Y-104123887D01*
X108014969Y-104337625D01*
X108010096Y-104345656D01*
X107958463Y-104468788D01*
X107914988Y-104572465D01*
X107906148Y-104593545D01*
X107839981Y-104854077D01*
X107839040Y-104863420D01*
X107839040Y-104863421D01*
X107813990Y-105112190D01*
X107813050Y-105121526D01*
X99060500Y-105121526D01*
X99060500Y-102679967D01*
X105318905Y-102679967D01*
X105320558Y-102682440D01*
X105328761Y-102688599D01*
X105522604Y-102795166D01*
X105536989Y-102801935D01*
X105822863Y-102915121D01*
X105837953Y-102920024D01*
X106135780Y-102996493D01*
X106151364Y-102999465D01*
X106456418Y-103038003D01*
X106472264Y-103039000D01*
X106779736Y-103039000D01*
X106795582Y-103038003D01*
X107100636Y-102999465D01*
X107116220Y-102996493D01*
X107414047Y-102920024D01*
X107429137Y-102915121D01*
X107715011Y-102801935D01*
X107729396Y-102795166D01*
X107917106Y-102691971D01*
X107933326Y-102678336D01*
X107932428Y-102675497D01*
X107926272Y-102667298D01*
X107076108Y-101817134D01*
X110817500Y-101817134D01*
X110824255Y-101879316D01*
X110875385Y-102015705D01*
X110886193Y-102030126D01*
X110886194Y-102030128D01*
X110920104Y-102075374D01*
X110962739Y-102132261D01*
X110977160Y-102143069D01*
X111064872Y-102208806D01*
X111064874Y-102208807D01*
X111079295Y-102219615D01*
X111096172Y-102225942D01*
X111096174Y-102225943D01*
X111147396Y-102245145D01*
X111215684Y-102270745D01*
X111231455Y-102272458D01*
X111231458Y-102272459D01*
X111271050Y-102276760D01*
X111271058Y-102276760D01*
X111277866Y-102277500D01*
X113974134Y-102277500D01*
X113980942Y-102276760D01*
X113980950Y-102276760D01*
X114020542Y-102272459D01*
X114020545Y-102272458D01*
X114036316Y-102270745D01*
X114104604Y-102245145D01*
X114155826Y-102225943D01*
X114155828Y-102225942D01*
X114172705Y-102219615D01*
X114187126Y-102208807D01*
X114187128Y-102208806D01*
X114274840Y-102143069D01*
X114289261Y-102132261D01*
X114331896Y-102075374D01*
X114339157Y-102065686D01*
X140273615Y-102065686D01*
X140292132Y-102360012D01*
X140294119Y-102375742D01*
X140349380Y-102665426D01*
X140353327Y-102680800D01*
X140444452Y-102961253D01*
X140450297Y-102976017D01*
X140575858Y-103242845D01*
X140583504Y-103256754D01*
X140596346Y-103276989D01*
X140610975Y-103292324D01*
X140617555Y-103289779D01*
X140619544Y-103288185D01*
X141832355Y-102075374D01*
X141844128Y-102057755D01*
X141832355Y-102040136D01*
X140627318Y-100835099D01*
X140609699Y-100823326D01*
X140603833Y-100827246D01*
X140602239Y-100829235D01*
X140583504Y-100858756D01*
X140575858Y-100872665D01*
X140450297Y-101139493D01*
X140444452Y-101154257D01*
X140353327Y-101434710D01*
X140349380Y-101450084D01*
X140294119Y-101739768D01*
X140292132Y-101755498D01*
X140273615Y-102049824D01*
X140273615Y-102065686D01*
X114339157Y-102065686D01*
X114365806Y-102030128D01*
X114365807Y-102030126D01*
X114376615Y-102015705D01*
X114427745Y-101879316D01*
X114434500Y-101817134D01*
X114434500Y-99922053D01*
X141514308Y-99922053D01*
X141515206Y-99924892D01*
X141521362Y-99933091D01*
X142730381Y-101142110D01*
X142748000Y-101153883D01*
X142765619Y-101142110D01*
X143969688Y-99938041D01*
X143981461Y-99920422D01*
X143979808Y-99917949D01*
X143971605Y-99911790D01*
X143808734Y-99822250D01*
X143794349Y-99815481D01*
X143520174Y-99706927D01*
X143505084Y-99702024D01*
X143219439Y-99628683D01*
X143203865Y-99625712D01*
X142911292Y-99588752D01*
X142895444Y-99587755D01*
X142600556Y-99587755D01*
X142584708Y-99588752D01*
X142292135Y-99625712D01*
X142276561Y-99628683D01*
X141990916Y-99702024D01*
X141975826Y-99706927D01*
X141701651Y-99815481D01*
X141687266Y-99822250D01*
X141530528Y-99908418D01*
X141514308Y-99922053D01*
X114434500Y-99922053D01*
X114434500Y-99120866D01*
X114427745Y-99058684D01*
X114388145Y-98953050D01*
X114382943Y-98939174D01*
X114382942Y-98939172D01*
X114376615Y-98922295D01*
X114343428Y-98878013D01*
X114300069Y-98820160D01*
X114289261Y-98805739D01*
X114215579Y-98750517D01*
X114187128Y-98729194D01*
X114187126Y-98729193D01*
X114172705Y-98718385D01*
X114155828Y-98712058D01*
X114155826Y-98712057D01*
X114104604Y-98692855D01*
X114036316Y-98667255D01*
X114020545Y-98665542D01*
X114020542Y-98665541D01*
X113980950Y-98661240D01*
X113980942Y-98661240D01*
X113974134Y-98660500D01*
X111277866Y-98660500D01*
X111271058Y-98661240D01*
X111271050Y-98661240D01*
X111231458Y-98665541D01*
X111231455Y-98665542D01*
X111215684Y-98667255D01*
X111147396Y-98692855D01*
X111096174Y-98712057D01*
X111096172Y-98712058D01*
X111079295Y-98718385D01*
X111064874Y-98729193D01*
X111064872Y-98729194D01*
X111036421Y-98750517D01*
X110962739Y-98805739D01*
X110951931Y-98820160D01*
X110908573Y-98878013D01*
X110875385Y-98922295D01*
X110869058Y-98939172D01*
X110869057Y-98939174D01*
X110863855Y-98953050D01*
X110824255Y-99058684D01*
X110817500Y-99120866D01*
X110817500Y-101817134D01*
X107076108Y-101817134D01*
X106643619Y-101384645D01*
X106626000Y-101372872D01*
X106608381Y-101384645D01*
X105330678Y-102662348D01*
X105318905Y-102679967D01*
X99060500Y-102679967D01*
X99060500Y-100476931D01*
X104051418Y-100476931D01*
X104070725Y-100783815D01*
X104072712Y-100799545D01*
X104130331Y-101101589D01*
X104134278Y-101116963D01*
X104229290Y-101409379D01*
X104235140Y-101424154D01*
X104366055Y-101702364D01*
X104373697Y-101716264D01*
X104401891Y-101760691D01*
X104416518Y-101776025D01*
X104423100Y-101773478D01*
X104425088Y-101771886D01*
X105710355Y-100486619D01*
X105722128Y-100469000D01*
X107529872Y-100469000D01*
X107541645Y-100486619D01*
X108819138Y-101764112D01*
X108836757Y-101775885D01*
X108842623Y-101771965D01*
X108844217Y-101769976D01*
X108878303Y-101716264D01*
X108885945Y-101702364D01*
X109016860Y-101424154D01*
X109022710Y-101409379D01*
X109117722Y-101116963D01*
X109121669Y-101101589D01*
X109179288Y-100799545D01*
X109181275Y-100783815D01*
X109200582Y-100476931D01*
X109200582Y-100461069D01*
X109181275Y-100154185D01*
X109179288Y-100138455D01*
X109121669Y-99836411D01*
X109117722Y-99821037D01*
X109022710Y-99528621D01*
X109016860Y-99513846D01*
X108885945Y-99235636D01*
X108878303Y-99221736D01*
X108850109Y-99177309D01*
X108835482Y-99161975D01*
X108828900Y-99164522D01*
X108826912Y-99166114D01*
X107541645Y-100451381D01*
X107529872Y-100469000D01*
X105722128Y-100469000D01*
X105710355Y-100451381D01*
X104432862Y-99173888D01*
X104415243Y-99162115D01*
X104409377Y-99166035D01*
X104407783Y-99168024D01*
X104373697Y-99221736D01*
X104366055Y-99235636D01*
X104235140Y-99513846D01*
X104229290Y-99528621D01*
X104134278Y-99821037D01*
X104130331Y-99836411D01*
X104072712Y-100138455D01*
X104070725Y-100154185D01*
X104051418Y-100461069D01*
X104051418Y-100476931D01*
X99060500Y-100476931D01*
X99060500Y-98259664D01*
X105318674Y-98259664D01*
X105319572Y-98262503D01*
X105325728Y-98270702D01*
X106608381Y-99553355D01*
X106626000Y-99565128D01*
X106643619Y-99553355D01*
X107921322Y-98275652D01*
X107933095Y-98258033D01*
X107931442Y-98255560D01*
X107923239Y-98249401D01*
X107729396Y-98142834D01*
X107715011Y-98136065D01*
X107429137Y-98022879D01*
X107414047Y-98017976D01*
X107116220Y-97941507D01*
X107100636Y-97938535D01*
X106795582Y-97899997D01*
X106779736Y-97899000D01*
X106472264Y-97899000D01*
X106456418Y-97899997D01*
X106151364Y-97938535D01*
X106135780Y-97941507D01*
X105837953Y-98017976D01*
X105822863Y-98022879D01*
X105536989Y-98136065D01*
X105522604Y-98142834D01*
X105334894Y-98246029D01*
X105318674Y-98259664D01*
X99060500Y-98259664D01*
X99060500Y-91473925D01*
X103693645Y-91473925D01*
X103694766Y-91486243D01*
X103694766Y-91486248D01*
X103700175Y-91545679D01*
X103711570Y-91670888D01*
X103767410Y-91860619D01*
X103773144Y-91871587D01*
X103773146Y-91871592D01*
X103813487Y-91948756D01*
X103859040Y-92035890D01*
X103866796Y-92045537D01*
X103866797Y-92045538D01*
X103975211Y-92180378D01*
X103975214Y-92180381D01*
X103982968Y-92190025D01*
X104134474Y-92317154D01*
X104307787Y-92412433D01*
X104379797Y-92435276D01*
X104484515Y-92468495D01*
X104484518Y-92468496D01*
X104496306Y-92472235D01*
X104508600Y-92473614D01*
X104643208Y-92488713D01*
X104643213Y-92488713D01*
X104650227Y-92489500D01*
X104756769Y-92489500D01*
X104903833Y-92475080D01*
X104915670Y-92471506D01*
X104915676Y-92471505D01*
X105081326Y-92421492D01*
X105081329Y-92421491D01*
X105093169Y-92417916D01*
X105267796Y-92325066D01*
X105421062Y-92200065D01*
X105547130Y-92047675D01*
X105641198Y-91873701D01*
X105699682Y-91684768D01*
X105720355Y-91488075D01*
X105719068Y-91473925D01*
X105703551Y-91303435D01*
X105702430Y-91291112D01*
X105646590Y-91101381D01*
X105640856Y-91090413D01*
X105640854Y-91090408D01*
X105560696Y-90937081D01*
X105560694Y-90937077D01*
X105554960Y-90926110D01*
X105537820Y-90904792D01*
X105438789Y-90781622D01*
X105438786Y-90781619D01*
X105431032Y-90771975D01*
X105279526Y-90644846D01*
X105106213Y-90549567D01*
X105034203Y-90526724D01*
X104929485Y-90493505D01*
X104929482Y-90493504D01*
X104917694Y-90489765D01*
X104905400Y-90488386D01*
X104770792Y-90473287D01*
X104770787Y-90473287D01*
X104763773Y-90472500D01*
X104657231Y-90472500D01*
X104510167Y-90486920D01*
X104498330Y-90490494D01*
X104498324Y-90490495D01*
X104332674Y-90540508D01*
X104332671Y-90540509D01*
X104320831Y-90544084D01*
X104146204Y-90636934D01*
X103992938Y-90761935D01*
X103866870Y-90914325D01*
X103772802Y-91088299D01*
X103714318Y-91277232D01*
X103693645Y-91473925D01*
X99060500Y-91473925D01*
X99060500Y-88139000D01*
X107182500Y-88139000D01*
X107183224Y-88145731D01*
X107183224Y-88145738D01*
X107188957Y-88199065D01*
X107194234Y-88248149D01*
X107205620Y-88300491D01*
X107240290Y-88404657D01*
X107248846Y-88417970D01*
X107314422Y-88520010D01*
X107314426Y-88520015D01*
X107319308Y-88527612D01*
X107365801Y-88581268D01*
X107476261Y-88676982D01*
X107492718Y-88684498D01*
X107492720Y-88684499D01*
X107546232Y-88708937D01*
X107609210Y-88737698D01*
X107617875Y-88740242D01*
X107617877Y-88740243D01*
X107634155Y-88745022D01*
X107677331Y-88757700D01*
X107822000Y-88778500D01*
X111888000Y-88778500D01*
X111894731Y-88777776D01*
X111894738Y-88777776D01*
X111948065Y-88772043D01*
X111997149Y-88766766D01*
X112049491Y-88755380D01*
X112055911Y-88753243D01*
X112055919Y-88753241D01*
X112138644Y-88725707D01*
X112138645Y-88725706D01*
X112153657Y-88720710D01*
X112210003Y-88684499D01*
X112269010Y-88646578D01*
X112269015Y-88646574D01*
X112276612Y-88641692D01*
X112330268Y-88595199D01*
X112425982Y-88484739D01*
X112456475Y-88417970D01*
X112462554Y-88404657D01*
X112486698Y-88351790D01*
X112506700Y-88283669D01*
X112527500Y-88139000D01*
X112527500Y-77723000D01*
X112526540Y-77714063D01*
X112516489Y-77620579D01*
X112515766Y-77613851D01*
X112504380Y-77561509D01*
X112469710Y-77457343D01*
X112409457Y-77363587D01*
X112395578Y-77341990D01*
X112395574Y-77341985D01*
X112390692Y-77334388D01*
X112344199Y-77280732D01*
X112233739Y-77185018D01*
X112217282Y-77177502D01*
X112217280Y-77177501D01*
X112137988Y-77141290D01*
X112100790Y-77124302D01*
X112092125Y-77121758D01*
X112092123Y-77121757D01*
X112075845Y-77116978D01*
X112032669Y-77104300D01*
X111888000Y-77083500D01*
X107822000Y-77083500D01*
X107815269Y-77084224D01*
X107815262Y-77084224D01*
X107761935Y-77089957D01*
X107712851Y-77095234D01*
X107660509Y-77106620D01*
X107654089Y-77108757D01*
X107654081Y-77108759D01*
X107571356Y-77136293D01*
X107556343Y-77141290D01*
X107543030Y-77149846D01*
X107440990Y-77215422D01*
X107440985Y-77215426D01*
X107433388Y-77220308D01*
X107379732Y-77266801D01*
X107284018Y-77377261D01*
X107276502Y-77393718D01*
X107276501Y-77393720D01*
X107252063Y-77447232D01*
X107223302Y-77510210D01*
X107203300Y-77578331D01*
X107182500Y-77723000D01*
X107182500Y-88139000D01*
X99060500Y-88139000D01*
X99060500Y-87073925D01*
X103693645Y-87073925D01*
X103694766Y-87086243D01*
X103694766Y-87086248D01*
X103702608Y-87172407D01*
X103711570Y-87270888D01*
X103767410Y-87460619D01*
X103773144Y-87471587D01*
X103773146Y-87471592D01*
X103774249Y-87473701D01*
X103859040Y-87635890D01*
X103866796Y-87645537D01*
X103866797Y-87645538D01*
X103975211Y-87780378D01*
X103975214Y-87780381D01*
X103982968Y-87790025D01*
X104134474Y-87917154D01*
X104307787Y-88012433D01*
X104379797Y-88035276D01*
X104484515Y-88068495D01*
X104484518Y-88068496D01*
X104496306Y-88072235D01*
X104508600Y-88073614D01*
X104643208Y-88088713D01*
X104643213Y-88088713D01*
X104650227Y-88089500D01*
X104756769Y-88089500D01*
X104903833Y-88075080D01*
X104915670Y-88071506D01*
X104915676Y-88071505D01*
X105081326Y-88021492D01*
X105081329Y-88021491D01*
X105093169Y-88017916D01*
X105267796Y-87925066D01*
X105421062Y-87800065D01*
X105547130Y-87647675D01*
X105641198Y-87473701D01*
X105699682Y-87284768D01*
X105720355Y-87088075D01*
X105719068Y-87073925D01*
X105703551Y-86903435D01*
X105702430Y-86891112D01*
X105646590Y-86701381D01*
X105640856Y-86690413D01*
X105640854Y-86690408D01*
X105560696Y-86537081D01*
X105560694Y-86537077D01*
X105554960Y-86526110D01*
X105537820Y-86504792D01*
X105438789Y-86381622D01*
X105438786Y-86381619D01*
X105431032Y-86371975D01*
X105279526Y-86244846D01*
X105106213Y-86149567D01*
X105034203Y-86126724D01*
X104929485Y-86093505D01*
X104929482Y-86093504D01*
X104917694Y-86089765D01*
X104905400Y-86088386D01*
X104770792Y-86073287D01*
X104770787Y-86073287D01*
X104763773Y-86072500D01*
X104657231Y-86072500D01*
X104510167Y-86086920D01*
X104498330Y-86090494D01*
X104498324Y-86090495D01*
X104332674Y-86140508D01*
X104332671Y-86140509D01*
X104320831Y-86144084D01*
X104146204Y-86236934D01*
X103992938Y-86361935D01*
X103866870Y-86514325D01*
X103772802Y-86688299D01*
X103714318Y-86877232D01*
X103693645Y-87073925D01*
X99060500Y-87073925D01*
X99060500Y-73914000D01*
X112243496Y-73914000D01*
X112263458Y-74103928D01*
X112322473Y-74285556D01*
X112417960Y-74450944D01*
X112545747Y-74592866D01*
X112700248Y-74705118D01*
X112874712Y-74782794D01*
X112984215Y-74806070D01*
X113048541Y-74819743D01*
X113048544Y-74819743D01*
X113061513Y-74822500D01*
X113252487Y-74822500D01*
X113265456Y-74819743D01*
X113265459Y-74819743D01*
X113329785Y-74806070D01*
X113439288Y-74782794D01*
X113613752Y-74705118D01*
X113768253Y-74592866D01*
X113896040Y-74450944D01*
X113991527Y-74285556D01*
X114050542Y-74103928D01*
X114063206Y-73983434D01*
X114092479Y-73889159D01*
X114135922Y-73830982D01*
X114361303Y-73605602D01*
X114443383Y-73550758D01*
X114540201Y-73531500D01*
X117019884Y-73531500D01*
X117025174Y-73531750D01*
X117033909Y-73533702D01*
X117049816Y-73533202D01*
X117049817Y-73533202D01*
X117099982Y-73531625D01*
X117107931Y-73531500D01*
X117133856Y-73531500D01*
X117141737Y-73530505D01*
X117143876Y-73530370D01*
X117151807Y-73529996D01*
X117193889Y-73528673D01*
X117209167Y-73524234D01*
X117218477Y-73522760D01*
X117227885Y-73520811D01*
X117237006Y-73518469D01*
X117252797Y-73516474D01*
X117267596Y-73510614D01*
X117267598Y-73510614D01*
X117288337Y-73502403D01*
X117310890Y-73494681D01*
X117312952Y-73494082D01*
X117347593Y-73484018D01*
X117361296Y-73475914D01*
X117369943Y-73472172D01*
X117378544Y-73467959D01*
X117386813Y-73463413D01*
X117401617Y-73457552D01*
X117432546Y-73435081D01*
X117452457Y-73422002D01*
X117471663Y-73410644D01*
X117471665Y-73410643D01*
X117485362Y-73402542D01*
X117496618Y-73391286D01*
X117504059Y-73385514D01*
X117511357Y-73379281D01*
X117518226Y-73372831D01*
X117531107Y-73363472D01*
X117555471Y-73334020D01*
X117571513Y-73316391D01*
X118023303Y-72864602D01*
X118105382Y-72809758D01*
X118179372Y-72795041D01*
X118179040Y-72791886D01*
X118192227Y-72790500D01*
X118205487Y-72790500D01*
X118218456Y-72787743D01*
X118218459Y-72787743D01*
X118287634Y-72773039D01*
X118392288Y-72750794D01*
X118566752Y-72673118D01*
X118721253Y-72560866D01*
X118849040Y-72418944D01*
X118858138Y-72403187D01*
X118929533Y-72279526D01*
X118944527Y-72253556D01*
X118961905Y-72200072D01*
X118999446Y-72084535D01*
X118999447Y-72084532D01*
X119003542Y-72071928D01*
X119007568Y-72033628D01*
X119022118Y-71895187D01*
X119023504Y-71882000D01*
X119019427Y-71843205D01*
X119004928Y-71705256D01*
X119004927Y-71705253D01*
X119003542Y-71692072D01*
X118994163Y-71663205D01*
X118948624Y-71523053D01*
X118944527Y-71510444D01*
X118896784Y-71427750D01*
X118855670Y-71356539D01*
X118855669Y-71356537D01*
X118849040Y-71345056D01*
X118721253Y-71203134D01*
X118566752Y-71090882D01*
X118452736Y-71040119D01*
X118404399Y-71018598D01*
X118404398Y-71018598D01*
X118392288Y-71013206D01*
X118282785Y-70989930D01*
X118218459Y-70976257D01*
X118218456Y-70976257D01*
X118205487Y-70973500D01*
X118014513Y-70973500D01*
X118001544Y-70976257D01*
X118001541Y-70976257D01*
X117937215Y-70989930D01*
X117827712Y-71013206D01*
X117815602Y-71018598D01*
X117815601Y-71018598D01*
X117767264Y-71040119D01*
X117653248Y-71090882D01*
X117498747Y-71203134D01*
X117370960Y-71345056D01*
X117364331Y-71356537D01*
X117364330Y-71356539D01*
X117323216Y-71427750D01*
X117275473Y-71510444D01*
X117271376Y-71523053D01*
X117225838Y-71663205D01*
X117216458Y-71692072D01*
X117215073Y-71705251D01*
X117215072Y-71705255D01*
X117203794Y-71812565D01*
X117174521Y-71906841D01*
X117131078Y-71965018D01*
X116905697Y-72190398D01*
X116823617Y-72245242D01*
X116726799Y-72264500D01*
X114247117Y-72264500D01*
X114241825Y-72264250D01*
X114233091Y-72262298D01*
X114186764Y-72263754D01*
X114167005Y-72264375D01*
X114159057Y-72264500D01*
X114133144Y-72264500D01*
X114125266Y-72265495D01*
X114123151Y-72265628D01*
X114115223Y-72266002D01*
X114103398Y-72266374D01*
X114073111Y-72267326D01*
X114057818Y-72271769D01*
X114048495Y-72273246D01*
X114039148Y-72275181D01*
X114029995Y-72277531D01*
X114014203Y-72279526D01*
X113978654Y-72293600D01*
X113956120Y-72301315D01*
X113919407Y-72311982D01*
X113905705Y-72320086D01*
X113897050Y-72323831D01*
X113888456Y-72328041D01*
X113880187Y-72332587D01*
X113865383Y-72338448D01*
X113834454Y-72360919D01*
X113814543Y-72373998D01*
X113795337Y-72385356D01*
X113795335Y-72385357D01*
X113781638Y-72393458D01*
X113770382Y-72404714D01*
X113762941Y-72410486D01*
X113755643Y-72416719D01*
X113748774Y-72423169D01*
X113735893Y-72432528D01*
X113725745Y-72444795D01*
X113711529Y-72461979D01*
X113695487Y-72479609D01*
X113243697Y-72931398D01*
X113161618Y-72986242D01*
X113087628Y-73000959D01*
X113087960Y-73004114D01*
X113074773Y-73005500D01*
X113061513Y-73005500D01*
X113048544Y-73008257D01*
X113048541Y-73008257D01*
X112984215Y-73021930D01*
X112874712Y-73045206D01*
X112862602Y-73050598D01*
X112862601Y-73050598D01*
X112809744Y-73074131D01*
X112700248Y-73122882D01*
X112545747Y-73235134D01*
X112417960Y-73377056D01*
X112411331Y-73388537D01*
X112411330Y-73388539D01*
X112376888Y-73448194D01*
X112322473Y-73542444D01*
X112318376Y-73555053D01*
X112301952Y-73605602D01*
X112263458Y-73724072D01*
X112243496Y-73914000D01*
X99060500Y-73914000D01*
X99060500Y-69671561D01*
X147615970Y-69671561D01*
X147616960Y-69673042D01*
X147627010Y-69680445D01*
X147799911Y-69771412D01*
X147817090Y-69778882D01*
X148033690Y-69854522D01*
X148051788Y-69859372D01*
X148277193Y-69902166D01*
X148295806Y-69904287D01*
X148525063Y-69913294D01*
X148543782Y-69912641D01*
X148771853Y-69887662D01*
X148790261Y-69884250D01*
X148904021Y-69854300D01*
X149002553Y-69848274D01*
X149033914Y-69854583D01*
X149051785Y-69859371D01*
X149277193Y-69902166D01*
X149295806Y-69904287D01*
X149525063Y-69913294D01*
X149543782Y-69912641D01*
X149771853Y-69887662D01*
X149790261Y-69884250D01*
X149904021Y-69854300D01*
X150002553Y-69848274D01*
X150033914Y-69854583D01*
X150051785Y-69859371D01*
X150277193Y-69902166D01*
X150295806Y-69904287D01*
X150525063Y-69913294D01*
X150543782Y-69912641D01*
X150771853Y-69887662D01*
X150790261Y-69884250D01*
X150904021Y-69854300D01*
X151002553Y-69848274D01*
X151033914Y-69854583D01*
X151051785Y-69859371D01*
X151277193Y-69902166D01*
X151295806Y-69904287D01*
X151525063Y-69913294D01*
X151543782Y-69912641D01*
X151771853Y-69887662D01*
X151790261Y-69884250D01*
X151904021Y-69854300D01*
X152002553Y-69848274D01*
X152033914Y-69854583D01*
X152051785Y-69859371D01*
X152277193Y-69902166D01*
X152295806Y-69904287D01*
X152525063Y-69913294D01*
X152543782Y-69912641D01*
X152771854Y-69887662D01*
X152790263Y-69884250D01*
X153012148Y-69825833D01*
X153029849Y-69819738D01*
X153240653Y-69729170D01*
X153257272Y-69720518D01*
X153318586Y-69682575D01*
X153334086Y-69668122D01*
X153331872Y-69662202D01*
X153329420Y-69659105D01*
X152493619Y-68823304D01*
X152476000Y-68811531D01*
X152458381Y-68823304D01*
X151690417Y-69591268D01*
X151608338Y-69646112D01*
X151511519Y-69665370D01*
X151462162Y-69660509D01*
X151462161Y-69660509D01*
X151391122Y-69660508D01*
X151299921Y-69622731D01*
X151261583Y-69591268D01*
X150993619Y-69323304D01*
X150976000Y-69311531D01*
X150958381Y-69323304D01*
X150690417Y-69591268D01*
X150608338Y-69646112D01*
X150511519Y-69665370D01*
X150462162Y-69660509D01*
X150462161Y-69660509D01*
X150391122Y-69660508D01*
X150299921Y-69622731D01*
X150261583Y-69591268D01*
X149993619Y-69323304D01*
X149976000Y-69311531D01*
X149958381Y-69323304D01*
X149690417Y-69591268D01*
X149608338Y-69646112D01*
X149511519Y-69665370D01*
X149462162Y-69660509D01*
X149462161Y-69660509D01*
X149391122Y-69660508D01*
X149299921Y-69622731D01*
X149261583Y-69591268D01*
X148493619Y-68823304D01*
X148476000Y-68811531D01*
X148458381Y-68823304D01*
X147627743Y-69653942D01*
X147615970Y-69671561D01*
X99060500Y-69671561D01*
X99060500Y-68205532D01*
X146802341Y-68205532D01*
X146813350Y-68434722D01*
X146815630Y-68453295D01*
X146860393Y-68678334D01*
X146865397Y-68696377D01*
X146942929Y-68912321D01*
X146950544Y-68929424D01*
X147033240Y-69083328D01*
X147046720Y-69099681D01*
X147048971Y-69098993D01*
X147058132Y-69092183D01*
X147892696Y-68257619D01*
X147904469Y-68240000D01*
X153047531Y-68240000D01*
X153059304Y-68257619D01*
X153888251Y-69086566D01*
X153905870Y-69098339D01*
X153912066Y-69094199D01*
X153913191Y-69092803D01*
X153942665Y-69046980D01*
X153951594Y-69030534D01*
X154045830Y-68821336D01*
X154052236Y-68803739D01*
X154114514Y-68582914D01*
X154118248Y-68564563D01*
X154147586Y-68333951D01*
X154148554Y-68321291D01*
X154150517Y-68246350D01*
X154150212Y-68233665D01*
X154132984Y-68001832D01*
X154130217Y-67983312D01*
X154087138Y-67792933D01*
X154084554Y-67694251D01*
X154090399Y-67668421D01*
X154114514Y-67582914D01*
X154118248Y-67564563D01*
X154147586Y-67333951D01*
X154148554Y-67321291D01*
X154150517Y-67246350D01*
X154150212Y-67233665D01*
X154132984Y-67001832D01*
X154130217Y-66983312D01*
X154087138Y-66792933D01*
X154084554Y-66694251D01*
X154090399Y-66668421D01*
X154114514Y-66582914D01*
X154118248Y-66564563D01*
X154147586Y-66333951D01*
X154148554Y-66321291D01*
X154150517Y-66246350D01*
X154150212Y-66233665D01*
X154132984Y-66001832D01*
X154130217Y-65983312D01*
X154087138Y-65792933D01*
X154084554Y-65694251D01*
X154090399Y-65668421D01*
X154114514Y-65582914D01*
X154118248Y-65564563D01*
X154147586Y-65333951D01*
X154148554Y-65321291D01*
X154150517Y-65246350D01*
X154150212Y-65233665D01*
X154132984Y-65001832D01*
X154130217Y-64983312D01*
X154087138Y-64792933D01*
X154084554Y-64694251D01*
X154090399Y-64668421D01*
X154114514Y-64582914D01*
X154118248Y-64564563D01*
X154147586Y-64333951D01*
X154148554Y-64321291D01*
X154150517Y-64246350D01*
X154150212Y-64233665D01*
X154132984Y-64001832D01*
X154130217Y-63983312D01*
X154079577Y-63759518D01*
X154074106Y-63741625D01*
X153990945Y-63527776D01*
X153982887Y-63510882D01*
X153918121Y-63397566D01*
X153904217Y-63381571D01*
X153900369Y-63382859D01*
X153893834Y-63387851D01*
X153059304Y-64222381D01*
X153047531Y-64240000D01*
X153059304Y-64257619D01*
X153827268Y-65025583D01*
X153882112Y-65107662D01*
X153901370Y-65204481D01*
X153896509Y-65253838D01*
X153896508Y-65324878D01*
X153858731Y-65416079D01*
X153827268Y-65454417D01*
X153559304Y-65722381D01*
X153547531Y-65740000D01*
X153559304Y-65757619D01*
X153827268Y-66025583D01*
X153882112Y-66107662D01*
X153901370Y-66204481D01*
X153896509Y-66253838D01*
X153896508Y-66324878D01*
X153858731Y-66416079D01*
X153827268Y-66454417D01*
X153559304Y-66722381D01*
X153547531Y-66740000D01*
X153559304Y-66757619D01*
X153827268Y-67025583D01*
X153882112Y-67107662D01*
X153901370Y-67204481D01*
X153896509Y-67253838D01*
X153896508Y-67324878D01*
X153858731Y-67416079D01*
X153827268Y-67454417D01*
X153059304Y-68222381D01*
X153047531Y-68240000D01*
X147904469Y-68240000D01*
X147892696Y-68222381D01*
X147124732Y-67454417D01*
X147069888Y-67372338D01*
X147050630Y-67275519D01*
X147055491Y-67226162D01*
X147055491Y-67226161D01*
X147055492Y-67155122D01*
X147093269Y-67063921D01*
X147124732Y-67025583D01*
X147392696Y-66757619D01*
X147404469Y-66740000D01*
X147392696Y-66722381D01*
X147124732Y-66454417D01*
X147069888Y-66372338D01*
X147050630Y-66275519D01*
X147055491Y-66226162D01*
X147055491Y-66226161D01*
X147055492Y-66155122D01*
X147093269Y-66063921D01*
X147124732Y-66025583D01*
X147392696Y-65757619D01*
X147404469Y-65740000D01*
X147392696Y-65722381D01*
X147124732Y-65454417D01*
X147069888Y-65372338D01*
X147050630Y-65275519D01*
X147055491Y-65226162D01*
X147055491Y-65226161D01*
X147055492Y-65155122D01*
X147093269Y-65063921D01*
X147124732Y-65025583D01*
X147892696Y-64257619D01*
X147904469Y-64240000D01*
X147892696Y-64222381D01*
X147064223Y-63393908D01*
X147046604Y-63382135D01*
X147041819Y-63385332D01*
X147038720Y-63389281D01*
X146988715Y-63471688D01*
X146980218Y-63488365D01*
X146891492Y-63699948D01*
X146885545Y-63717724D01*
X146829071Y-63940091D01*
X146825818Y-63958537D01*
X146802831Y-64186825D01*
X146802341Y-64205532D01*
X146813350Y-64434722D01*
X146815630Y-64453295D01*
X146860393Y-64678335D01*
X146860783Y-64679741D01*
X146860849Y-64680626D01*
X146862224Y-64687540D01*
X146861375Y-64687709D01*
X146868102Y-64778185D01*
X146862202Y-64809637D01*
X146829071Y-64940091D01*
X146825818Y-64958537D01*
X146802831Y-65186825D01*
X146802341Y-65205532D01*
X146813350Y-65434722D01*
X146815630Y-65453295D01*
X146860393Y-65678335D01*
X146860783Y-65679741D01*
X146860849Y-65680626D01*
X146862224Y-65687540D01*
X146861375Y-65687709D01*
X146868102Y-65778185D01*
X146862202Y-65809637D01*
X146829071Y-65940091D01*
X146825818Y-65958537D01*
X146802831Y-66186825D01*
X146802341Y-66205532D01*
X146813350Y-66434722D01*
X146815630Y-66453295D01*
X146860393Y-66678335D01*
X146860783Y-66679741D01*
X146860849Y-66680626D01*
X146862224Y-66687540D01*
X146861375Y-66687709D01*
X146868102Y-66778185D01*
X146862202Y-66809637D01*
X146829071Y-66940091D01*
X146825818Y-66958537D01*
X146802831Y-67186825D01*
X146802341Y-67205532D01*
X146813350Y-67434722D01*
X146815630Y-67453295D01*
X146860393Y-67678335D01*
X146860783Y-67679741D01*
X146860849Y-67680626D01*
X146862224Y-67687540D01*
X146861375Y-67687709D01*
X146868102Y-67778185D01*
X146862202Y-67809637D01*
X146829071Y-67940091D01*
X146825818Y-67958537D01*
X146802831Y-68186825D01*
X146802341Y-68205532D01*
X99060500Y-68205532D01*
X99060500Y-61727703D01*
X100252743Y-61727703D01*
X100255362Y-61747598D01*
X100285103Y-61973500D01*
X100290268Y-62012734D01*
X100292539Y-62021036D01*
X100292540Y-62021040D01*
X100300883Y-62051535D01*
X100366129Y-62290036D01*
X100390794Y-62347861D01*
X100467573Y-62527866D01*
X100478923Y-62554476D01*
X100483347Y-62561868D01*
X100483348Y-62561870D01*
X100622140Y-62793775D01*
X100622144Y-62793781D01*
X100626561Y-62801161D01*
X100631940Y-62807875D01*
X100631942Y-62807878D01*
X100800926Y-63018804D01*
X100806313Y-63025528D01*
X100812553Y-63031450D01*
X100812559Y-63031456D01*
X100829578Y-63047606D01*
X101014851Y-63223423D01*
X101021847Y-63228450D01*
X101021848Y-63228451D01*
X101089602Y-63277137D01*
X101248317Y-63391186D01*
X101255919Y-63395211D01*
X101255927Y-63395216D01*
X101494784Y-63521684D01*
X101502392Y-63525712D01*
X101510473Y-63528669D01*
X101510477Y-63528671D01*
X101546920Y-63542007D01*
X101772373Y-63624511D01*
X101780785Y-63626345D01*
X101780788Y-63626346D01*
X102044846Y-63683920D01*
X102044852Y-63683921D01*
X102053264Y-63685755D01*
X102220444Y-63698912D01*
X102273782Y-63703110D01*
X102273785Y-63703110D01*
X102278739Y-63703500D01*
X102434271Y-63703500D01*
X102438551Y-63703208D01*
X102438557Y-63703208D01*
X102549032Y-63695676D01*
X102648825Y-63688873D01*
X102663882Y-63685755D01*
X102921901Y-63632322D01*
X102930342Y-63630574D01*
X103201343Y-63534607D01*
X103230613Y-63519500D01*
X103449157Y-63406701D01*
X103456812Y-63402750D01*
X103617430Y-63289866D01*
X103684973Y-63242396D01*
X103684975Y-63242395D01*
X103692023Y-63237441D01*
X103902622Y-63041740D01*
X103911040Y-63031456D01*
X104037743Y-62876654D01*
X104084713Y-62819268D01*
X104089206Y-62811936D01*
X104089211Y-62811929D01*
X104089793Y-62810980D01*
X147617199Y-62810980D01*
X147620201Y-62818413D01*
X147620655Y-62818970D01*
X148458381Y-63656696D01*
X148476000Y-63668469D01*
X148493619Y-63656696D01*
X149261583Y-62888732D01*
X149343662Y-62833888D01*
X149440481Y-62814630D01*
X149489838Y-62819491D01*
X149489839Y-62819491D01*
X149560878Y-62819492D01*
X149652079Y-62857269D01*
X149690417Y-62888732D01*
X149958381Y-63156696D01*
X149976000Y-63168469D01*
X149993619Y-63156696D01*
X150261583Y-62888732D01*
X150343662Y-62833888D01*
X150440481Y-62814630D01*
X150489838Y-62819491D01*
X150489839Y-62819491D01*
X150560878Y-62819492D01*
X150652079Y-62857269D01*
X150690417Y-62888732D01*
X150958381Y-63156696D01*
X150976000Y-63168469D01*
X150993619Y-63156696D01*
X151261583Y-62888732D01*
X151343662Y-62833888D01*
X151440481Y-62814630D01*
X151489838Y-62819491D01*
X151489839Y-62819491D01*
X151560878Y-62819492D01*
X151652079Y-62857269D01*
X151690417Y-62888732D01*
X152458381Y-63656696D01*
X152476000Y-63668469D01*
X152493619Y-63656696D01*
X153324468Y-62825847D01*
X153336241Y-62808228D01*
X153331476Y-62801097D01*
X153317552Y-62792895D01*
X153111767Y-62691413D01*
X153094402Y-62684398D01*
X152875887Y-62614451D01*
X152857684Y-62610080D01*
X152631220Y-62573198D01*
X152612573Y-62571567D01*
X152383151Y-62568564D01*
X152364461Y-62569707D01*
X152137118Y-62600647D01*
X152118797Y-62604541D01*
X152049714Y-62624677D01*
X151951374Y-62633281D01*
X151901784Y-62622741D01*
X151875890Y-62614452D01*
X151857674Y-62610079D01*
X151631220Y-62573198D01*
X151612573Y-62571567D01*
X151383151Y-62568564D01*
X151364461Y-62569707D01*
X151137118Y-62600647D01*
X151118797Y-62604541D01*
X151049714Y-62624677D01*
X150951374Y-62633281D01*
X150901784Y-62622741D01*
X150875890Y-62614452D01*
X150857674Y-62610079D01*
X150631220Y-62573198D01*
X150612573Y-62571567D01*
X150383151Y-62568564D01*
X150364461Y-62569707D01*
X150137118Y-62600647D01*
X150118797Y-62604541D01*
X150049714Y-62624677D01*
X149951374Y-62633281D01*
X149901784Y-62622741D01*
X149875890Y-62614452D01*
X149857674Y-62610079D01*
X149631220Y-62573198D01*
X149612573Y-62571567D01*
X149383151Y-62568564D01*
X149364461Y-62569707D01*
X149137118Y-62600647D01*
X149118797Y-62604541D01*
X149049714Y-62624677D01*
X148951374Y-62633281D01*
X148901784Y-62622741D01*
X148875890Y-62614452D01*
X148857674Y-62610079D01*
X148631220Y-62573198D01*
X148612573Y-62571567D01*
X148383151Y-62568564D01*
X148364461Y-62569707D01*
X148137114Y-62600647D01*
X148118807Y-62604538D01*
X147898526Y-62668744D01*
X147880985Y-62675303D01*
X147672624Y-62771358D01*
X147656249Y-62780435D01*
X147632311Y-62796129D01*
X147617199Y-62810980D01*
X104089793Y-62810980D01*
X104230426Y-62581487D01*
X104234927Y-62574142D01*
X104253945Y-62530819D01*
X104347022Y-62318783D01*
X104347023Y-62318780D01*
X104350483Y-62310898D01*
X104360473Y-62275828D01*
X104426887Y-62042681D01*
X104426888Y-62042678D01*
X104429244Y-62034406D01*
X104455631Y-61849000D01*
X143612496Y-61849000D01*
X143613882Y-61862187D01*
X143625424Y-61971999D01*
X143632458Y-62038928D01*
X143636553Y-62051532D01*
X143636554Y-62051535D01*
X143662254Y-62130631D01*
X143691473Y-62220556D01*
X143709658Y-62252053D01*
X143773836Y-62363212D01*
X143786960Y-62385944D01*
X143914747Y-62527866D01*
X144069248Y-62640118D01*
X144243712Y-62717794D01*
X144353215Y-62741070D01*
X144417541Y-62754743D01*
X144417544Y-62754743D01*
X144430513Y-62757500D01*
X144621487Y-62757500D01*
X144634456Y-62754743D01*
X144634459Y-62754743D01*
X144698785Y-62741070D01*
X144808288Y-62717794D01*
X144982752Y-62640118D01*
X145137253Y-62527866D01*
X145265040Y-62385944D01*
X145278165Y-62363212D01*
X145342342Y-62252053D01*
X145360527Y-62220556D01*
X145389746Y-62130631D01*
X145415446Y-62051535D01*
X145415447Y-62051532D01*
X145419542Y-62038928D01*
X145426577Y-61971999D01*
X145432206Y-61918435D01*
X145461479Y-61824159D01*
X145504922Y-61765982D01*
X145730303Y-61540602D01*
X145812383Y-61485758D01*
X145909201Y-61466500D01*
X161913713Y-61466500D01*
X162010532Y-61485758D01*
X162092611Y-61540602D01*
X162147455Y-61622681D01*
X162166713Y-61719500D01*
X162165327Y-61745944D01*
X162164028Y-61758307D01*
X162154496Y-61849000D01*
X162155882Y-61862187D01*
X162167424Y-61971999D01*
X162174458Y-62038928D01*
X162178553Y-62051532D01*
X162178554Y-62051535D01*
X162204254Y-62130631D01*
X162233473Y-62220556D01*
X162251658Y-62252053D01*
X162315836Y-62363212D01*
X162328960Y-62385944D01*
X162456747Y-62527866D01*
X162611248Y-62640118D01*
X162785712Y-62717794D01*
X162895215Y-62741070D01*
X162959541Y-62754743D01*
X162959544Y-62754743D01*
X162972513Y-62757500D01*
X163163487Y-62757500D01*
X163176456Y-62754743D01*
X163176459Y-62754743D01*
X163240785Y-62741070D01*
X163350288Y-62717794D01*
X163524752Y-62640118D01*
X163546679Y-62624187D01*
X163675189Y-62530819D01*
X163764837Y-62489490D01*
X163823899Y-62482500D01*
X167574498Y-62482500D01*
X167579788Y-62482750D01*
X167588523Y-62484702D01*
X167604430Y-62484202D01*
X167604431Y-62484202D01*
X167654596Y-62482625D01*
X167662545Y-62482500D01*
X167688470Y-62482500D01*
X167696351Y-62481505D01*
X167698490Y-62481370D01*
X167706421Y-62480996D01*
X167748503Y-62479673D01*
X167748630Y-62483723D01*
X167816453Y-62486384D01*
X167906103Y-62527707D01*
X167973116Y-62600192D01*
X168007289Y-62692804D01*
X168005380Y-62773939D01*
X168006400Y-62774071D01*
X167973390Y-63029980D01*
X167979469Y-63287937D01*
X168024497Y-63542007D01*
X168027583Y-63551098D01*
X168027584Y-63551102D01*
X168098298Y-63759418D01*
X168107438Y-63786342D01*
X168111863Y-63794860D01*
X168111864Y-63794863D01*
X168132660Y-63834896D01*
X168226383Y-64015321D01*
X168232047Y-64023074D01*
X168232050Y-64023079D01*
X168372931Y-64215922D01*
X168372935Y-64215926D01*
X168378594Y-64223673D01*
X168385363Y-64230478D01*
X168385366Y-64230481D01*
X168440689Y-64286094D01*
X168560570Y-64406604D01*
X168687977Y-64500708D01*
X168754411Y-64573719D01*
X168787850Y-64666599D01*
X168783200Y-64765205D01*
X168741169Y-64854526D01*
X168697393Y-64900414D01*
X168508600Y-65054114D01*
X168508593Y-65054121D01*
X168501149Y-65060181D01*
X168494707Y-65067298D01*
X168494706Y-65067299D01*
X168430660Y-65138056D01*
X168327993Y-65251481D01*
X168322700Y-65259493D01*
X168224592Y-65408000D01*
X168185765Y-65466772D01*
X168181743Y-65475497D01*
X168181740Y-65475502D01*
X168081763Y-65692370D01*
X168081761Y-65692376D01*
X168077739Y-65701100D01*
X168075083Y-65710333D01*
X168075082Y-65710335D01*
X168011737Y-65930521D01*
X168006400Y-65949071D01*
X167973390Y-66204980D01*
X167979469Y-66462937D01*
X168024497Y-66717007D01*
X168027583Y-66726098D01*
X168027584Y-66726102D01*
X168055941Y-66809637D01*
X168107438Y-66961342D01*
X168111863Y-66969860D01*
X168111864Y-66969863D01*
X168155647Y-67054149D01*
X168226383Y-67190321D01*
X168232047Y-67198074D01*
X168232050Y-67198079D01*
X168372931Y-67390922D01*
X168372935Y-67390926D01*
X168378594Y-67398673D01*
X168385363Y-67405478D01*
X168385366Y-67405481D01*
X168417833Y-67438118D01*
X168560570Y-67581604D01*
X168568300Y-67587314D01*
X168568303Y-67587316D01*
X168713082Y-67694251D01*
X168768122Y-67734904D01*
X168996475Y-67855046D01*
X169005559Y-67858183D01*
X169005562Y-67858184D01*
X169087427Y-67886452D01*
X169240373Y-67939265D01*
X169249822Y-67940991D01*
X169249823Y-67940991D01*
X169342742Y-67957961D01*
X169494203Y-67985623D01*
X169502312Y-67986048D01*
X169573458Y-67989777D01*
X169573474Y-67989777D01*
X169576767Y-67989950D01*
X169737613Y-67989950D01*
X169742406Y-67989585D01*
X169742417Y-67989585D01*
X169916724Y-67976326D01*
X170014725Y-67988185D01*
X170100727Y-68036646D01*
X170161638Y-68114329D01*
X170188184Y-68209408D01*
X170188362Y-68224504D01*
X170188899Y-68235484D01*
X170188228Y-68248288D01*
X170190145Y-68260963D01*
X170190145Y-68260965D01*
X170205995Y-68365766D01*
X170218722Y-68449922D01*
X170289137Y-68641306D01*
X170396598Y-68814622D01*
X170536714Y-68962791D01*
X170596181Y-69004430D01*
X170693259Y-69072405D01*
X170693263Y-69072407D01*
X170703761Y-69079758D01*
X170715524Y-69084848D01*
X170715527Y-69084850D01*
X170749800Y-69099681D01*
X170890916Y-69160747D01*
X170903467Y-69163369D01*
X170903470Y-69163370D01*
X171018346Y-69187369D01*
X171090533Y-69202450D01*
X171097212Y-69202800D01*
X171246967Y-69202800D01*
X171347129Y-69192626D01*
X171386135Y-69188664D01*
X171386136Y-69188664D01*
X171398883Y-69187369D01*
X171411111Y-69183537D01*
X171420805Y-69181547D01*
X171519519Y-69180943D01*
X171610949Y-69218162D01*
X171681177Y-69287536D01*
X171719511Y-69378505D01*
X171724679Y-69429379D01*
X171724679Y-74921182D01*
X171705421Y-75018001D01*
X171650577Y-75100080D01*
X171620390Y-75125862D01*
X171611473Y-75132341D01*
X171600747Y-75140134D01*
X171472960Y-75282056D01*
X171377473Y-75447444D01*
X171318458Y-75629072D01*
X171312742Y-75683457D01*
X171283469Y-75777732D01*
X171220346Y-75853629D01*
X171132984Y-75899592D01*
X171061128Y-75910011D01*
X164413711Y-75910011D01*
X164316892Y-75890753D01*
X164234813Y-75835909D01*
X158331922Y-69933017D01*
X158277078Y-69850938D01*
X158259206Y-69780564D01*
X158258761Y-69776325D01*
X158256960Y-69759193D01*
X158247928Y-69673255D01*
X158247927Y-69673251D01*
X158246542Y-69660072D01*
X158187527Y-69478444D01*
X158092040Y-69313056D01*
X157964253Y-69171134D01*
X157809752Y-69058882D01*
X157635288Y-68981206D01*
X157525785Y-68957930D01*
X157461459Y-68944257D01*
X157461456Y-68944257D01*
X157448487Y-68941500D01*
X157257513Y-68941500D01*
X157244544Y-68944257D01*
X157244541Y-68944257D01*
X157180215Y-68957930D01*
X157070712Y-68981206D01*
X156896248Y-69058882D01*
X156741747Y-69171134D01*
X156613960Y-69313056D01*
X156518473Y-69478444D01*
X156459458Y-69660072D01*
X156458073Y-69673253D01*
X156458072Y-69673256D01*
X156449040Y-69759193D01*
X156439496Y-69850000D01*
X156440882Y-69863187D01*
X156457973Y-70025795D01*
X156459458Y-70039928D01*
X156463555Y-70052538D01*
X156463808Y-70053727D01*
X156465101Y-70152434D01*
X156428521Y-70244122D01*
X156379656Y-70295614D01*
X156381326Y-70297469D01*
X156371470Y-70306343D01*
X156360747Y-70314134D01*
X156232960Y-70456056D01*
X156226331Y-70467537D01*
X156226330Y-70467539D01*
X156203367Y-70507313D01*
X156137473Y-70621444D01*
X156133376Y-70634053D01*
X156093652Y-70756311D01*
X156078458Y-70803072D01*
X156058496Y-70993000D01*
X156078458Y-71182928D01*
X156082553Y-71195532D01*
X156082554Y-71195535D01*
X156137473Y-71364556D01*
X156136293Y-71364939D01*
X156155116Y-71448129D01*
X156138398Y-71545418D01*
X156085720Y-71628904D01*
X156050912Y-71659429D01*
X155990474Y-71703340D01*
X155979747Y-71711134D01*
X155851960Y-71853056D01*
X155845331Y-71864537D01*
X155845330Y-71864539D01*
X155826200Y-71897673D01*
X155756473Y-72018444D01*
X155752376Y-72031053D01*
X155726654Y-72110218D01*
X155697458Y-72200072D01*
X155696073Y-72213253D01*
X155696072Y-72213256D01*
X155684082Y-72327341D01*
X155677496Y-72390000D01*
X155678882Y-72403187D01*
X155695455Y-72560866D01*
X155697458Y-72579928D01*
X155701553Y-72592532D01*
X155701554Y-72592535D01*
X155729490Y-72678513D01*
X155756473Y-72761556D01*
X155851960Y-72926944D01*
X155979747Y-73068866D01*
X156134248Y-73181118D01*
X156238072Y-73227343D01*
X156255571Y-73235134D01*
X156308712Y-73258794D01*
X156418215Y-73282070D01*
X156482541Y-73295743D01*
X156482544Y-73295743D01*
X156495513Y-73298500D01*
X156508773Y-73298500D01*
X156521960Y-73299886D01*
X156521628Y-73303041D01*
X156595619Y-73317758D01*
X156677698Y-73372602D01*
X165728409Y-82423314D01*
X165783253Y-82505393D01*
X165802511Y-82602212D01*
X165802511Y-91316486D01*
X165783253Y-91413305D01*
X165728409Y-91495384D01*
X165646330Y-91550228D01*
X165549511Y-91569486D01*
X165452692Y-91550228D01*
X165434179Y-91541098D01*
X165429752Y-91537882D01*
X165255288Y-91460206D01*
X165145785Y-91436930D01*
X165081459Y-91423257D01*
X165081456Y-91423257D01*
X165068487Y-91420500D01*
X164877513Y-91420500D01*
X164864544Y-91423257D01*
X164864541Y-91423257D01*
X164800215Y-91436930D01*
X164690712Y-91460206D01*
X164516248Y-91537882D01*
X164361747Y-91650134D01*
X164352881Y-91659980D01*
X164352875Y-91659986D01*
X164335517Y-91679265D01*
X164256421Y-91738330D01*
X164160743Y-91762630D01*
X164063049Y-91748466D01*
X163978212Y-91697994D01*
X163959483Y-91679265D01*
X163942125Y-91659986D01*
X163942119Y-91659980D01*
X163933253Y-91650134D01*
X163778752Y-91537882D01*
X163604288Y-91460206D01*
X163494785Y-91436930D01*
X163430459Y-91423257D01*
X163430456Y-91423257D01*
X163417487Y-91420500D01*
X163226513Y-91420500D01*
X163213544Y-91423257D01*
X163213541Y-91423257D01*
X163149215Y-91436930D01*
X163039712Y-91460206D01*
X162865248Y-91537882D01*
X162710747Y-91650134D01*
X162582960Y-91792056D01*
X162487473Y-91957444D01*
X162428458Y-92139072D01*
X162427073Y-92152253D01*
X162427072Y-92152256D01*
X162422047Y-92200065D01*
X162408496Y-92329000D01*
X162409882Y-92342187D01*
X162424535Y-92481598D01*
X162428458Y-92518928D01*
X162432553Y-92531532D01*
X162432554Y-92531535D01*
X162479489Y-92675983D01*
X162487473Y-92700556D01*
X162582960Y-92865944D01*
X162591830Y-92875795D01*
X162623516Y-92910986D01*
X162673988Y-92995823D01*
X162688500Y-93080276D01*
X162688500Y-97276118D01*
X162669242Y-97372937D01*
X162623516Y-97445408D01*
X162534243Y-97544556D01*
X162438756Y-97709944D01*
X162379741Y-97891572D01*
X162378356Y-97904753D01*
X162378355Y-97904756D01*
X162365940Y-98022879D01*
X162359779Y-98081500D01*
X162379741Y-98271428D01*
X162383836Y-98284032D01*
X162383837Y-98284035D01*
X162434659Y-98440447D01*
X162438756Y-98453056D01*
X162534243Y-98618444D01*
X162662030Y-98760366D01*
X162816531Y-98872618D01*
X162990995Y-98950294D01*
X163082302Y-98969702D01*
X163164824Y-98987243D01*
X163164827Y-98987243D01*
X163177796Y-98990000D01*
X163368770Y-98990000D01*
X163381739Y-98987243D01*
X163381742Y-98987243D01*
X163464264Y-98969702D01*
X163555571Y-98950294D01*
X163580547Y-98939174D01*
X163717921Y-98878012D01*
X163717925Y-98878010D01*
X163730035Y-98872618D01*
X163730383Y-98873400D01*
X163813002Y-98845358D01*
X163911506Y-98851818D01*
X164000040Y-98895482D01*
X164065126Y-98969702D01*
X164086634Y-99018012D01*
X164138473Y-99177556D01*
X164233960Y-99342944D01*
X164361747Y-99484866D01*
X164516248Y-99597118D01*
X164690712Y-99674794D01*
X164771735Y-99692016D01*
X164864541Y-99711743D01*
X164864544Y-99711743D01*
X164877513Y-99714500D01*
X165068487Y-99714500D01*
X165081456Y-99711743D01*
X165081459Y-99711743D01*
X165174265Y-99692016D01*
X165255288Y-99674794D01*
X165429725Y-99597130D01*
X165429728Y-99597129D01*
X165429752Y-99597118D01*
X165429753Y-99597120D01*
X165516491Y-99567678D01*
X165614995Y-99574135D01*
X165703530Y-99617797D01*
X165768617Y-99692016D01*
X165800347Y-99785494D01*
X165802511Y-99818514D01*
X165802511Y-103445253D01*
X165783253Y-103542072D01*
X165728409Y-103624151D01*
X165652416Y-103676380D01*
X165532248Y-103729882D01*
X165377747Y-103842134D01*
X165249960Y-103984056D01*
X165243331Y-103995537D01*
X165243330Y-103995539D01*
X165222173Y-104032184D01*
X165154473Y-104149444D01*
X165150376Y-104162053D01*
X165101591Y-104312198D01*
X165095458Y-104331072D01*
X165094073Y-104344253D01*
X165094072Y-104344256D01*
X165082082Y-104458341D01*
X165075496Y-104521000D01*
X165076882Y-104534187D01*
X165093595Y-104693198D01*
X165095458Y-104710928D01*
X165099553Y-104723532D01*
X165099554Y-104723535D01*
X165139012Y-104844973D01*
X165154473Y-104892556D01*
X165182324Y-104940795D01*
X165236671Y-105034926D01*
X165249960Y-105057944D01*
X165377747Y-105199866D01*
X165532248Y-105312118D01*
X165706712Y-105389794D01*
X165816215Y-105413070D01*
X165880541Y-105426743D01*
X165880544Y-105426743D01*
X165893513Y-105429500D01*
X166084487Y-105429500D01*
X166097456Y-105426743D01*
X166097459Y-105426743D01*
X166161785Y-105413070D01*
X166271288Y-105389794D01*
X166445752Y-105312118D01*
X166600253Y-105199866D01*
X166728040Y-105057944D01*
X166741330Y-105034926D01*
X166795676Y-104940795D01*
X166823527Y-104892556D01*
X166838988Y-104844973D01*
X166878446Y-104723535D01*
X166878447Y-104723532D01*
X166882542Y-104710928D01*
X166896172Y-104581246D01*
X166925445Y-104486971D01*
X166942265Y-104460312D01*
X166952597Y-104449310D01*
X166960263Y-104435366D01*
X166965798Y-104427748D01*
X166971083Y-104419701D01*
X166975870Y-104411607D01*
X166985625Y-104399030D01*
X166991945Y-104384424D01*
X166991948Y-104384420D01*
X167000807Y-104363948D01*
X167011294Y-104342541D01*
X167022037Y-104323000D01*
X167022038Y-104322996D01*
X167029706Y-104309049D01*
X167033665Y-104293630D01*
X167037130Y-104284878D01*
X167040246Y-104275777D01*
X167042872Y-104266739D01*
X167049192Y-104252134D01*
X167051681Y-104236417D01*
X167051683Y-104236412D01*
X167055174Y-104214374D01*
X167060005Y-104191042D01*
X167069511Y-104154019D01*
X167069511Y-104138102D01*
X167070692Y-104128754D01*
X167071445Y-104119187D01*
X167071741Y-104109767D01*
X167074231Y-104094046D01*
X167070634Y-104055994D01*
X167069511Y-104032184D01*
X167069511Y-82309127D01*
X167069761Y-82303837D01*
X167071713Y-82295102D01*
X167069636Y-82229029D01*
X167069511Y-82221080D01*
X167069511Y-82195155D01*
X167068516Y-82187274D01*
X167068381Y-82185135D01*
X167068007Y-82177204D01*
X167067184Y-82151028D01*
X167066684Y-82135122D01*
X167062245Y-82119844D01*
X167060771Y-82110534D01*
X167058822Y-82101126D01*
X167056480Y-82092005D01*
X167054485Y-82076214D01*
X167048625Y-82061413D01*
X167040414Y-82040674D01*
X167032692Y-82018121D01*
X167032093Y-82016059D01*
X167022029Y-81981418D01*
X167013925Y-81967715D01*
X167010183Y-81959068D01*
X167005970Y-81950467D01*
X167001424Y-81942198D01*
X166995563Y-81927394D01*
X166973092Y-81896465D01*
X166960013Y-81876554D01*
X166948655Y-81857348D01*
X166948654Y-81857346D01*
X166940553Y-81843649D01*
X166929297Y-81832393D01*
X166923525Y-81824952D01*
X166917292Y-81817654D01*
X166910842Y-81810785D01*
X166901483Y-81797904D01*
X166872031Y-81773540D01*
X166854402Y-81757498D01*
X163632302Y-78535398D01*
X163577458Y-78453319D01*
X163558200Y-78356500D01*
X163577458Y-78259681D01*
X163632302Y-78177602D01*
X163714381Y-78122758D01*
X163811200Y-78103500D01*
X175146800Y-78103500D01*
X175243619Y-78122758D01*
X175325698Y-78177602D01*
X176203398Y-79055302D01*
X176258242Y-79137381D01*
X176277500Y-79234200D01*
X176277500Y-103642724D01*
X176258242Y-103739543D01*
X176212516Y-103812014D01*
X176171960Y-103857056D01*
X176165331Y-103868537D01*
X176165330Y-103868539D01*
X176125608Y-103937340D01*
X176076473Y-104022444D01*
X176072376Y-104035053D01*
X176021692Y-104191042D01*
X176017458Y-104204072D01*
X176016073Y-104217253D01*
X176016072Y-104217256D01*
X176006094Y-104312198D01*
X175997496Y-104394000D01*
X175998882Y-104407187D01*
X176011208Y-104524458D01*
X176017458Y-104583928D01*
X176021553Y-104596532D01*
X176021554Y-104596535D01*
X176024693Y-104606195D01*
X176076473Y-104765556D01*
X176102377Y-104810423D01*
X176163651Y-104916552D01*
X176171960Y-104930944D01*
X176299747Y-105072866D01*
X176310469Y-105080656D01*
X176310470Y-105080657D01*
X176325817Y-105091807D01*
X176454248Y-105185118D01*
X176628712Y-105262794D01*
X176735535Y-105285500D01*
X176802541Y-105299743D01*
X176802544Y-105299743D01*
X176815513Y-105302500D01*
X177006487Y-105302500D01*
X177019456Y-105299743D01*
X177019459Y-105299743D01*
X177086465Y-105285500D01*
X177193288Y-105262794D01*
X177367752Y-105185118D01*
X177496183Y-105091807D01*
X177511530Y-105080657D01*
X177511531Y-105080656D01*
X177522253Y-105072866D01*
X177650040Y-104930944D01*
X177658350Y-104916552D01*
X177719623Y-104810423D01*
X177745527Y-104765556D01*
X177797307Y-104606195D01*
X177800446Y-104596535D01*
X177800447Y-104596532D01*
X177804542Y-104583928D01*
X177810793Y-104524458D01*
X177823118Y-104407187D01*
X177824504Y-104394000D01*
X177815906Y-104312198D01*
X177805928Y-104217256D01*
X177805927Y-104217253D01*
X177804542Y-104204072D01*
X177800309Y-104191042D01*
X177749624Y-104035053D01*
X177745527Y-104022444D01*
X177696392Y-103937340D01*
X177656670Y-103868539D01*
X177656669Y-103868537D01*
X177650040Y-103857056D01*
X177609484Y-103812014D01*
X177559012Y-103727177D01*
X177544500Y-103642724D01*
X177544500Y-78941106D01*
X177544749Y-78935823D01*
X177546701Y-78927091D01*
X177544625Y-78861037D01*
X177544500Y-78853089D01*
X177544500Y-78827144D01*
X177543503Y-78819253D01*
X177543369Y-78817127D01*
X177542995Y-78809185D01*
X177542173Y-78783025D01*
X177541673Y-78767110D01*
X177537231Y-78751819D01*
X177535755Y-78742501D01*
X177533811Y-78733112D01*
X177531469Y-78723989D01*
X177529474Y-78708203D01*
X177515403Y-78672663D01*
X177507683Y-78650116D01*
X177501458Y-78628689D01*
X177497018Y-78613407D01*
X177488916Y-78599707D01*
X177485173Y-78591058D01*
X177480948Y-78582434D01*
X177476411Y-78574181D01*
X177470552Y-78559383D01*
X177448085Y-78528460D01*
X177435002Y-78508542D01*
X177423643Y-78489335D01*
X177415542Y-78475637D01*
X177404292Y-78464387D01*
X177398525Y-78456952D01*
X177392285Y-78449647D01*
X177385830Y-78442773D01*
X177376472Y-78429893D01*
X177347026Y-78405533D01*
X177329397Y-78389492D01*
X176548814Y-77608909D01*
X176493970Y-77526830D01*
X176474712Y-77430011D01*
X176493970Y-77333192D01*
X176548814Y-77251113D01*
X176630893Y-77196269D01*
X176727712Y-77177011D01*
X184761311Y-77177011D01*
X184858130Y-77196269D01*
X184940209Y-77251113D01*
X187125398Y-79436303D01*
X187180242Y-79518382D01*
X187199500Y-79615201D01*
X187199500Y-103769724D01*
X187180242Y-103866543D01*
X187134516Y-103939014D01*
X187093960Y-103984056D01*
X187087331Y-103995537D01*
X187087330Y-103995539D01*
X187066173Y-104032184D01*
X186998473Y-104149444D01*
X186994376Y-104162053D01*
X186945591Y-104312198D01*
X186939458Y-104331072D01*
X186938073Y-104344253D01*
X186938072Y-104344256D01*
X186926082Y-104458341D01*
X186919496Y-104521000D01*
X186920882Y-104534187D01*
X186937595Y-104693198D01*
X186939458Y-104710928D01*
X186943553Y-104723532D01*
X186943554Y-104723535D01*
X186983012Y-104844973D01*
X186998473Y-104892556D01*
X187026324Y-104940795D01*
X187080671Y-105034926D01*
X187093960Y-105057944D01*
X187221747Y-105199866D01*
X187376248Y-105312118D01*
X187550712Y-105389794D01*
X187660215Y-105413070D01*
X187724541Y-105426743D01*
X187724544Y-105426743D01*
X187737513Y-105429500D01*
X187928487Y-105429500D01*
X187941456Y-105426743D01*
X187941459Y-105426743D01*
X188005785Y-105413070D01*
X188115288Y-105389794D01*
X188289752Y-105312118D01*
X188444253Y-105199866D01*
X188572040Y-105057944D01*
X188585330Y-105034926D01*
X188639676Y-104940795D01*
X188667527Y-104892556D01*
X188682988Y-104844973D01*
X188722446Y-104723535D01*
X188722447Y-104723532D01*
X188726542Y-104710928D01*
X188728406Y-104693198D01*
X188745118Y-104534187D01*
X188746504Y-104521000D01*
X188739918Y-104458341D01*
X188727928Y-104344256D01*
X188727927Y-104344253D01*
X188726542Y-104331072D01*
X188720410Y-104312198D01*
X188671624Y-104162053D01*
X188667527Y-104149444D01*
X188599827Y-104032184D01*
X188578670Y-103995539D01*
X188578669Y-103995537D01*
X188572040Y-103984056D01*
X188531484Y-103939014D01*
X188481012Y-103854177D01*
X188466500Y-103769724D01*
X188466500Y-79322116D01*
X188466750Y-79316826D01*
X188468702Y-79308091D01*
X188466625Y-79242018D01*
X188466500Y-79234069D01*
X188466500Y-79208144D01*
X188465505Y-79200263D01*
X188465370Y-79198124D01*
X188464996Y-79190193D01*
X188464173Y-79164017D01*
X188463673Y-79148111D01*
X188459234Y-79132833D01*
X188457760Y-79123523D01*
X188455811Y-79114115D01*
X188453469Y-79104994D01*
X188451474Y-79089203D01*
X188445614Y-79074402D01*
X188437403Y-79053663D01*
X188429681Y-79031110D01*
X188429082Y-79029048D01*
X188419018Y-78994407D01*
X188410914Y-78980704D01*
X188407172Y-78972057D01*
X188402959Y-78963456D01*
X188398413Y-78955187D01*
X188392552Y-78940383D01*
X188370081Y-78909454D01*
X188357002Y-78889543D01*
X188345644Y-78870337D01*
X188345643Y-78870335D01*
X188337542Y-78856638D01*
X188326286Y-78845382D01*
X188320514Y-78837941D01*
X188314281Y-78830643D01*
X188307831Y-78823774D01*
X188298472Y-78810893D01*
X188269020Y-78786529D01*
X188251391Y-78770487D01*
X185628868Y-76147963D01*
X185625305Y-76144047D01*
X185620511Y-76136493D01*
X185572320Y-76091239D01*
X185566612Y-76085707D01*
X185548281Y-76067376D01*
X185542008Y-76062510D01*
X185540405Y-76061097D01*
X185534531Y-76055752D01*
X185515437Y-76037822D01*
X185515433Y-76037819D01*
X185503832Y-76026925D01*
X185489888Y-76019259D01*
X185482273Y-76013726D01*
X185474223Y-76008439D01*
X185466129Y-76003652D01*
X185453552Y-75993897D01*
X185438946Y-75987577D01*
X185438942Y-75987574D01*
X185418470Y-75978715D01*
X185397063Y-75968228D01*
X185377522Y-75957485D01*
X185377518Y-75957484D01*
X185363571Y-75949816D01*
X185348152Y-75945857D01*
X185339400Y-75942392D01*
X185330299Y-75939276D01*
X185321261Y-75936650D01*
X185306656Y-75930330D01*
X185290939Y-75927841D01*
X185290934Y-75927839D01*
X185268896Y-75924348D01*
X185245574Y-75919519D01*
X185208541Y-75910011D01*
X185192624Y-75910011D01*
X185183276Y-75908830D01*
X185173709Y-75908077D01*
X185164289Y-75907781D01*
X185148568Y-75905291D01*
X185132721Y-75906789D01*
X185110516Y-75908888D01*
X185086706Y-75910011D01*
X173362872Y-75910011D01*
X173266053Y-75890753D01*
X173183974Y-75835909D01*
X173129130Y-75753830D01*
X173111258Y-75683457D01*
X173105542Y-75629072D01*
X173046527Y-75447444D01*
X173025574Y-75411152D01*
X172993843Y-75317676D01*
X172991679Y-75284653D01*
X172991679Y-72828138D01*
X190965516Y-72828138D01*
X190980112Y-72838226D01*
X191153895Y-72916692D01*
X191169989Y-72922678D01*
X191417558Y-72996010D01*
X191434342Y-72999762D01*
X191689556Y-73038815D01*
X191706693Y-73040254D01*
X191964861Y-73044310D01*
X191982008Y-73043411D01*
X192238344Y-73012392D01*
X192255226Y-73009171D01*
X192504971Y-72943652D01*
X192521260Y-72938170D01*
X192759801Y-72839364D01*
X192760246Y-72839143D01*
X192771750Y-72828947D01*
X192770223Y-72824524D01*
X192765915Y-72818941D01*
X191885119Y-71938145D01*
X191867500Y-71926372D01*
X191849881Y-71938145D01*
X190976848Y-72811178D01*
X190965516Y-72828138D01*
X172991679Y-72828138D01*
X172991679Y-71820634D01*
X182989000Y-71820634D01*
X182989740Y-71827442D01*
X182989740Y-71827450D01*
X182994041Y-71867042D01*
X182995755Y-71882816D01*
X183046885Y-72019205D01*
X183057693Y-72033626D01*
X183057694Y-72033628D01*
X183119846Y-72116556D01*
X183134239Y-72135761D01*
X183148660Y-72146569D01*
X183236372Y-72212306D01*
X183236374Y-72212307D01*
X183250795Y-72223115D01*
X183267672Y-72229442D01*
X183267674Y-72229443D01*
X183318896Y-72248645D01*
X183387184Y-72274245D01*
X183402955Y-72275958D01*
X183402958Y-72275959D01*
X183442550Y-72280260D01*
X183442558Y-72280260D01*
X183449366Y-72281000D01*
X185045634Y-72281000D01*
X185052442Y-72280260D01*
X185052450Y-72280260D01*
X185092042Y-72275959D01*
X185092045Y-72275958D01*
X185107816Y-72274245D01*
X185176104Y-72248645D01*
X185227326Y-72229443D01*
X185227328Y-72229442D01*
X185244205Y-72223115D01*
X185258626Y-72212307D01*
X185258628Y-72212306D01*
X185346340Y-72146569D01*
X185360761Y-72135761D01*
X185375154Y-72116556D01*
X185437306Y-72033628D01*
X185437307Y-72033626D01*
X185448115Y-72019205D01*
X185461862Y-71982535D01*
X185513881Y-71898637D01*
X185594046Y-71841033D01*
X185690154Y-71818491D01*
X185787572Y-71834445D01*
X185877660Y-71892447D01*
X185975462Y-71990249D01*
X185984507Y-71996582D01*
X185984510Y-71996585D01*
X186146794Y-72110218D01*
X186155846Y-72116556D01*
X186165856Y-72121224D01*
X186165860Y-72121226D01*
X186345415Y-72204953D01*
X186345417Y-72204954D01*
X186355424Y-72209620D01*
X186568129Y-72266615D01*
X186787500Y-72285807D01*
X187006871Y-72266615D01*
X187219576Y-72209620D01*
X187229583Y-72204954D01*
X187229585Y-72204953D01*
X187409140Y-72121226D01*
X187409144Y-72121224D01*
X187419154Y-72116556D01*
X187428206Y-72110218D01*
X187590490Y-71996585D01*
X187590493Y-71996582D01*
X187599538Y-71990249D01*
X187755249Y-71834538D01*
X187850258Y-71698851D01*
X187921563Y-71630592D01*
X188013567Y-71594814D01*
X188112259Y-71596967D01*
X188202615Y-71636724D01*
X188264742Y-71698851D01*
X188359751Y-71834538D01*
X188515462Y-71990249D01*
X188524507Y-71996582D01*
X188524510Y-71996585D01*
X188686794Y-72110218D01*
X188695846Y-72116556D01*
X188705856Y-72121224D01*
X188705860Y-72121226D01*
X188885415Y-72204953D01*
X188885417Y-72204954D01*
X188895424Y-72209620D01*
X189108129Y-72266615D01*
X189327500Y-72285807D01*
X189546871Y-72266615D01*
X189759576Y-72209620D01*
X189769583Y-72204954D01*
X189769585Y-72204953D01*
X189949140Y-72121226D01*
X189949144Y-72121224D01*
X189959154Y-72116556D01*
X189968206Y-72110218D01*
X190130490Y-71996585D01*
X190130493Y-71996582D01*
X190139538Y-71990249D01*
X190295249Y-71834538D01*
X190301582Y-71825494D01*
X190301585Y-71825490D01*
X190415218Y-71663205D01*
X190415219Y-71663203D01*
X190421556Y-71654153D01*
X190429684Y-71636724D01*
X190475865Y-71537687D01*
X190526263Y-71465711D01*
X190951855Y-71040119D01*
X190963628Y-71022500D01*
X192771372Y-71022500D01*
X192783145Y-71040119D01*
X193655616Y-71912590D01*
X193673235Y-71924363D01*
X193675426Y-71922899D01*
X193681942Y-71914173D01*
X193704341Y-71872918D01*
X193711490Y-71857305D01*
X193802764Y-71615753D01*
X193807724Y-71599323D01*
X193865369Y-71347631D01*
X193868058Y-71330653D01*
X193891334Y-71069860D01*
X193891828Y-71059929D01*
X193892168Y-71027469D01*
X193891882Y-71017543D01*
X193874073Y-70756311D01*
X193871739Y-70739273D01*
X193819383Y-70486454D01*
X193814758Y-70469890D01*
X193728569Y-70226499D01*
X193721750Y-70210741D01*
X193683998Y-70137599D01*
X193670793Y-70121026D01*
X193669570Y-70121378D01*
X193658727Y-70129299D01*
X192783145Y-71004881D01*
X192771372Y-71022500D01*
X190963628Y-71022500D01*
X190951855Y-71004881D01*
X190526263Y-70579289D01*
X190475865Y-70507313D01*
X190426226Y-70400861D01*
X190426224Y-70400857D01*
X190421556Y-70390847D01*
X190415218Y-70381795D01*
X190301585Y-70219510D01*
X190301582Y-70219506D01*
X190295249Y-70210462D01*
X190139538Y-70054751D01*
X190130493Y-70048418D01*
X190130490Y-70048415D01*
X189968206Y-69934782D01*
X189968203Y-69934781D01*
X189959154Y-69928444D01*
X189949144Y-69923776D01*
X189949140Y-69923774D01*
X189769585Y-69840047D01*
X189769583Y-69840046D01*
X189759576Y-69835380D01*
X189546871Y-69778385D01*
X189327500Y-69759193D01*
X189108129Y-69778385D01*
X188895424Y-69835380D01*
X188885418Y-69840046D01*
X188885415Y-69840047D01*
X188705861Y-69923774D01*
X188705857Y-69923776D01*
X188695847Y-69928444D01*
X188686797Y-69934781D01*
X188686795Y-69934782D01*
X188524510Y-70048415D01*
X188524506Y-70048418D01*
X188515462Y-70054751D01*
X188359751Y-70210462D01*
X188264742Y-70346149D01*
X188193437Y-70414408D01*
X188101433Y-70450186D01*
X188002741Y-70448033D01*
X187912385Y-70408276D01*
X187850258Y-70346149D01*
X187755249Y-70210462D01*
X187599538Y-70054751D01*
X187590494Y-70048418D01*
X187590490Y-70048415D01*
X187528885Y-70005279D01*
X187460622Y-69933970D01*
X187424844Y-69841966D01*
X187421000Y-69798034D01*
X187421000Y-69215946D01*
X190964068Y-69215946D01*
X190974691Y-69231665D01*
X191849881Y-70106855D01*
X191867500Y-70118628D01*
X191885119Y-70106855D01*
X192758907Y-69233067D01*
X192770091Y-69216329D01*
X192754935Y-69205970D01*
X192561235Y-69120942D01*
X192545060Y-69115119D01*
X192296757Y-69044388D01*
X192279928Y-69040810D01*
X192024309Y-69004430D01*
X192007183Y-69003172D01*
X191748978Y-69001820D01*
X191731830Y-69002899D01*
X191475834Y-69036601D01*
X191458993Y-69039997D01*
X191209941Y-69108130D01*
X191193718Y-69113780D01*
X190980464Y-69204740D01*
X190964068Y-69215946D01*
X187421000Y-69215946D01*
X187421000Y-68370616D01*
X187421250Y-68365326D01*
X187423202Y-68356591D01*
X187421125Y-68290518D01*
X187421000Y-68282569D01*
X187421000Y-68256644D01*
X187420005Y-68248763D01*
X187419870Y-68246624D01*
X187419496Y-68238693D01*
X187418673Y-68212519D01*
X187418173Y-68196610D01*
X187413733Y-68181326D01*
X187412258Y-68172014D01*
X187410311Y-68162612D01*
X187407969Y-68153489D01*
X187405974Y-68137703D01*
X187391903Y-68102163D01*
X187384183Y-68079616D01*
X187377958Y-68058189D01*
X187373518Y-68042907D01*
X187365416Y-68029207D01*
X187361673Y-68020558D01*
X187357448Y-68011934D01*
X187352911Y-68003681D01*
X187347052Y-67988883D01*
X187324585Y-67957960D01*
X187311502Y-67938042D01*
X187300143Y-67918835D01*
X187292042Y-67905137D01*
X187280792Y-67893887D01*
X187275025Y-67886452D01*
X187268785Y-67879147D01*
X187262330Y-67872273D01*
X187252972Y-67859393D01*
X187223526Y-67835033D01*
X187205897Y-67818992D01*
X186907102Y-67520197D01*
X186852258Y-67438118D01*
X186833000Y-67341299D01*
X186833000Y-65405069D01*
X186852258Y-65308250D01*
X186907102Y-65226171D01*
X186954744Y-65188781D01*
X187032383Y-65141668D01*
X187180418Y-65013210D01*
X187204826Y-64992030D01*
X187204828Y-64992028D01*
X187212919Y-64985007D01*
X187364478Y-64800167D01*
X187417850Y-64706406D01*
X187477426Y-64601747D01*
X187477427Y-64601744D01*
X187482727Y-64592434D01*
X187511710Y-64512586D01*
X187560630Y-64377815D01*
X187560631Y-64377810D01*
X187564284Y-64367747D01*
X187586236Y-64246350D01*
X187605334Y-64140740D01*
X187605335Y-64140734D01*
X187606818Y-64132531D01*
X187607279Y-64122751D01*
X187607859Y-64110461D01*
X187607859Y-64110455D01*
X187608000Y-64107468D01*
X187608000Y-64069590D01*
X189109500Y-64069590D01*
X189109792Y-64078170D01*
X189123967Y-64286094D01*
X189126301Y-64303131D01*
X189182805Y-64575979D01*
X189187430Y-64592543D01*
X189280443Y-64855202D01*
X189287272Y-64870985D01*
X189415071Y-65118591D01*
X189423974Y-65133292D01*
X189584200Y-65361270D01*
X189595017Y-65374629D01*
X189784691Y-65578743D01*
X189797230Y-65590518D01*
X190012858Y-65767007D01*
X190026865Y-65776961D01*
X190264447Y-65922551D01*
X190279692Y-65930521D01*
X190534835Y-66042520D01*
X190551005Y-66048342D01*
X190620535Y-66068148D01*
X190641656Y-66069866D01*
X190643171Y-66066913D01*
X190644500Y-66057396D01*
X190644500Y-66050638D01*
X191914500Y-66050638D01*
X191918634Y-66071422D01*
X191922557Y-66072202D01*
X191930814Y-66071093D01*
X191986501Y-66055859D01*
X192002727Y-66050208D01*
X192259045Y-65940879D01*
X192274347Y-65933082D01*
X192513455Y-65789980D01*
X192527568Y-65780171D01*
X192745028Y-65605951D01*
X192757681Y-65594316D01*
X192949492Y-65392189D01*
X192960449Y-65378945D01*
X193123051Y-65152660D01*
X193132106Y-65138056D01*
X193262498Y-64891790D01*
X193269485Y-64876096D01*
X193365244Y-64614422D01*
X193370045Y-64597896D01*
X193429400Y-64325670D01*
X193431915Y-64308643D01*
X193449110Y-64090156D01*
X193449500Y-64080228D01*
X193449500Y-63759418D01*
X193445366Y-63738634D01*
X193424582Y-63734500D01*
X191939418Y-63734500D01*
X191918634Y-63738634D01*
X191914500Y-63759418D01*
X191914500Y-66050638D01*
X190644500Y-66050638D01*
X190644500Y-63759418D01*
X190640366Y-63738634D01*
X190619582Y-63734500D01*
X189134418Y-63734500D01*
X189113634Y-63738634D01*
X189109500Y-63759418D01*
X189109500Y-64069590D01*
X187608000Y-64069590D01*
X187608000Y-62439582D01*
X189109500Y-62439582D01*
X189113634Y-62460366D01*
X189134418Y-62464500D01*
X190619582Y-62464500D01*
X190640366Y-62460366D01*
X190644500Y-62439582D01*
X191914500Y-62439582D01*
X191918634Y-62460366D01*
X191939418Y-62464500D01*
X193424582Y-62464500D01*
X193445366Y-62460366D01*
X193449500Y-62439582D01*
X193449500Y-62129410D01*
X193449208Y-62120830D01*
X193435033Y-61912906D01*
X193432699Y-61895869D01*
X193397874Y-61727703D01*
X197280743Y-61727703D01*
X197283362Y-61747598D01*
X197313103Y-61973500D01*
X197318268Y-62012734D01*
X197320539Y-62021036D01*
X197320540Y-62021040D01*
X197328883Y-62051535D01*
X197394129Y-62290036D01*
X197418794Y-62347861D01*
X197495573Y-62527866D01*
X197506923Y-62554476D01*
X197511347Y-62561868D01*
X197511348Y-62561870D01*
X197650140Y-62793775D01*
X197650144Y-62793781D01*
X197654561Y-62801161D01*
X197659940Y-62807875D01*
X197659942Y-62807878D01*
X197828926Y-63018804D01*
X197834313Y-63025528D01*
X197840553Y-63031450D01*
X197840559Y-63031456D01*
X197857578Y-63047606D01*
X198042851Y-63223423D01*
X198049847Y-63228450D01*
X198049848Y-63228451D01*
X198117602Y-63277137D01*
X198276317Y-63391186D01*
X198283919Y-63395211D01*
X198283927Y-63395216D01*
X198522784Y-63521684D01*
X198530392Y-63525712D01*
X198538473Y-63528669D01*
X198538477Y-63528671D01*
X198574920Y-63542007D01*
X198800373Y-63624511D01*
X198808785Y-63626345D01*
X198808788Y-63626346D01*
X199072846Y-63683920D01*
X199072852Y-63683921D01*
X199081264Y-63685755D01*
X199248444Y-63698912D01*
X199301782Y-63703110D01*
X199301785Y-63703110D01*
X199306739Y-63703500D01*
X199462271Y-63703500D01*
X199466551Y-63703208D01*
X199466557Y-63703208D01*
X199577032Y-63695676D01*
X199676825Y-63688873D01*
X199691882Y-63685755D01*
X199949901Y-63632322D01*
X199958342Y-63630574D01*
X200229343Y-63534607D01*
X200258613Y-63519500D01*
X200477157Y-63406701D01*
X200484812Y-63402750D01*
X200645430Y-63289866D01*
X200712973Y-63242396D01*
X200712975Y-63242395D01*
X200720023Y-63237441D01*
X200930622Y-63041740D01*
X200939040Y-63031456D01*
X201065743Y-62876654D01*
X201112713Y-62819268D01*
X201117206Y-62811936D01*
X201117211Y-62811929D01*
X201258426Y-62581487D01*
X201262927Y-62574142D01*
X201281945Y-62530819D01*
X201375022Y-62318783D01*
X201375023Y-62318780D01*
X201378483Y-62310898D01*
X201388473Y-62275828D01*
X201454887Y-62042681D01*
X201454888Y-62042678D01*
X201457244Y-62034406D01*
X201497751Y-61749784D01*
X201499257Y-61462297D01*
X201483656Y-61343798D01*
X201462856Y-61185801D01*
X201462855Y-61185796D01*
X201461732Y-61177266D01*
X201453540Y-61147319D01*
X201430956Y-61064769D01*
X201385871Y-60899964D01*
X201337891Y-60787477D01*
X201276456Y-60643445D01*
X201276454Y-60643440D01*
X201273077Y-60635524D01*
X201240631Y-60581311D01*
X201129860Y-60396225D01*
X201129856Y-60396219D01*
X201125439Y-60388839D01*
X201118194Y-60379795D01*
X200951074Y-60171196D01*
X200945687Y-60164472D01*
X200939447Y-60158550D01*
X200939441Y-60158544D01*
X200810819Y-60036487D01*
X200737149Y-59966577D01*
X200710746Y-59947604D01*
X200510677Y-59803840D01*
X200503683Y-59798814D01*
X200496081Y-59794789D01*
X200496073Y-59794784D01*
X200257216Y-59668316D01*
X200257213Y-59668315D01*
X200249608Y-59664288D01*
X200241527Y-59661331D01*
X200241523Y-59661329D01*
X200141918Y-59624879D01*
X199979627Y-59565489D01*
X199971215Y-59563655D01*
X199971212Y-59563654D01*
X199707154Y-59506080D01*
X199707148Y-59506079D01*
X199698736Y-59504245D01*
X199531556Y-59491088D01*
X199478218Y-59486890D01*
X199478215Y-59486890D01*
X199473261Y-59486500D01*
X199317729Y-59486500D01*
X199313449Y-59486792D01*
X199313443Y-59486792D01*
X199202968Y-59494324D01*
X199103175Y-59501127D01*
X199094735Y-59502875D01*
X199094734Y-59502875D01*
X199079258Y-59506080D01*
X198821658Y-59559426D01*
X198550657Y-59655393D01*
X198295188Y-59787250D01*
X198059977Y-59952559D01*
X197849378Y-60148260D01*
X197843923Y-60154925D01*
X197843919Y-60154929D01*
X197783623Y-60228597D01*
X197667287Y-60370732D01*
X197662794Y-60378064D01*
X197662789Y-60378071D01*
X197523920Y-60604684D01*
X197517073Y-60615858D01*
X197513613Y-60623741D01*
X197513610Y-60623746D01*
X197404978Y-60871217D01*
X197401517Y-60879102D01*
X197399158Y-60887382D01*
X197399158Y-60887383D01*
X197345671Y-61075152D01*
X197322756Y-61155594D01*
X197282249Y-61440216D01*
X197282204Y-61448821D01*
X197280861Y-61705257D01*
X197280743Y-61727703D01*
X193397874Y-61727703D01*
X193376195Y-61623021D01*
X193371570Y-61606457D01*
X193278557Y-61343798D01*
X193271728Y-61328015D01*
X193143929Y-61080409D01*
X193135026Y-61065708D01*
X192974800Y-60837730D01*
X192963983Y-60824371D01*
X192774309Y-60620257D01*
X192761770Y-60608482D01*
X192546142Y-60431993D01*
X192532135Y-60422039D01*
X192294553Y-60276449D01*
X192279308Y-60268479D01*
X192024165Y-60156480D01*
X192007995Y-60150658D01*
X191938465Y-60130852D01*
X191917344Y-60129134D01*
X191915829Y-60132087D01*
X191914500Y-60141604D01*
X191914500Y-62439582D01*
X190644500Y-62439582D01*
X190644500Y-60148362D01*
X190640366Y-60127578D01*
X190636443Y-60126798D01*
X190628186Y-60127907D01*
X190572499Y-60143141D01*
X190556273Y-60148792D01*
X190299955Y-60258121D01*
X190284653Y-60265918D01*
X190045545Y-60409020D01*
X190031432Y-60418829D01*
X189813972Y-60593049D01*
X189801319Y-60604684D01*
X189609508Y-60806811D01*
X189598551Y-60820055D01*
X189435949Y-61046340D01*
X189426894Y-61060944D01*
X189296502Y-61307210D01*
X189289515Y-61322904D01*
X189193756Y-61584578D01*
X189188955Y-61601104D01*
X189129600Y-61873330D01*
X189127085Y-61890357D01*
X189109890Y-62108844D01*
X189109500Y-62118773D01*
X189109500Y-62439582D01*
X187608000Y-62439582D01*
X187608000Y-62139488D01*
X187607548Y-62134158D01*
X187593789Y-61971999D01*
X187593788Y-61971995D01*
X187592883Y-61961325D01*
X187585941Y-61934577D01*
X187535525Y-61740334D01*
X187535523Y-61740329D01*
X187532832Y-61729960D01*
X187528433Y-61720194D01*
X187528431Y-61720189D01*
X187439055Y-61521784D01*
X187434657Y-61512020D01*
X187421632Y-61492672D01*
X187345913Y-61380203D01*
X187301166Y-61313738D01*
X187136174Y-61140782D01*
X187127585Y-61134392D01*
X187127581Y-61134388D01*
X186952995Y-61004493D01*
X186944400Y-60998098D01*
X186822181Y-60935959D01*
X186740884Y-60894625D01*
X186740879Y-60894623D01*
X186731328Y-60889767D01*
X186721094Y-60886589D01*
X186721091Y-60886588D01*
X186513284Y-60822062D01*
X186513280Y-60822061D01*
X186503048Y-60818884D01*
X186266089Y-60787477D01*
X186027226Y-60796445D01*
X185894132Y-60824371D01*
X185803778Y-60843329D01*
X185803776Y-60843330D01*
X185793289Y-60845530D01*
X185742258Y-60865683D01*
X185580935Y-60929392D01*
X185580931Y-60929394D01*
X185570967Y-60933329D01*
X185366617Y-61057332D01*
X185186081Y-61213993D01*
X185034522Y-61398833D01*
X185029222Y-61408144D01*
X184981106Y-61492672D01*
X184916273Y-61606566D01*
X184912617Y-61616637D01*
X184912617Y-61616638D01*
X184840802Y-61814487D01*
X184834716Y-61831253D01*
X184832810Y-61841795D01*
X184794883Y-62051535D01*
X184792182Y-62066469D01*
X184791789Y-62074798D01*
X184791789Y-62074800D01*
X184791283Y-62085539D01*
X184791000Y-62091532D01*
X184791000Y-64059512D01*
X184791452Y-64064836D01*
X184791452Y-64064842D01*
X184803390Y-64205532D01*
X184806117Y-64237675D01*
X184808808Y-64248043D01*
X184857261Y-64434722D01*
X184866168Y-64469040D01*
X184870567Y-64478806D01*
X184870569Y-64478811D01*
X184914341Y-64575979D01*
X184964343Y-64686980D01*
X184970321Y-64695860D01*
X184970323Y-64695863D01*
X184977421Y-64706406D01*
X185097834Y-64885262D01*
X185262826Y-65058218D01*
X185271415Y-65064608D01*
X185271419Y-65064612D01*
X185445999Y-65194503D01*
X185454600Y-65200902D01*
X185453927Y-65201807D01*
X185518458Y-65262091D01*
X185559316Y-65351954D01*
X185566000Y-65409725D01*
X185566000Y-67510741D01*
X185562884Y-67550326D01*
X185560658Y-67564378D01*
X185557681Y-67579983D01*
X185557319Y-67581604D01*
X185546298Y-67630909D01*
X185546798Y-67646811D01*
X185546402Y-67650998D01*
X185546269Y-67655227D01*
X185543780Y-67670943D01*
X185545278Y-67686788D01*
X185548690Y-67722882D01*
X185549688Y-67738736D01*
X185551327Y-67790889D01*
X185555767Y-67806171D01*
X185556425Y-67810326D01*
X185557345Y-67814441D01*
X185558843Y-67830292D01*
X185564235Y-67845268D01*
X185564235Y-67845269D01*
X185576517Y-67879384D01*
X185581427Y-67894497D01*
X185591540Y-67929304D01*
X185595982Y-67944593D01*
X185604085Y-67958293D01*
X185605760Y-67962165D01*
X185607669Y-67965912D01*
X185613061Y-67980889D01*
X185640020Y-68020558D01*
X185642387Y-68024041D01*
X185650902Y-68037459D01*
X185677458Y-68082362D01*
X185688705Y-68093609D01*
X185691281Y-68096930D01*
X185694080Y-68100105D01*
X185703028Y-68113271D01*
X185714969Y-68123798D01*
X185742164Y-68147774D01*
X185753750Y-68158654D01*
X186079898Y-68484802D01*
X186134742Y-68566881D01*
X186154000Y-68663700D01*
X186154000Y-69798034D01*
X186134742Y-69894853D01*
X186079898Y-69976932D01*
X186046115Y-70005279D01*
X185984510Y-70048415D01*
X185984506Y-70048418D01*
X185975462Y-70054751D01*
X185877660Y-70152553D01*
X185795581Y-70207397D01*
X185698762Y-70226655D01*
X185601943Y-70207397D01*
X185519864Y-70152553D01*
X185461862Y-70062465D01*
X185454443Y-70042674D01*
X185454442Y-70042672D01*
X185448115Y-70025795D01*
X185432740Y-70005279D01*
X185371569Y-69923660D01*
X185360761Y-69909239D01*
X185327418Y-69884250D01*
X185258628Y-69832694D01*
X185258626Y-69832693D01*
X185244205Y-69821885D01*
X185227328Y-69815558D01*
X185227326Y-69815557D01*
X185176104Y-69796355D01*
X185107816Y-69770755D01*
X185092045Y-69769042D01*
X185092042Y-69769041D01*
X185052450Y-69764740D01*
X185052442Y-69764740D01*
X185045634Y-69764000D01*
X183449366Y-69764000D01*
X183442558Y-69764740D01*
X183442550Y-69764740D01*
X183402958Y-69769041D01*
X183402955Y-69769042D01*
X183387184Y-69770755D01*
X183318896Y-69796355D01*
X183267674Y-69815557D01*
X183267672Y-69815558D01*
X183250795Y-69821885D01*
X183236374Y-69832693D01*
X183236372Y-69832694D01*
X183167582Y-69884250D01*
X183134239Y-69909239D01*
X183123431Y-69923660D01*
X183062261Y-70005279D01*
X183046885Y-70025795D01*
X183040558Y-70042672D01*
X183040557Y-70042674D01*
X183036030Y-70054751D01*
X182995755Y-70162184D01*
X182994042Y-70177955D01*
X182994041Y-70177958D01*
X182991359Y-70202652D01*
X182989000Y-70224366D01*
X182989000Y-71820634D01*
X172991679Y-71820634D01*
X172991679Y-69455800D01*
X173010937Y-69358981D01*
X173065781Y-69276902D01*
X173147860Y-69222058D01*
X173244679Y-69202800D01*
X173278967Y-69202800D01*
X173430883Y-69187369D01*
X173537234Y-69154040D01*
X173613251Y-69130218D01*
X173613253Y-69130217D01*
X173625478Y-69126386D01*
X173645805Y-69115119D01*
X173756679Y-69053661D01*
X173803837Y-69027521D01*
X173958673Y-68894810D01*
X174083661Y-68733676D01*
X174173696Y-68550701D01*
X174190862Y-68484802D01*
X174221868Y-68365766D01*
X174225100Y-68353359D01*
X174232440Y-68213293D01*
X174256738Y-68117615D01*
X174315802Y-68038518D01*
X174400639Y-67988045D01*
X174498333Y-67973880D01*
X174530546Y-67977650D01*
X174574203Y-67985623D01*
X174582312Y-67986048D01*
X174653458Y-67989777D01*
X174653474Y-67989777D01*
X174656767Y-67989950D01*
X174817613Y-67989950D01*
X174822408Y-67989585D01*
X174822415Y-67989585D01*
X174999707Y-67976099D01*
X174999712Y-67976098D01*
X175009286Y-67975370D01*
X175134968Y-67946238D01*
X175251295Y-67919275D01*
X175251300Y-67919274D01*
X175260651Y-67917106D01*
X175416207Y-67855046D01*
X175491381Y-67825055D01*
X175491384Y-67825053D01*
X175500311Y-67821492D01*
X175722750Y-67690726D01*
X175771549Y-67650998D01*
X175915405Y-67533881D01*
X175922851Y-67527819D01*
X176096007Y-67336519D01*
X176150629Y-67253838D01*
X176232939Y-67129245D01*
X176232941Y-67129242D01*
X176238235Y-67121228D01*
X176301815Y-66983312D01*
X176342237Y-66895630D01*
X176342239Y-66895624D01*
X176346261Y-66886900D01*
X176368489Y-66809637D01*
X176414944Y-66648162D01*
X176414945Y-66648159D01*
X176417600Y-66638929D01*
X176450610Y-66383020D01*
X176450359Y-66372338D01*
X176446913Y-66226161D01*
X176444531Y-66125063D01*
X176399503Y-65870993D01*
X176392519Y-65850417D01*
X176319649Y-65635752D01*
X176316562Y-65626658D01*
X176197617Y-65397679D01*
X176191953Y-65389926D01*
X176191950Y-65389921D01*
X176051069Y-65197078D01*
X176051065Y-65197074D01*
X176045406Y-65189327D01*
X176008931Y-65152660D01*
X175907273Y-65050469D01*
X175863430Y-65006396D01*
X175736023Y-64912292D01*
X175669589Y-64839281D01*
X175636150Y-64746401D01*
X175638343Y-64699900D01*
X179711000Y-64699900D01*
X179711675Y-64706405D01*
X179711675Y-64706406D01*
X179719123Y-64778185D01*
X179721974Y-64805666D01*
X179726355Y-64818797D01*
X179772892Y-64958284D01*
X179777950Y-64973446D01*
X179871022Y-65123848D01*
X179881423Y-65134230D01*
X179881423Y-65134231D01*
X179929795Y-65182519D01*
X179996197Y-65248805D01*
X180008710Y-65256518D01*
X180119610Y-65324878D01*
X180146762Y-65341615D01*
X180239390Y-65372338D01*
X180300614Y-65392645D01*
X180314639Y-65397297D01*
X180419100Y-65408000D01*
X181819900Y-65408000D01*
X181826406Y-65407325D01*
X181911896Y-65398455D01*
X181911898Y-65398454D01*
X181925666Y-65397026D01*
X181999665Y-65372338D01*
X182079506Y-65345701D01*
X182079508Y-65345700D01*
X182093446Y-65341050D01*
X182168647Y-65294514D01*
X182231352Y-65255711D01*
X182231353Y-65255710D01*
X182243848Y-65247978D01*
X182368805Y-65122803D01*
X182443373Y-65001832D01*
X182453902Y-64984751D01*
X182453902Y-64984750D01*
X182461615Y-64972238D01*
X182517297Y-64804361D01*
X182528000Y-64699900D01*
X182528000Y-61499100D01*
X182524562Y-61465961D01*
X182518455Y-61407104D01*
X182518454Y-61407102D01*
X182517026Y-61393334D01*
X182486623Y-61302205D01*
X182465701Y-61239494D01*
X182465700Y-61239492D01*
X182461050Y-61225554D01*
X182413387Y-61148531D01*
X182375711Y-61087648D01*
X182375710Y-61087647D01*
X182367978Y-61075152D01*
X182345274Y-61052487D01*
X182272866Y-60980206D01*
X182242803Y-60950195D01*
X182092238Y-60857385D01*
X181939761Y-60806811D01*
X181937473Y-60806052D01*
X181924361Y-60801703D01*
X181819900Y-60791000D01*
X180419100Y-60791000D01*
X180412595Y-60791675D01*
X180412594Y-60791675D01*
X180327104Y-60800545D01*
X180327102Y-60800546D01*
X180313334Y-60801974D01*
X180300202Y-60806355D01*
X180300203Y-60806355D01*
X180159494Y-60853299D01*
X180159492Y-60853300D01*
X180145554Y-60857950D01*
X180124115Y-60871217D01*
X180030106Y-60929392D01*
X179995152Y-60951022D01*
X179984770Y-60961423D01*
X179984769Y-60961423D01*
X179948158Y-60998098D01*
X179870195Y-61076197D01*
X179777385Y-61226762D01*
X179721703Y-61394639D01*
X179711000Y-61499100D01*
X179711000Y-64699900D01*
X175638343Y-64699900D01*
X175640800Y-64647795D01*
X175682831Y-64558474D01*
X175726607Y-64512586D01*
X175915400Y-64358886D01*
X175915407Y-64358879D01*
X175922851Y-64352819D01*
X175939930Y-64333951D01*
X176039748Y-64223673D01*
X176096007Y-64161519D01*
X176149368Y-64080747D01*
X176232939Y-63954245D01*
X176232941Y-63954242D01*
X176238235Y-63946228D01*
X176242260Y-63937498D01*
X176342237Y-63720630D01*
X176342239Y-63720624D01*
X176346261Y-63711900D01*
X176348918Y-63702665D01*
X176414944Y-63473162D01*
X176414945Y-63473159D01*
X176417600Y-63463929D01*
X176446815Y-63237441D01*
X176449381Y-63217548D01*
X176450610Y-63208020D01*
X176449427Y-63157795D01*
X176446691Y-63041740D01*
X176445352Y-62984913D01*
X176462324Y-62887668D01*
X176515219Y-62804320D01*
X176595983Y-62747557D01*
X176692321Y-62726023D01*
X176789567Y-62742995D01*
X176872915Y-62795890D01*
X176929678Y-62876654D01*
X176938899Y-62900771D01*
X176965473Y-62982556D01*
X177060960Y-63147944D01*
X177188747Y-63289866D01*
X177343248Y-63402118D01*
X177452744Y-63450869D01*
X177499506Y-63471688D01*
X177517712Y-63479794D01*
X177627215Y-63503070D01*
X177691541Y-63516743D01*
X177691544Y-63516743D01*
X177704513Y-63519500D01*
X177895487Y-63519500D01*
X177908456Y-63516743D01*
X177908459Y-63516743D01*
X177972785Y-63503070D01*
X178082288Y-63479794D01*
X178100495Y-63471688D01*
X178147256Y-63450869D01*
X178256752Y-63402118D01*
X178411253Y-63289866D01*
X178539040Y-63147944D01*
X178634527Y-62982556D01*
X178685418Y-62825931D01*
X178689446Y-62813535D01*
X178689447Y-62813532D01*
X178693542Y-62800928D01*
X178698107Y-62757500D01*
X178712118Y-62624187D01*
X178713504Y-62611000D01*
X178709531Y-62573198D01*
X178694928Y-62434256D01*
X178694927Y-62434253D01*
X178693542Y-62421072D01*
X178651110Y-62290479D01*
X178638624Y-62252053D01*
X178634527Y-62239444D01*
X178566045Y-62120830D01*
X178545670Y-62085539D01*
X178545669Y-62085537D01*
X178539040Y-62074056D01*
X178411253Y-61932134D01*
X178256752Y-61819882D01*
X178082288Y-61742206D01*
X177972785Y-61718930D01*
X177908459Y-61705257D01*
X177908456Y-61705257D01*
X177895487Y-61702500D01*
X177882227Y-61702500D01*
X177869040Y-61701114D01*
X177869372Y-61697959D01*
X177795382Y-61683242D01*
X177713303Y-61628398D01*
X176776357Y-60691452D01*
X176772794Y-60687536D01*
X176768000Y-60679982D01*
X176719809Y-60634728D01*
X176714101Y-60629196D01*
X176695770Y-60610865D01*
X176689497Y-60605999D01*
X176687894Y-60604586D01*
X176682020Y-60599241D01*
X176662926Y-60581311D01*
X176662922Y-60581308D01*
X176651321Y-60570414D01*
X176637377Y-60562748D01*
X176629762Y-60557215D01*
X176621712Y-60551928D01*
X176613618Y-60547141D01*
X176601041Y-60537386D01*
X176586435Y-60531066D01*
X176586431Y-60531063D01*
X176565959Y-60522204D01*
X176544552Y-60511717D01*
X176525011Y-60500974D01*
X176525007Y-60500973D01*
X176511060Y-60493305D01*
X176495641Y-60489346D01*
X176486889Y-60485881D01*
X176477788Y-60482765D01*
X176468750Y-60480139D01*
X176454145Y-60473819D01*
X176438428Y-60471330D01*
X176438423Y-60471328D01*
X176416385Y-60467837D01*
X176393063Y-60463008D01*
X176356030Y-60453500D01*
X176340113Y-60453500D01*
X176330765Y-60452319D01*
X176321198Y-60451566D01*
X176311778Y-60451270D01*
X176296057Y-60448780D01*
X176280210Y-60450278D01*
X176258005Y-60452377D01*
X176234195Y-60453500D01*
X168616010Y-60453500D01*
X168519191Y-60434242D01*
X168437112Y-60379398D01*
X168396904Y-60326997D01*
X168385670Y-60307539D01*
X168385668Y-60307537D01*
X168379040Y-60296056D01*
X168251253Y-60154134D01*
X168236123Y-60143141D01*
X168192000Y-60111084D01*
X168096752Y-60041882D01*
X167922288Y-59964206D01*
X167812785Y-59940930D01*
X167748459Y-59927257D01*
X167748456Y-59927257D01*
X167735487Y-59924500D01*
X167544513Y-59924500D01*
X167531544Y-59927257D01*
X167531541Y-59927257D01*
X167467215Y-59940930D01*
X167357712Y-59964206D01*
X167183248Y-60041882D01*
X167172518Y-60049678D01*
X167172516Y-60049679D01*
X167032811Y-60151181D01*
X166943163Y-60192510D01*
X166884101Y-60199500D01*
X145616117Y-60199500D01*
X145610825Y-60199250D01*
X145602091Y-60197298D01*
X145546041Y-60199060D01*
X145536005Y-60199375D01*
X145528057Y-60199500D01*
X145502144Y-60199500D01*
X145494266Y-60200495D01*
X145492151Y-60200628D01*
X145484223Y-60201002D01*
X145472398Y-60201374D01*
X145442111Y-60202326D01*
X145426818Y-60206769D01*
X145417495Y-60208246D01*
X145408148Y-60210181D01*
X145398995Y-60212531D01*
X145383203Y-60214526D01*
X145347654Y-60228600D01*
X145325120Y-60236315D01*
X145288407Y-60246982D01*
X145274705Y-60255086D01*
X145266050Y-60258831D01*
X145257456Y-60263041D01*
X145249187Y-60267587D01*
X145234383Y-60273448D01*
X145203454Y-60295919D01*
X145183543Y-60308998D01*
X145164337Y-60320356D01*
X145164335Y-60320357D01*
X145150638Y-60328458D01*
X145139382Y-60339714D01*
X145131941Y-60345486D01*
X145124643Y-60351719D01*
X145117774Y-60358169D01*
X145104893Y-60367528D01*
X145094745Y-60379795D01*
X145080529Y-60396979D01*
X145064487Y-60414609D01*
X144612697Y-60866398D01*
X144530618Y-60921242D01*
X144456628Y-60935959D01*
X144456960Y-60939114D01*
X144443773Y-60940500D01*
X144430513Y-60940500D01*
X144417544Y-60943257D01*
X144417541Y-60943257D01*
X144381011Y-60951022D01*
X144243712Y-60980206D01*
X144069248Y-61057882D01*
X144028279Y-61087648D01*
X143934760Y-61155594D01*
X143914747Y-61170134D01*
X143786960Y-61312056D01*
X143691473Y-61477444D01*
X143687376Y-61490053D01*
X143642425Y-61628398D01*
X143632458Y-61659072D01*
X143631073Y-61672253D01*
X143631072Y-61672256D01*
X143622924Y-61749784D01*
X143612496Y-61849000D01*
X104455631Y-61849000D01*
X104469751Y-61749784D01*
X104471257Y-61462297D01*
X104455656Y-61343798D01*
X104434856Y-61185801D01*
X104434855Y-61185796D01*
X104433732Y-61177266D01*
X104425540Y-61147319D01*
X104402956Y-61064769D01*
X104357871Y-60899964D01*
X104309891Y-60787477D01*
X104248456Y-60643445D01*
X104248454Y-60643440D01*
X104245077Y-60635524D01*
X104212631Y-60581311D01*
X104101860Y-60396225D01*
X104101856Y-60396219D01*
X104097439Y-60388839D01*
X104090194Y-60379795D01*
X103923074Y-60171196D01*
X103917687Y-60164472D01*
X103911447Y-60158550D01*
X103911441Y-60158544D01*
X103782819Y-60036487D01*
X103709149Y-59966577D01*
X103682746Y-59947604D01*
X103482677Y-59803840D01*
X103475683Y-59798814D01*
X103468081Y-59794789D01*
X103468073Y-59794784D01*
X103229216Y-59668316D01*
X103229213Y-59668315D01*
X103221608Y-59664288D01*
X103213527Y-59661331D01*
X103213523Y-59661329D01*
X103113918Y-59624879D01*
X102951627Y-59565489D01*
X102943215Y-59563655D01*
X102943212Y-59563654D01*
X102679154Y-59506080D01*
X102679148Y-59506079D01*
X102670736Y-59504245D01*
X102503556Y-59491088D01*
X102450218Y-59486890D01*
X102450215Y-59486890D01*
X102445261Y-59486500D01*
X102289729Y-59486500D01*
X102285449Y-59486792D01*
X102285443Y-59486792D01*
X102174968Y-59494324D01*
X102075175Y-59501127D01*
X102066735Y-59502875D01*
X102066734Y-59502875D01*
X102051258Y-59506080D01*
X101793658Y-59559426D01*
X101522657Y-59655393D01*
X101267188Y-59787250D01*
X101031977Y-59952559D01*
X100821378Y-60148260D01*
X100815923Y-60154925D01*
X100815919Y-60154929D01*
X100755623Y-60228597D01*
X100639287Y-60370732D01*
X100634794Y-60378064D01*
X100634789Y-60378071D01*
X100495920Y-60604684D01*
X100489073Y-60615858D01*
X100485613Y-60623741D01*
X100485610Y-60623746D01*
X100376978Y-60871217D01*
X100373517Y-60879102D01*
X100371158Y-60887382D01*
X100371158Y-60887383D01*
X100317671Y-61075152D01*
X100294756Y-61155594D01*
X100254249Y-61440216D01*
X100254204Y-61448821D01*
X100252861Y-61705257D01*
X100252743Y-61727703D01*
X99060500Y-61727703D01*
X99060500Y-58546500D01*
X99079758Y-58449681D01*
X99134602Y-58367602D01*
X99216681Y-58312758D01*
X99313500Y-58293500D01*
X202312000Y-58293500D01*
X202408819Y-58312758D01*
G37*
G04 #@! TD.AperFunction*
G04 #@! TA.AperFunction,Conductor*
G36*
X194057739Y-126110267D02*
G01*
X194125739Y-126130667D01*
X194171918Y-126184594D01*
X194183000Y-126236265D01*
X194183000Y-132589000D01*
X194162998Y-132657121D01*
X194109342Y-132703614D01*
X194057000Y-132715000D01*
X191391035Y-132715000D01*
X191322914Y-132694998D01*
X191276421Y-132641342D01*
X191265071Y-132586001D01*
X191388569Y-127399113D01*
X191388569Y-127399112D01*
X191389000Y-127381000D01*
X183769000Y-127381000D01*
X183769000Y-132589000D01*
X183748998Y-132657121D01*
X183695342Y-132703614D01*
X183643000Y-132715000D01*
X181355000Y-132715000D01*
X181286879Y-132694998D01*
X181240386Y-132641342D01*
X181229000Y-132589000D01*
X181229000Y-127381000D01*
X173609000Y-127381000D01*
X173609000Y-132589000D01*
X173588998Y-132657121D01*
X173535342Y-132703614D01*
X173483000Y-132715000D01*
X171195000Y-132715000D01*
X171126879Y-132694998D01*
X171080386Y-132641342D01*
X171069000Y-132589000D01*
X171069000Y-127381000D01*
X163449000Y-127381000D01*
X163449000Y-132589000D01*
X163428998Y-132657121D01*
X163375342Y-132703614D01*
X163323000Y-132715000D01*
X161035000Y-132715000D01*
X160966879Y-132694998D01*
X160920386Y-132641342D01*
X160909000Y-132589000D01*
X160909000Y-127381000D01*
X153289000Y-127381000D01*
X153289000Y-132589000D01*
X153268998Y-132657121D01*
X153215342Y-132703614D01*
X153163000Y-132715000D01*
X150875000Y-132715000D01*
X150806879Y-132694998D01*
X150760386Y-132641342D01*
X150749000Y-132589000D01*
X150749000Y-125983739D01*
X150769002Y-125915618D01*
X150822658Y-125869125D01*
X150875736Y-125857741D01*
X194057739Y-126110267D01*
G37*
G04 #@! TD.AperFunction*
G04 #@! TA.AperFunction,Conductor*
G36*
X111956121Y-77617002D02*
G01*
X112002614Y-77670658D01*
X112014000Y-77723000D01*
X112014000Y-88139000D01*
X111993998Y-88207121D01*
X111940342Y-88253614D01*
X111888000Y-88265000D01*
X107822000Y-88265000D01*
X107753879Y-88244998D01*
X107707386Y-88191342D01*
X107696000Y-88139000D01*
X107696000Y-77723000D01*
X107716002Y-77654879D01*
X107769658Y-77608386D01*
X107822000Y-77597000D01*
X111888000Y-77597000D01*
X111956121Y-77617002D01*
G37*
G04 #@! TD.AperFunction*
G04 #@! TA.AperFunction,Conductor*
G36*
X156533121Y-113304002D02*
G01*
X156579614Y-113357658D01*
X156591000Y-113410000D01*
X156591000Y-114936000D01*
X156570998Y-115004121D01*
X156517342Y-115050614D01*
X156465000Y-115062000D01*
X153543000Y-115062000D01*
X153543000Y-123444000D01*
X162179000Y-123444000D01*
X162179000Y-113410000D01*
X162199002Y-113341879D01*
X162252658Y-113295386D01*
X162305000Y-113284000D01*
X167260000Y-113284000D01*
X167328121Y-113304002D01*
X167374614Y-113357658D01*
X167386000Y-113410000D01*
X167386000Y-114936000D01*
X167365998Y-115004121D01*
X167312342Y-115050614D01*
X167260000Y-115062000D01*
X164592000Y-115062000D01*
X164592000Y-123444000D01*
X172974000Y-123444000D01*
X172974000Y-113410000D01*
X172994002Y-113341879D01*
X173047658Y-113295386D01*
X173100000Y-113284000D01*
X178055000Y-113284000D01*
X178123121Y-113304002D01*
X178169614Y-113357658D01*
X178181000Y-113410000D01*
X178181000Y-114936000D01*
X178160998Y-115004121D01*
X178107342Y-115050614D01*
X178055000Y-115062000D01*
X175133000Y-115062000D01*
X175133000Y-123444000D01*
X183769000Y-123444000D01*
X183769000Y-113410000D01*
X183789002Y-113341879D01*
X183842658Y-113295386D01*
X183895000Y-113284000D01*
X188850000Y-113284000D01*
X188918121Y-113304002D01*
X188964614Y-113357658D01*
X188976000Y-113410000D01*
X188976000Y-114936000D01*
X188955998Y-115004121D01*
X188902342Y-115050614D01*
X188850000Y-115062000D01*
X185928000Y-115062000D01*
X185928000Y-125096000D01*
X185907998Y-125164121D01*
X185854342Y-125210614D01*
X185802000Y-125222000D01*
X148844000Y-125222000D01*
X148844000Y-132716000D01*
X148823998Y-132784121D01*
X148770342Y-132830614D01*
X148718000Y-132842000D01*
X145795000Y-132842000D01*
X145726879Y-132821998D01*
X145680386Y-132768342D01*
X145669000Y-132716000D01*
X145669000Y-123570000D01*
X145689002Y-123501879D01*
X145742658Y-123455386D01*
X145795000Y-123444000D01*
X151384000Y-123444000D01*
X151384000Y-113410000D01*
X151404002Y-113341879D01*
X151457658Y-113295386D01*
X151510000Y-113284000D01*
X156465000Y-113284000D01*
X156533121Y-113304002D01*
G37*
G04 #@! TD.AperFunction*
M02*
