M48
; DRILL file {KiCad (6.0.4-0)} date Tuesday, May 03, 2022 at 08:05:31 PM
; FORMAT={-:-/ absolute / inch / decimal}
; #@! TF.CreationDate,2022-05-03T20:05:31-04:00
; #@! TF.GenerationSoftware,Kicad,Pcbnew,(6.0.4-0)
; #@! TF.FileFunction,Plated,1,2,PTH
FMAT,2
INCH
; #@! TA.AperFunction,Plated,PTH,ComponentDrill
T1C0.0118
; #@! TA.AperFunction,Plated,PTH,ViaDrill
T2C0.0130
; #@! TA.AperFunction,Plated,PTH,ViaDrill
T3C0.0157
; #@! TA.AperFunction,Plated,PTH,ComponentDrill
T4C0.0315
; #@! TA.AperFunction,Plated,PTH,ComponentDrill
T5C0.0472
; #@! TA.AperFunction,Plated,PTH,ComponentDrill
T6C0.0630
%
G90
G05
T1
X5.8455Y-2.5291
X5.8455Y-2.5685
X5.8455Y-2.6079
X5.8455Y-2.6472
X5.8455Y-2.6866
X5.8849Y-2.5291
X5.8849Y-2.5685
X5.8849Y-2.6079
X5.8849Y-2.6472
X5.8849Y-2.6866
X5.9243Y-2.5291
X5.9243Y-2.5685
X5.9243Y-2.6079
X5.9243Y-2.6472
X5.9243Y-2.6866
X5.9636Y-2.5291
X5.9636Y-2.5685
X5.9636Y-2.6079
X5.9636Y-2.6472
X5.9636Y-2.6866
X6.003Y-2.5291
X6.003Y-2.5685
X6.003Y-2.6079
X6.003Y-2.6472
X6.003Y-2.6866
T2
X4.866Y-3.617
X4.908Y-3.763
X4.91Y-3.617
X4.91Y-3.689
X5.0Y-3.705
X6.7887Y-2.6175
T3
X4.115Y-3.35
X4.12Y-3.7002
X4.135Y-2.73
X4.135Y-2.825
X4.155Y-4.42
X4.22Y-2.73
X4.22Y-2.825
X4.2256Y-4.385
X4.26Y-3.085
X4.305Y-2.73
X4.305Y-2.825
X4.305Y-3.455
X4.345Y-3.455
X4.35Y-3.085
X4.365Y-4.65
X4.39Y-3.085
X4.39Y-3.455
X4.43Y-4.42
X4.44Y-3.25
X4.44Y-3.3
X4.455Y-2.91
X4.48Y-3.25
X4.48Y-3.3
X4.505Y-4.385
X4.525Y-3.25
X4.525Y-3.3
X4.53Y-3.03
X4.53Y-3.075
X4.53Y-3.12
X4.53Y-3.165
X4.56Y-4.65
X4.575Y-3.03
X4.575Y-3.075
X4.575Y-3.12
X4.575Y-3.165
X4.575Y-3.25
X4.575Y-3.3
X4.645Y-4.185
X4.65Y-2.83
X4.71Y-4.425
X4.755Y-4.65
X4.7783Y-4.385
X4.96Y-4.65
X4.985Y-4.425
X5.055Y-4.385
X5.16Y-4.645
X5.1986Y-2.7636
X5.205Y-2.4
X5.265Y-4.425
X5.34Y-4.385
X5.35Y-4.245
X5.365Y-4.64
X5.478Y-3.037
X5.645Y-4.65
X5.6541Y-3.3891
X5.68Y-2.335
X5.69Y-2.435
X5.75Y-3.675
X5.8241Y-3.3909
X5.86Y-3.7
X5.905Y-4.695
X5.9941Y-3.3909
X6.03Y-3.705
X6.035Y-4.475
X6.035Y-4.515
X6.04Y-4.14
X6.105Y-2.985
X6.105Y-4.125
X6.1641Y-3.3909
X6.165Y-2.85
X6.18Y-2.795
X6.19Y-3.93
X6.19Y-4.38
X6.195Y-2.75
X6.2Y-3.72
X6.325Y-4.695
X6.33Y-4.295
X6.33Y-4.595
X6.3441Y-3.3891
X6.3892Y-2.3358
X6.42Y-2.435
X6.4281Y-3.8615
X6.43Y-3.635
X6.46Y-4.475
X6.46Y-4.515
X6.47Y-4.14
X6.495Y-3.635
X6.495Y-3.89
X6.5241Y-3.3909
X6.535Y-4.115
X6.6Y-2.395
X6.75Y-4.695
X6.76Y-4.295
X6.76Y-4.595
X6.78Y-2.985
X6.885Y-4.475
X6.885Y-4.515
X6.89Y-4.14
X6.9465Y-2.5485
X6.965Y-4.11
X7.0Y-2.465
X7.165Y-4.295
X7.165Y-4.595
X7.175Y-4.695
X7.31Y-4.475
X7.31Y-4.515
X7.3241Y-4.1441
X7.395Y-4.115
T4
X7.2538Y-2.7962
X7.3538Y-2.7962
X7.4538Y-2.7962
X7.5538Y-2.7962
T5
X4.32Y-5.135
X4.52Y-5.135
X4.72Y-5.135
X4.92Y-5.135
X5.12Y-5.135
X5.32Y-5.135
X5.62Y-4.018
X5.62Y-4.3133
X5.7907Y-5.1396
X5.9907Y-5.1396
X6.1907Y-5.1396
X6.3907Y-5.1396
X6.5907Y-5.1396
X6.7907Y-5.1396
X6.9907Y-5.1396
X7.1307Y-2.4842
X7.1907Y-5.1396
X7.3307Y-2.4842
X7.3907Y-5.1396
X7.5307Y-2.4842
X7.5907Y-5.1396
T6
X4.1979Y-3.9555
X4.316Y-4.1405
X4.4341Y-3.9555
T0
M30
